<svg preserveAspectRatio="none" width="100%" height="100%" overflow="visible" style="display: block;" viewBox="0 0 237 46.098" fill="none" xmlns="http://www.w3.org/2000/svg">
<g id="_&#227;&#131;&#172;&#227;&#130;&#164;&#227;&#131;&#164;&#227;&#131;&#188;_1" clip-path="url(#clip0_0_4)">
<g id="Vector">
<path d="M21.9323 45.6361C33.5981 45.6361 43.0551 36.1791 43.0551 24.5133C43.0551 12.8475 33.5981 3.3905 21.9323 3.3905C10.2665 3.3905 0.809481 12.8475 0.809481 24.5133C0.809481 36.1791 10.2665 45.6361 21.9323 45.6361Z" fill="var(--fill-0, white)"/>
<path d="M21.9323 45.6361C33.5981 45.6361 43.0551 36.1791 43.0551 24.5133C43.0551 12.8475 33.5981 3.3905 21.9323 3.3905C10.2665 3.3905 0.809481 12.8475 0.809481 24.5133C0.809481 36.1791 10.2665 45.6361 21.9323 45.6361Z" fill="url(#paint0_linear_0_4)" fill-opacity="0.2"/>
</g>
<g id="Group">
<g id="Vector_2">
<path d="M6.30632 32.1038V34.6297C7.47605 36.3377 8.91277 37.8422 10.5614 39.0924V32.1038H6.30632Z" fill="var(--fill-0, #4EB412)"/>
<path d="M6.30632 32.1038V34.6297C7.47605 36.3377 8.91277 37.8422 10.5614 39.0924V32.1038H6.30632Z" fill="url(#paint1_linear_0_4)" fill-opacity="0.2"/>
</g>
<g id="Vector_3">
<path d="M12.2948 30.2051V41.4107C13.6256 42.1184 15.0538 42.6736 16.5499 43.0508V30.2051H12.2948Z" fill="var(--fill-0, #4EB412)"/>
<path d="M12.2948 30.2051V41.4107C13.6256 42.1184 15.0538 42.6736 16.5499 43.0508V30.2051H12.2948Z" fill="url(#paint2_linear_0_4)" fill-opacity="0.2"/>
</g>
<g id="Vector_4">
<path d="M19.1351 31.6376V41.4954C19.8344 41.5717 20.5422 41.6141 21.2627 41.6141C21.9831 41.6141 22.6909 41.5717 23.3902 41.4954V31.6376H19.1351Z" fill="var(--fill-0, #4EB412)"/>
<path d="M19.1351 31.6376V41.4954C19.8344 41.5717 20.5422 41.6141 21.2627 41.6141C21.9831 41.6141 22.6909 41.5717 23.3902 41.4954V31.6376H19.1351Z" fill="url(#paint3_linear_0_4)" fill-opacity="0.2"/>
</g>
<g id="Vector_5">
<path d="M25.9712 34.8797V42.8983C27.4673 42.5211 28.8955 41.9659 30.2263 41.2581V34.884H25.9712V34.8797Z" fill="var(--fill-0, #4EB412)"/>
<path d="M25.9712 34.8797V42.8983C27.4673 42.5211 28.8955 41.9659 30.2263 41.2581V34.884H25.9712V34.8797Z" fill="url(#paint4_linear_0_4)" fill-opacity="0.2"/>
</g>
<g id="Vector_6">
<path d="M32.8073 30.0525V39.6095C34.4559 38.3635 35.8927 36.8547 37.0624 35.1467V30.0525H32.8073Z" fill="var(--fill-0, #4EB412)"/>
<path d="M32.8073 30.0525V39.6095C34.4559 38.3635 35.8927 36.8547 37.0624 35.1467V30.0525H32.8073Z" fill="url(#paint5_linear_0_4)" fill-opacity="0.2"/>
</g>
<g id="Vector_7">
<path d="M38.2745 33.1167C39.6349 30.489 40.402 27.5012 40.402 24.3395C40.402 23.3478 40.3257 22.3688 40.1816 21.4152H38.2745V33.1167Z" fill="var(--fill-0, #4EB412)"/>
<path d="M38.2745 33.1167C39.6349 30.489 40.402 27.5012 40.402 24.3395C40.402 23.3478 40.3257 22.3688 40.1816 21.4152H38.2745V33.1167Z" fill="url(#paint6_linear_0_4)" fill-opacity="0.2"/>
</g>
<path id="Vector_8" d="M33.2608 16.9059H10.5953C10.2138 16.9059 9.90449 17.2152 9.90449 17.5967V18.2197C9.90449 18.6012 10.2138 18.9105 10.5953 18.9105H33.2608C33.6423 18.9105 33.9516 18.6012 33.9516 18.2197V17.5967C33.9516 17.2152 33.6423 16.9059 33.2608 16.9059Z" fill="var(--fill-0, #3D9AF1)"/>
<path id="Vector_9" d="M21.9323 2.23773C9.81973 2.23773 0 12.0575 0 24.17C0 36.2826 9.81973 46.1023 21.9323 46.1023C34.0448 46.1023 43.8646 36.2826 43.8646 24.17C43.8646 12.0575 34.0406 2.23773 21.9323 2.23773ZM21.9323 43.3136C11.3582 43.3136 2.78868 34.7441 2.78868 24.17C2.78868 13.5959 11.3582 5.02641 21.9323 5.02641C32.5064 5.02641 41.0759 13.5959 41.0759 24.17C41.0759 34.7441 32.5064 43.3136 21.9323 43.3136Z" fill="var(--fill-0, #3D9AF1)"/>
<path id="Vector_10" d="M21.9323 2.23773C9.81973 2.23773 0 12.0575 0 24.17C0 36.2826 9.81973 46.1023 21.9323 46.1023C34.0448 46.1023 43.8646 36.2826 43.8646 24.17C43.8646 12.0575 34.0406 2.23773 21.9323 2.23773ZM21.9323 43.3136C11.3582 43.3136 2.78868 34.7441 2.78868 24.17C2.78868 13.5959 11.3582 5.02641 21.9323 5.02641C32.5064 5.02641 41.0759 13.5959 41.0759 24.17C41.0759 34.7441 32.5064 43.3136 21.9323 43.3136Z" fill="var(--fill-0, #3D9AF1)"/>
<path id="Vector_11" d="M22.9664 14.1553V41.292C22.9664 41.8175 22.5383 42.2456 22.0128 42.2456H21.9196C21.394 42.2456 20.966 41.8175 20.966 41.292V21.3644V14.1596C20.966 13.634 21.394 13.206 21.9196 13.206H22.0128C22.5383 13.206 22.9664 13.634 22.9664 14.1596V14.1553Z" fill="var(--fill-0, #3D9AF1)"/>
<g id="Group_2">
<path id="Vector_12" d="M8.59753 20.1098L6.29282 24.4571C6.19525 24.6412 6.26535 24.8695 6.44941 24.9671L6.75271 25.1279C6.93676 25.2254 7.16507 25.1553 7.26264 24.9713L9.56735 20.6239C9.66492 20.4399 9.59482 20.2116 9.41076 20.114L9.10746 19.9532C8.92341 19.8556 8.6951 19.9257 8.59753 20.1098Z" fill="var(--fill-0, #3D9AF1)"/>
<path id="Vector_13" d="M13.9374 20.6233L16.2421 24.9706C16.3397 25.1546 16.568 25.2247 16.752 25.1272L17.0553 24.9664C17.2394 24.8688 17.3095 24.6405 17.2119 24.4564L14.9072 20.1091C14.8096 19.9251 14.5813 19.855 14.3973 19.9525L14.094 20.1133C13.9099 20.2109 13.8398 20.4392 13.9374 20.6233Z" fill="var(--fill-0, #3D9AF1)"/>
<path id="Vector_14" d="M7.55657 28.5141C9.91297 29.8067 13.7273 29.8067 16.0837 28.5141C17.2619 27.8656 17.851 27.018 17.851 26.1746H5.78927C5.78927 27.0223 6.37837 27.8699 7.55657 28.5141Z" fill="var(--fill-0, #3D9AF1)"/>
</g>
<g id="Group_3">
<path id="Vector_15" d="M28.8183 20.1091L26.5136 24.4564C26.416 24.6405 26.4861 24.8688 26.6702 24.9664L26.9735 25.1272C27.1576 25.2247 27.3859 25.1546 27.4834 24.9706L29.7881 20.6233C29.8857 20.4392 29.8156 20.2109 29.6316 20.1133L29.3283 19.9525C29.1442 19.855 28.9159 19.9251 28.8183 20.1091Z" fill="var(--fill-0, #3D9AF1)"/>
<path id="Vector_16" d="M34.161 20.6226L36.4657 24.9699C36.5633 25.154 36.7916 25.2241 36.9756 25.1265L37.2789 24.9657C37.463 24.8681 37.5331 24.6398 37.4355 24.4558L35.1308 20.1084C35.0332 19.9244 34.8049 19.8543 34.6209 19.9519L34.3176 20.1126C34.1335 20.2102 34.0634 20.4385 34.161 20.6226Z" fill="var(--fill-0, #3D9AF1)"/>
<path id="Vector_17" d="M27.7766 28.5141C30.133 29.8067 33.9474 29.8067 36.3037 28.5141C37.4819 27.8656 38.071 27.018 38.071 26.1746H26.0136C26.0136 27.0223 26.6027 27.8699 27.7809 28.5141H27.7766Z" fill="var(--fill-0, #3D9AF1)"/>
</g>
<path id="Vector_18" d="M21.9323 43.7756C28.3972 43.7756 33.638 42.0147 33.638 39.8426C33.638 37.6705 28.3972 35.9096 21.9323 35.9096C15.4674 35.9096 10.2266 37.6705 10.2266 39.8426C10.2266 42.0147 15.4674 43.7756 21.9323 43.7756Z" fill="var(--fill-0, #3D9AF1)"/>
<path id="Vector_19" d="M24.6447 12.3626C24.7294 12.0702 24.7422 11.7354 24.7422 11.3709C24.7422 11.1717 24.7422 10.9598 24.7422 10.7394C24.7506 9.20944 23.5004 7.96767 21.9704 7.96767C20.4405 7.96767 19.1902 9.20944 19.1987 10.7394C19.1987 10.9598 19.1987 11.1717 19.1987 11.3709C19.1987 11.7354 19.2072 12.0702 19.2962 12.3626C19.2962 12.3668 19.2962 12.3753 19.3004 12.3796C19.3004 12.388 19.3046 12.3965 19.3089 12.405C19.5208 13.1127 20.148 13.5069 21.9704 13.5069C23.7971 13.5069 24.4201 13.1085 24.632 12.405C24.632 12.3965 24.6362 12.388 24.6404 12.3796C24.6404 12.3753 24.6404 12.3668 24.6447 12.3626ZM20.0039 10.7352C20.0039 9.6502 20.8812 8.77291 21.9662 8.76867C23.0511 8.76867 23.9284 9.6502 23.9284 10.7352C23.9284 11.8201 23.0511 12.6974 21.9662 12.7016C20.8812 12.7016 20.0039 11.8201 20.0039 10.7352Z" fill="var(--fill-0, #3D9AF1)"/>
<path id="Vector_20" d="M21.9662 22.1145C24.5526 22.1145 26.6493 20.0178 26.6493 17.4314C26.6493 14.845 24.5526 12.7483 21.9662 12.7483C19.3798 12.7483 17.2831 14.845 17.2831 17.4314C17.2831 20.0178 19.3798 22.1145 21.9662 22.1145Z" fill="var(--fill-0, #3D9AF1)"/>
<path id="Vector_21" d="M21.9662 14.6597C20.4362 14.6597 19.1945 15.9014 19.1945 17.4314C19.1945 18.9614 20.4362 20.2031 21.9662 20.2031C23.4961 20.2031 24.7379 18.9614 24.7379 17.4314C24.7379 15.9014 23.4961 14.6597 21.9662 14.6597ZM21.9662 19.3979C20.8812 19.3979 19.9997 18.5164 19.9997 17.4314C19.9997 16.3464 20.8812 15.4649 21.9662 15.4649C23.0511 15.4649 23.9327 16.3464 23.9327 17.4314C23.9327 18.5164 23.0511 19.3979 21.9662 19.3979Z" fill="var(--fill-0, white)"/>
<path id="Vector_22" d="M26.0136 36.6258C23.564 36.5665 24.187 33.9262 21.9323 33.9262C19.6776 33.9262 20.3006 36.5665 17.851 36.6258C16.3634 36.6597 19.6776 39.3255 21.9323 39.3255C24.187 39.3255 27.5054 36.664 26.0136 36.6258Z" fill="var(--fill-0, #3D9AF1)"/>
<g id="Group_4">
<path id="Vector_23" d="M22.852 43.9366C22.852 44.0934 22.7969 44.229 22.6867 44.335C22.5765 44.4409 22.4409 44.496 22.284 44.496C22.0128 44.496 21.8348 44.3689 21.75 44.1188L21.3093 42.8432H18.5418L18.1307 44.1104C18.0502 44.3689 17.8679 44.496 17.5967 44.496C17.4399 44.496 17.3043 44.4409 17.1983 44.335C17.0923 44.229 17.0372 44.0934 17.0372 43.9366C17.0372 43.873 17.0457 43.8137 17.0627 43.7586L18.8978 38.3804C19.0927 37.8083 19.4233 37.5201 19.8895 37.5201C20.3557 37.5201 20.699 37.7998 20.8982 38.3635L22.8223 43.7416C22.8435 43.8052 22.8562 43.8688 22.8562 43.9366H22.852ZM20.9533 41.8387L19.9361 38.8848C19.9234 38.8551 19.9107 38.8424 19.8937 38.8424C19.8768 38.8424 19.8598 38.8551 19.8514 38.8848L18.8766 41.8387H20.9575H20.9533Z" fill="var(--fill-0, white)"/>
<path id="Vector_24" d="M27.2215 43.962C27.2215 44.0977 27.1748 44.2121 27.0774 44.3096C26.9799 44.407 26.8655 44.4537 26.7298 44.4537H24.3819C24.2463 44.4537 24.1319 44.407 24.0344 44.3096C23.9369 44.2121 23.8903 44.0977 23.8903 43.962C23.8903 43.8264 23.9369 43.712 24.0344 43.6145C24.1319 43.517 24.2463 43.4704 24.3819 43.4704H24.971V38.5923H24.4243C24.2887 38.5923 24.1742 38.5457 24.0768 38.4482C23.9793 38.3508 23.9327 38.2363 23.9327 38.1007C23.9327 37.9651 23.9793 37.8507 24.0768 37.7532C24.1742 37.6557 24.2887 37.6091 24.4243 37.6091H26.7002C26.8358 37.6091 26.9502 37.6557 27.0477 37.7532C27.1452 37.8507 27.1918 37.9651 27.1918 38.1007C27.1918 38.2363 27.1452 38.3508 27.0477 38.4482C26.9502 38.5457 26.8358 38.5923 26.7002 38.5923H26.128V43.4704H26.7256C26.8612 43.4704 26.9756 43.517 27.0731 43.6145C27.1706 43.712 27.2172 43.8264 27.2172 43.962H27.2215Z" fill="var(--fill-0, white)"/>
</g>
</g>
<g id="Group_5">
<path id="Vector_25" d="M85.5422 37.3167C84.1225 37.3167 82.7917 37.0539 81.5415 36.5241C80.2912 35.9986 79.2063 35.2866 78.2823 34.3966C77.3584 33.5066 76.6252 32.4725 76.087 31.2943C75.5488 30.1161 75.2775 28.8701 75.2775 27.5563C75.2775 25.9839 75.5233 24.5218 76.0192 23.174C76.515 21.8263 77.2186 20.6608 78.1255 19.6691C79.0367 18.6816 80.1259 17.9103 81.3931 17.3551C82.6603 16.7999 84.0759 16.5244 85.6397 16.5244C87.0341 16.5244 88.3055 16.7448 89.4667 17.1898C90.6238 17.6306 91.6155 18.2366 92.4419 19.0037C93.2683 19.7708 93.9083 20.6778 94.366 21.7161C94.8195 22.7587 95.0484 23.8691 95.0484 25.0558H81.2109C81.2617 26.1619 81.427 27.2172 81.7067 28.2174C81.9865 29.2218 82.3594 30.0991 82.8298 30.862C83.3003 31.6249 83.847 32.2267 84.4785 32.6759C85.11 33.1252 85.8092 33.3498 86.5763 33.3498C87.2417 33.3498 87.8944 33.2353 88.5386 33.0065C89.1828 32.7776 89.7761 32.4682 90.3228 32.0699C90.8696 31.6715 91.3442 31.2095 91.7469 30.684C92.1495 30.1585 92.4419 29.5863 92.6241 28.976L95.7095 29.4634C95.3959 30.5441 94.9 31.557 94.2177 32.5064C93.5353 33.4557 92.7343 34.2906 91.8147 35.0069C90.8992 35.7231 89.899 36.2868 88.8183 36.6937C87.7376 37.1005 86.6442 37.3082 85.538 37.3082L85.5422 37.3167ZM88.0978 22.9876C88.047 22.4027 87.9198 21.8645 87.7164 21.3771C87.513 20.8897 87.2587 20.4701 86.9451 20.1184C86.6314 19.7666 86.267 19.4954 85.8516 19.3089C85.4363 19.1182 84.9871 19.0249 84.5039 19.0249C84.1267 19.0249 83.7538 19.1182 83.3935 19.3089C83.029 19.4996 82.7027 19.7666 82.406 20.1099C82.1136 20.4532 81.8678 20.8727 81.6644 21.3601C81.4609 21.8475 81.3296 22.39 81.266 22.9876H88.0978Z" fill="var(--fill-0, #3D9AF1)"/>
<path id="Vector_26" d="M112.437 23.2207C112.437 22.7121 112.382 22.2628 112.272 21.8645C112.162 21.4661 112.014 21.1355 111.823 20.8685C111.632 20.6015 111.42 20.3981 111.179 20.2625C110.937 20.1268 110.687 20.059 110.428 20.059C110.17 20.059 109.869 20.1099 109.53 20.2158C109.191 20.3218 108.839 20.4659 108.466 20.6566C108.093 20.8473 107.716 21.0762 107.326 21.3474C106.936 21.6187 106.563 21.928 106.216 22.2628V36.8632H100.126V18.6901L104.402 16.4651H106.216V18.4952C107.152 17.8171 108.153 17.3212 109.221 17.0033C110.289 16.6855 111.348 16.5244 112.403 16.5244C113.221 16.5244 114.001 16.6855 114.734 17.0033C115.468 17.3212 116.112 17.7535 116.667 18.3002C117.218 18.8469 117.659 19.4869 117.985 20.2243C118.311 20.9617 118.472 21.7416 118.472 22.5765V36.8632H112.442V23.2207H112.437Z" fill="var(--fill-0, #3D9AF1)"/>
<path id="Vector_27" d="M124.893 8.91701L129.169 6.69199H130.983V18.2663C131.763 17.7577 132.615 17.3424 133.539 17.0161C134.463 16.6897 135.353 16.5287 136.213 16.5287C137.463 16.5287 138.616 16.766 139.667 17.2407C140.723 17.7153 141.634 18.3595 142.401 19.1733C143.168 19.987 143.766 20.9321 144.198 22.0128C144.626 23.0935 144.842 24.2378 144.842 25.4499C144.842 26.5179 144.706 27.5478 144.431 28.5437C144.155 29.5397 143.77 30.4721 143.27 31.3451C142.77 32.2182 142.168 33.0192 141.464 33.7439C140.761 34.4729 139.981 35.0959 139.121 35.6087C138.26 36.1215 137.341 36.5241 136.357 36.8081C135.374 37.092 134.348 37.2361 133.285 37.2361C131.712 37.2361 130.204 37.0242 128.767 36.6004C127.33 36.1766 126.037 35.5027 124.893 34.5788V8.91701ZM130.979 33.2565C131.187 33.4388 131.403 33.6168 131.623 33.7821C131.844 33.9516 132.077 34.0999 132.327 34.2313C132.573 34.3627 132.84 34.4644 133.128 34.5449C133.412 34.6212 133.725 34.6636 134.064 34.6636C134.743 34.6636 135.357 34.4602 135.908 34.0491C136.459 33.638 136.938 33.0743 137.332 32.3496C137.73 31.6291 138.036 30.7772 138.252 29.794C138.468 28.8107 138.574 27.7555 138.574 26.6239C138.574 25.7763 138.464 24.9795 138.243 24.2336C138.023 23.4834 137.718 22.8265 137.336 22.2628C136.951 21.6949 136.501 21.2499 135.98 20.9236C135.459 20.5973 134.908 20.4362 134.319 20.4362C133.73 20.4362 133.174 20.6015 132.564 20.9321C131.954 21.2627 131.424 21.6822 130.983 22.1908V33.2565H130.979Z" fill="var(--fill-0, #3D9AF1)"/>
<path id="Vector_28" d="M149.385 18.6944L153.64 16.4693H155.454V36.8674H149.385V18.6944ZM152.424 14.0324C151.483 12.316 150.258 11.1166 148.779 10.3876C150.458 9.51458 151.754 8.35757 152.424 6.74285C153.14 8.35334 154.357 9.56544 156.069 10.3876C154.607 11.1886 153.416 12.4431 152.424 14.0324Z" fill="var(--fill-0, #3D9AF1)"/>
<path id="Vector_29" d="M173.61 23.2207C173.61 22.7121 173.555 22.2628 173.445 21.8645C173.335 21.4661 173.187 21.1355 172.996 20.8685C172.805 20.6015 172.593 20.3981 172.352 20.2625C172.11 20.1268 171.86 20.059 171.602 20.059C171.343 20.059 171.042 20.1099 170.703 20.2158C170.364 20.3218 170.012 20.4659 169.639 20.6566C169.266 20.8473 168.889 21.0762 168.499 21.3474C168.109 21.6187 167.736 21.928 167.389 22.2628V36.8632H161.299V18.6901L165.575 16.4651H167.389V18.4952C168.325 17.8171 169.326 17.3212 170.394 17.0033C171.462 16.6855 172.521 16.5244 173.576 16.5244C174.394 16.5244 175.174 16.6855 175.907 17.0033C176.641 17.3212 177.285 17.7535 177.84 18.3002C178.391 18.8469 178.832 19.4869 179.158 20.2243C179.484 20.9617 179.645 21.7416 179.645 22.5765V36.8632H173.615V23.2207H173.61Z" fill="var(--fill-0, #3D9AF1)"/>
</g>
<path id="Vector_30" d="M80.7362 2.23773V5.23832H68.6067V37.3124H60.0203V5.23832H47.8611V2.23773H80.7405H80.7362Z" fill="var(--fill-0, #3D9AF1)"/>
<g id="Group_6">
<path id="Vector_31" d="M206.041 0.847624L222.59 36.8674H213.741L209.317 27.2384H195.602L190.97 36.8674H185.087L202.294 0.847624H206.041ZM197.246 23.9581H207.863L202.633 12.5576L197.246 23.9581Z" fill="var(--fill-0, white)" stroke="var(--stroke-0, #3D9AF1)" stroke-width="2"/>
<path id="Vector_32" d="M227.511 1.57658H236.152V36.8674H227.511V1.57658Z" fill="var(--fill-0, white)" stroke="var(--stroke-0, #3D9AF1)" stroke-width="2"/>
</g>
<path id="Vector_33" d="M225.001 43.475L53.9831 45.0303C53.4005 45.0303 53.3704 44.7531 53.9228 44.4054L56.8912 42.54C57.4386 42.197 58.3578 41.915 58.9404 41.915H229.793C230.376 41.915 230.406 42.1923 229.853 42.54L226.885 44.4054C226.337 44.7484 225.584 43.475 225.001 43.475Z" fill="var(--fill-0, #3D9AF1)"/>
<path id="Vector_34" d="M233.322 42.093H231.949V43.4662H233.322V42.093Z" fill="var(--fill-0, #2563EB)"/>
<path id="Vector_35" d="M236.069 42.093H234.696V43.4662H236.069V42.093Z" fill="var(--fill-0, #2563EB)"/>
</g>
<defs>
<linearGradient id="paint0_linear_0_4" x1="21.9323" y1="45.6361" x2="21.9323" y2="3.3905" gradientUnits="userSpaceOnUse">
<stop stop-color="#4900E7"/>
<stop offset="1" stop-color="#1FA9FF" stop-opacity="0.8"/>
</linearGradient>
<linearGradient id="paint1_linear_0_4" x1="8.43386" y1="32.1038" x2="8.43386" y2="39.0924" gradientUnits="userSpaceOnUse">
<stop stop-color="white"/>
<stop offset="1" stop-color="#0A9E3E"/>
</linearGradient>
<linearGradient id="paint2_linear_0_4" x1="14.4223" y1="30.2051" x2="14.4223" y2="43.0508" gradientUnits="userSpaceOnUse">
<stop stop-color="white"/>
<stop offset="1" stop-color="#0A9E3E"/>
</linearGradient>
<linearGradient id="paint3_linear_0_4" x1="21.2627" y1="31.6376" x2="21.2627" y2="41.6141" gradientUnits="userSpaceOnUse">
<stop stop-color="white"/>
<stop offset="1" stop-color="#0A9E3E"/>
</linearGradient>
<linearGradient id="paint4_linear_0_4" x1="28.0987" y1="34.8797" x2="28.0987" y2="42.8983" gradientUnits="userSpaceOnUse">
<stop stop-color="white"/>
<stop offset="1" stop-color="#0A9E3E"/>
</linearGradient>
<linearGradient id="paint5_linear_0_4" x1="34.9348" y1="30.0525" x2="34.9348" y2="39.6095" gradientUnits="userSpaceOnUse">
<stop stop-color="white"/>
<stop offset="1" stop-color="#0A9E3E"/>
</linearGradient>
<linearGradient id="paint6_linear_0_4" x1="39.3382" y1="21.4152" x2="39.3382" y2="33.1167" gradientUnits="userSpaceOnUse">
<stop stop-color="white"/>
<stop offset="1" stop-color="#0A9E3E"/>
</linearGradient>
<clipPath id="clip0_0_4">
<rect width="237" height="46.098" fill="white"/>
</clipPath>
</defs>
</svg>
