<svg preserveAspectRatio="none" width="100%" height="100%" overflow="visible" style="display: block;" viewBox="0 0 124.8 104.752" fill="none" xmlns="http://www.w3.org/2000/svg">
<g id="Group">
<path id="Vector" d="M102.011 8.1657C102.684 8.537 103.423 8.87293 104.055 9.29727C104.971 9.9102 106.188 10.8355 107.009 11.5663C107.647 12.1321 108.953 13.4287 109.508 14.0593C121.603 27.756 117.81 43.8632 108.829 57.831C101.999 68.4512 92.1256 78.0931 82.4534 86.1791C78.6424 89.3617 74.6482 92.721 70.5182 95.4792C68.7633 96.652 63.1739 100.483 61.425 100.241C60.1428 100.064 51.0673 93.5402 49.3716 92.3026C38.8603 84.6055 26.9606 73.7554 19.244 63.2708C7.67517 47.5584 0.732657 26.259 18.2219 11.5663C33.3772 -1.15796 52.054 4.95369 62.5594 19.9588C65.6555 14.961 69.9273 10.6823 75.18 7.93585C84.0428 3.30349 93.2482 3.33296 102.011 8.15981V8.1657Z" stroke="var(--stroke-0, white)" stroke-width="9" stroke-miterlimit="10"/>
<path id="Vector_2" d="M0 47.9887H22.216C22.4701 47.9887 22.7064 47.8413 22.8778 47.5879L27.5042 36.9618C27.9177 36.337 28.6622 36.4608 28.9458 37.2034L35.3625 53.7231C35.6993 54.5954 36.621 54.5777 36.9401 53.6937L45.0288 31.5043C45.3774 30.5554 46.3878 30.6321 46.6537 31.6222L53.0467 55.2201C53.3303 56.2692 54.4234 56.2751 54.7129 55.2201L58.8607 40.0441C59.1384 39.0245 60.1901 38.9892 60.5032 39.9852L70.3586 70.9442C70.6895 71.9874 71.8062 71.8813 72.0248 70.7851L81.3662 24.7503C81.5966 23.6128 82.7606 23.5539 83.056 24.6619L95.3871 71.3037C95.6589 72.3233 96.6988 72.3822 97.0297 71.398L104.687 48.6841C104.829 48.2539 105.148 47.9828 105.491 47.9828H124.8" stroke="var(--stroke-0, white)" stroke-width="9" stroke-miterlimit="10"/>
</g>
</svg>
