<svg preserveAspectRatio="none" width="100%" height="100%" overflow="visible" style="display: block;" viewBox="0 0 216.002 187.996" fill="none" xmlns="http://www.w3.org/2000/svg">
<g id="Group 143" opacity="0.4">
<path id="Vector" d="M216.002 75.9067H197.68V82.3983H216.002V75.9067Z" fill="var(--fill-0, #D7C913)"/>
<path id="Vector_2" d="M166.827 170.615H148.504V177.106H166.827V170.615Z" fill="var(--fill-0, #D7C913)"/>
<path id="Vector_3" d="M148.506 181.504H130.184V187.996H148.506V181.504Z" fill="var(--fill-0, #D7C913)"/>
<path id="Vector_4" d="M174.291 159.725H165.91V166.217H174.291V159.725Z" fill="var(--fill-0, #D7C913)"/>
<path id="Vector_5" d="M208.368 85.8469H197.68V92.3385H208.368V85.8469Z" fill="var(--fill-0, #D7C913)"/>
<path id="Vector_6" d="M209.851 95.7913H197.68V102.283H209.851V95.7913Z" fill="var(--fill-0, #D7C913)"/>
<path id="Vector_7" d="M203.179 105.731H197.68V112.223H203.179V105.731Z" fill="var(--fill-0, #D7C913)"/>
<path id="Vector_8" d="M207.703 117.94H198.34V124.431H207.703V117.94Z" fill="var(--fill-0, #D7C913)"/>
<path id="Vector_9" d="M189.828 150.101H180.465V156.593H189.828V150.101Z" fill="var(--fill-0, #D7C913)"/>
<path id="Vector_10" d="M199.601 132.891H190.238V139.382H199.601V132.891Z" fill="var(--fill-0, #D7C913)"/>
<path id="Vector_11" d="M179.264 22.7407H160.941V29.2323H179.264V22.7407Z" fill="var(--fill-0, #D7C913)"/>
<path id="Vector_12" d="M71.1938 8.66626H52.8711V15.1578H71.1938V8.66626Z" fill="var(--fill-0, #D7C913)"/>
<path id="Vector_13" d="M40.1196 40.2112H21.7969V46.7028H40.1196V40.2112Z" fill="var(--fill-0, #D7C913)"/>
<path id="Vector_14" d="M49.4086 24.7573H31.0859V31.2489H49.4086V24.7573Z" fill="var(--fill-0, #D7C913)"/>
<path id="Vector_15" d="M27.4829 105.731H9.16016V112.223H27.4829V105.731Z" fill="var(--fill-0, #D7C913)"/>
<path id="Vector_16" d="M32.2407 133.787H13.918V140.279H32.2407V133.787Z" fill="var(--fill-0, #D7C913)"/>
<path id="Vector_17" d="M44.1547 152.71H25.832V159.202H44.1547V152.71Z" fill="var(--fill-0, #D7C913)"/>
<path id="Vector_18" d="M18.3227 85.8469H0V92.3385H18.3227V85.8469Z" fill="var(--fill-0, #D7C913)"/>
<path id="Vector_19" d="M27.4829 55.0811H9.16016V61.5726H27.4829V55.0811Z" fill="var(--fill-0, #D7C913)"/>
<path id="Vector_20" d="M69.1196 174.4H50.7969V180.892H69.1196V174.4Z" fill="var(--fill-0, #D7C913)"/>
<path id="Vector_21" d="M122.331 0H104.008V6.49157H122.331V0Z" fill="var(--fill-0, #D7C913)"/>
<path id="Vector_22" d="M160.944 9.51831H142.621V16.0099H160.944V9.51831Z" fill="var(--fill-0, #D7C913)"/>
<path id="Vector_23" d="M65.1477 38.0569H58.5156V44.4754H65.1477V38.0569Z" fill="var(--fill-0, #D7C913)"/>
<path id="Vector_24" d="M49.5395 54.4238H41.4727V62.2299H49.5395V54.4238Z" fill="var(--fill-0, #D7C913)"/>
<path id="Vector_25" d="M44.2817 38.0569H36.2148V45.863H44.2817V38.0569Z" fill="var(--fill-0, #D7C913)"/>
<path id="Vector_26" d="M53.5708 43.5503H45.5039V51.3564H53.5708V43.5503Z" fill="var(--fill-0, #D7C913)"/>
<path id="Vector_27" d="M34.9888 74.5232H26.9219V82.3293H34.9888V74.5232Z" fill="var(--fill-0, #D7C913)"/>
<path id="Vector_28" d="M72.6499 154.382H65.5898V161.214H72.6499V154.382Z" fill="var(--fill-0, #D7C913)"/>
<path id="Vector_29" d="M85.8503 152.783H79.9805V158.463H85.8503V152.783Z" fill="var(--fill-0, #D7C913)"/>
<path id="Vector_30" d="M45.1399 87.7375H38.5078V94.1561H45.1399V87.7375Z" fill="var(--fill-0, #D7C913)"/>
<path id="Vector_31" d="M48.313 117.558H40.2461V125.364H48.313V117.558Z" fill="var(--fill-0, #D7C913)"/>
<path id="Vector_32" d="M113.172 8.28882H105.105V16.0949H113.172V8.28882Z" fill="var(--fill-0, #D7C913)"/>
<path id="Vector_33" d="M94.6841 30.7092H86.6172V38.5153H94.6841V30.7092Z" fill="var(--fill-0, #D7C913)"/>
<path id="Vector_34" d="M89.4302 14.3423H81.3633V22.1484H89.4302V14.3423Z" fill="var(--fill-0, #D7C913)"/>
<path id="Vector_35" d="M98.7192 19.8357H90.6523V27.6418H98.7192V19.8357Z" fill="var(--fill-0, #D7C913)"/>
<path id="Vector_36" d="M80.1372 50.8088H72.0703V58.615H80.1372V50.8088Z" fill="var(--fill-0, #D7C913)"/>
<path id="Vector_37" d="M128.475 158.313H122.605V163.993H128.475V158.313Z" fill="var(--fill-0, #D7C913)"/>
<path id="Vector_38" d="M124.118 127.097H116.051V134.903H124.118V127.097Z" fill="var(--fill-0, #D7C913)"/>
<path id="Vector_39" d="M174.137 62.2705H166.07V70.0766H174.137V62.2705Z" fill="var(--fill-0, #D7C913)"/>
<path id="Vector_40" d="M182.778 92.4075H174.711V100.214H182.778V92.4075Z" fill="var(--fill-0, #D7C913)"/>
<path id="Vector_41" d="M166.759 75.6958H161.117V81.1568H166.759V75.6958Z" fill="var(--fill-0, #D7C913)"/>
<path id="Vector_42" d="M147.977 15.8435H139.91V23.6496H147.977V15.8435Z" fill="var(--fill-0, #D7C913)"/>
<path id="Vector_43" d="M129.485 38.2678H121.418V46.0739H129.485V38.2678Z" fill="var(--fill-0, #D7C913)"/>
<path id="Vector_44" d="M126.074 23.9985H119.52V30.34H126.074V23.9985Z" fill="var(--fill-0, #D7C913)"/>
<path id="Vector_45" d="M133.52 27.3904H125.453V35.1965H133.52V27.3904Z" fill="var(--fill-0, #D7C913)"/>
<path id="Vector_46" d="M148.637 35.8579H142.082V42.1994H148.637V35.8579Z" fill="var(--fill-0, #D7C913)"/>
<path id="Vector_47" d="M142.77 132.566H134.703V140.372H142.77V132.566Z" fill="var(--fill-0, #D7C913)"/>
<path id="Vector_48" d="M158.926 134.656H150.859V142.462H158.926V134.656Z" fill="var(--fill-0, #D7C913)"/>
<path id="Vector_49" d="M161.7 47.4534H153.633V55.2595H161.7V47.4534Z" fill="var(--fill-0, #D7C913)"/>
<path id="Vector_50" d="M61.5864 83.6235H53.5195V91.4297H61.5864V83.6235Z" fill="var(--fill-0, #D7C913)"/>
<path id="Vector_51" d="M128.25 143.837H120.184V151.643H128.25V143.837Z" fill="var(--fill-0, #D7C913)"/>
<path id="Vector_52" d="M109.762 166.261H101.695V174.067H109.762V166.261Z" fill="var(--fill-0, #D7C913)"/>
<path id="Vector_53" d="M104.428 152.118H98.5586V157.798H104.428V152.118Z" fill="var(--fill-0, #D7C913)"/>
<path id="Vector_54" d="M113.793 155.388H105.727V163.194H113.793V155.388Z" fill="var(--fill-0, #D7C913)"/>
<path id="Vector_55" d="M20.5356 123.194H12.4688V131H20.5356V123.194Z" fill="var(--fill-0, #D7C913)"/>
<path id="Vector_56" d="M187.059 34.304H176.371V40.7955H187.059V34.304Z" fill="var(--fill-0, #D7C913)"/>
<path id="Vector_57" d="M191.234 43.8506H179.062V50.3422H191.234V43.8506Z" fill="var(--fill-0, #D7C913)"/>
<path id="Vector_58" d="M201.522 50.1555H196.023V56.6471H201.522V50.1555Z" fill="var(--fill-0, #D7C913)"/>
<path id="Vector_59" d="M9.60822 59.7834H4.10938V66.275H9.60822V59.7834Z" fill="var(--fill-0, #D7C913)"/>
<path id="Vector_60" d="M23.077 11.1777H17.5781V17.6693H23.077V11.1777Z" fill="var(--fill-0, #D7C913)"/>
<path id="Vector_61" d="M204.281 63.0291H194.918V69.5206H204.281V63.0291Z" fill="var(--fill-0, #D7C913)"/>
</g>
</svg>
