<svg preserveAspectRatio="none" width="100%" height="100%" overflow="visible" style="display: block;" viewBox="0 0 280.55 99.81" fill="none" xmlns="http://www.w3.org/2000/svg">
<g id="_&#227;&#131;&#172;&#227;&#130;&#164;&#227;&#131;&#164;&#227;&#131;&#188;_1" clip-path="url(#clip0_0_65)">
<path id="Vector" d="M140.37 40.16C180.85 40.16 213.67 31.38 213.67 20.55C213.67 9.72 180.85 0.94 140.37 0.94C99.89 0.94 67.07 9.72 67.07 20.55C67.07 31.38 99.89 40.16 140.37 40.16ZM140.37 13.08C168.31 13.08 190.97 18.34 190.97 24.83C190.97 31.32 168.32 36.58 140.37 36.58C112.42 36.58 89.77 31.32 89.77 24.83C89.77 18.34 112.42 13.08 140.37 13.08Z" fill="var(--fill-0, #2563EB)"/>
<path id="Vector_2" d="M140.37 66.49C151.929 66.49 161.3 57.1193 161.3 45.56C161.3 34.0007 151.929 24.63 140.37 24.63C128.811 24.63 119.44 34.0007 119.44 45.56C119.44 57.1193 128.811 66.49 140.37 66.49Z" fill="var(--fill-0, #2563EB)"/>
<path id="Vector_3" d="M166.38 89.04C166.38 103.4 114.36 103.4 114.36 89.04C114.36 74.68 126 63.03 140.37 63.03C154.74 63.03 166.38 74.67 166.38 89.04Z" fill="var(--fill-0, #2563EB)"/>
<path id="Vector_4" d="M276.98 21.26L280.52 2.52C280.73 1.4 279.52 0.55 278.54 1.13L178.82 60.63V60.7L171.35 64.86C170.88 65.12 170.61 65.64 170.68 66.18C171.03 69.02 171.01 73.36 167.95 80.43C165.14 86.91 156.59 89.46 153.71 90.14C153.14 90.28 152.73 90.77 152.7 91.36L152.44 96.25C152.41 96.78 152.69 97.28 153.16 97.51C154.43 98.13 157.85 98.38 167.06 94.93C170.27 93.73 172.76 91.63 174.71 89.05C174.93 88.76 175.24 88.57 175.6 88.53L224.81 82.2C225.3 82.14 225.71 81.81 225.89 81.35L229.41 71.89C229.78 70.89 228.88 69.88 227.85 70.14L178.83 82.23C178.62 82.28 178.43 82.08 178.51 81.87C178.97 80.6 179.36 79.3 179.69 77.99C179.81 77.52 180.17 77.15 180.64 77.03L242.02 61.21C246.2 60.13 249.58 57.05 251.05 52.99L254.74 42.74C255.13 41.66 254.05 40.62 252.98 41.06L180.99 70.86C181.1 69.93 181.19 69.03 181.26 68.17C181.3 67.68 181.6 67.25 182.05 67.06L271.33 28.36C274.28 27.08 276.4 24.43 276.99 21.28L276.98 21.26Z" fill="var(--fill-0, #2563EB)"/>
<path id="Vector_5" d="M3.57 20.32L0.02 1.58C-0.19 0.45 1.03 -0.4 2.01 0.19L101.73 59.69V59.76L109.2 63.92C109.67 64.18 109.94 64.7 109.87 65.24C109.52 68.08 109.54 72.42 112.6 79.49C115.41 85.97 123.96 88.52 126.84 89.2C127.41 89.34 127.82 89.83 127.85 90.42L128.11 95.31C128.14 95.84 127.86 96.34 127.39 96.57C126.12 97.19 122.7 97.44 113.49 93.99C110.28 92.79 107.79 90.69 105.84 88.11C105.62 87.82 105.31 87.63 104.95 87.59L55.74 81.26C55.25 81.2 54.84 80.87 54.66 80.41L51.14 70.95C50.77 69.95 51.67 68.94 52.7 69.2L101.72 81.29C101.93 81.34 102.12 81.14 102.04 80.93C101.58 79.66 101.19 78.36 100.86 77.05C100.74 76.58 100.38 76.21 99.91 76.09L38.53 60.27C34.35 59.19 30.97 56.11 29.5 52.05L25.81 41.8C25.42 40.72 26.5 39.68 27.57 40.12L99.56 69.92C99.45 68.99 99.36 68.09 99.29 67.23C99.25 66.74 98.95 66.31 98.5 66.12L9.23 27.4C6.28 26.12 4.16 23.47 3.57 20.32Z" fill="var(--fill-0, #2563EB)"/>
</g>
<defs>
<clipPath id="clip0_0_65">
<rect width="280.55" height="99.81" fill="white"/>
</clipPath>
</defs>
</svg>
