<svg preserveAspectRatio="none" width="100%" height="100%" overflow="visible" style="display: block;" viewBox="0 0 836.836 162.77" fill="none" xmlns="http://www.w3.org/2000/svg">
<g id="_&#227;&#131;&#172;&#227;&#130;&#164;&#227;&#131;&#164;&#227;&#131;&#188;_1" clip-path="url(#clip0_0_4)">
<g id="Vector">
<path d="M77.4418 161.139C118.633 161.139 152.025 127.747 152.025 86.5553C152.025 45.3639 118.633 11.9717 77.4418 11.9717C36.2505 11.9717 2.85824 45.3639 2.85824 86.5553C2.85824 127.747 36.2505 161.139 77.4418 161.139Z" fill="var(--fill-0, white)"/>
<path d="M77.4418 161.139C118.633 161.139 152.025 127.747 152.025 86.5553C152.025 45.3639 118.633 11.9717 77.4418 11.9717C36.2505 11.9717 2.85824 45.3639 2.85824 86.5553C2.85824 127.747 36.2505 161.139 77.4418 161.139Z" fill="url(#paint0_linear_0_4)" fill-opacity="0.2"/>
</g>
<g id="Group">
<g id="Vector_2">
<path d="M22.2673 113.357V122.276C26.3976 128.307 31.4706 133.619 37.2918 138.034V113.357H22.2673Z" fill="var(--fill-0, #4EB412)"/>
<path d="M22.2673 113.357V122.276C26.3976 128.307 31.4706 133.619 37.2918 138.034V113.357H22.2673Z" fill="url(#paint1_linear_0_4)" fill-opacity="0.2"/>
</g>
<g id="Vector_3">
<path d="M43.4123 106.653V146.219C48.1112 148.718 53.1543 150.679 58.4368 152.01V106.653H43.4123Z" fill="var(--fill-0, #4EB412)"/>
<path d="M43.4123 106.653V146.219C48.1112 148.718 53.1543 150.679 58.4368 152.01V106.653H43.4123Z" fill="url(#paint2_linear_0_4)" fill-opacity="0.2"/>
</g>
<g id="Vector_4">
<path d="M67.5652 111.711V146.518C70.0344 146.788 72.5334 146.937 75.0774 146.937C77.6214 146.937 80.1205 146.788 82.5897 146.518V111.711H67.5652Z" fill="var(--fill-0, #4EB412)"/>
<path d="M67.5652 111.711V146.518C70.0344 146.788 72.5334 146.937 75.0774 146.937C77.6214 146.937 80.1205 146.788 82.5897 146.518V111.711H67.5652Z" fill="url(#paint3_linear_0_4)" fill-opacity="0.2"/>
</g>
<g id="Vector_5">
<path d="M91.7031 123.159V151.472C96.9856 150.14 102.029 148.18 106.728 145.68V123.174H91.7031V123.159Z" fill="var(--fill-0, #4EB412)"/>
<path d="M91.7031 123.159V151.472C96.9856 150.14 102.029 148.18 106.728 145.68V123.174H91.7031V123.159Z" fill="url(#paint4_linear_0_4)" fill-opacity="0.2"/>
</g>
<g id="Vector_6">
<path d="M115.841 106.114V139.859C121.662 135.46 126.735 130.132 130.865 124.101V106.114H115.841Z" fill="var(--fill-0, #4EB412)"/>
<path d="M115.841 106.114V139.859C121.662 135.46 126.735 130.132 130.865 124.101V106.114H115.841Z" fill="url(#paint5_linear_0_4)" fill-opacity="0.2"/>
</g>
<g id="Vector_7">
<path d="M135.145 116.933C139.949 107.655 142.658 97.1053 142.658 85.9417C142.658 82.44 142.388 78.9832 141.879 75.6161H135.145V116.933Z" fill="var(--fill-0, #4EB412)"/>
<path d="M135.145 116.933C139.949 107.655 142.658 97.1053 142.658 85.9417C142.658 82.44 142.388 78.9832 141.879 75.6161H135.145V116.933Z" fill="url(#paint6_linear_0_4)" fill-opacity="0.2"/>
</g>
<path id="Vector_8" d="M117.442 59.6938H37.4115C36.0644 59.6938 34.9723 60.7859 34.9723 62.133V64.3328C34.9723 65.68 36.0644 66.7721 37.4115 66.7721H117.442C118.789 66.7721 119.881 65.68 119.881 64.3328V62.133C119.881 60.7859 118.789 59.6938 117.442 59.6938Z" fill="var(--fill-0, #3D9AF1)"/>
<path id="Vector_9" d="M77.4418 7.90131C34.673 7.90131 0 42.5743 0 85.3431C0 128.112 34.673 162.785 77.4418 162.785C120.211 162.785 154.884 128.112 154.884 85.3431C154.884 42.5743 120.196 7.90131 77.4418 7.90131ZM77.4418 152.938C40.1051 152.938 9.84671 122.68 9.84671 85.3431C9.84671 48.0064 40.1051 17.748 77.4418 17.748C114.779 17.748 145.037 48.0064 145.037 85.3431C145.037 122.68 114.779 152.938 77.4418 152.938Z" fill="var(--fill-0, #3D9AF1)"/>
<path id="Vector_10" d="M77.4418 7.90131C34.673 7.90131 0 42.5743 0 85.3431C0 128.112 34.673 162.785 77.4418 162.785C120.211 162.785 154.884 128.112 154.884 85.3431C154.884 42.5743 120.196 7.90131 77.4418 7.90131ZM77.4418 152.938C40.1051 152.938 9.84671 122.68 9.84671 85.3431C9.84671 48.0064 40.1051 17.748 77.4418 17.748C114.779 17.748 145.037 48.0064 145.037 85.3431C145.037 122.68 114.779 152.938 77.4418 152.938Z" fill="var(--fill-0, #3D9AF1)"/>
<path id="Vector_11" d="M81.0932 49.9818V145.8C81.0932 147.656 79.5818 149.167 77.7262 149.167H77.3969C75.5413 149.167 74.0299 147.656 74.0299 145.8V75.4366V49.9967C74.0299 48.1411 75.5413 46.6297 77.3969 46.6297H77.7262C79.5818 46.6297 81.0932 48.1411 81.0932 49.9967V49.9818Z" fill="var(--fill-0, #3D9AF1)"/>
<g id="Group_2">
<path id="Vector_12" d="M30.3575 71.0067L22.2197 86.3569C21.8751 87.0068 22.1227 87.813 22.7725 88.1575L23.8435 88.7252C24.4934 89.0698 25.2995 88.8222 25.644 88.1724L33.7818 72.8222C34.1264 72.1723 33.8788 71.3661 33.229 71.0216L32.158 70.4539C31.5081 70.1093 30.702 70.3569 30.3575 71.0067Z" fill="var(--fill-0, #3D9AF1)"/>
<path id="Vector_13" d="M49.2123 72.8197L57.3501 88.1699C57.6946 88.8198 58.5007 89.0674 59.1506 88.7228L60.2216 88.1551C60.8714 87.8105 61.119 87.0044 60.7745 86.3545L52.6366 71.0043C52.2921 70.3544 51.486 70.1069 50.8361 70.4514L49.7652 71.0192C49.1153 71.3637 48.8677 72.1698 49.2123 72.8197Z" fill="var(--fill-0, #3D9AF1)"/>
<path id="Vector_14" d="M26.6819 100.682C35.0022 105.246 48.4704 105.246 56.7907 100.682C60.9508 98.3923 63.0309 95.3993 63.0309 92.4214H20.4417C20.4417 95.4143 22.5217 98.4072 26.6819 100.682Z" fill="var(--fill-0, #3D9AF1)"/>
</g>
<g id="Group_3">
<path id="Vector_15" d="M101.756 71.0044L93.6183 86.3546C93.2738 87.0044 93.5213 87.8106 94.1712 88.1551L95.2421 88.7229C95.892 89.0674 96.6982 88.8199 97.0427 88.17L105.18 72.8198C105.525 72.1699 105.277 71.3637 104.628 71.0192L103.557 70.4515C102.907 70.1069 102.101 70.3545 101.756 71.0044Z" fill="var(--fill-0, #3D9AF1)"/>
<path id="Vector_16" d="M120.621 72.8174L128.759 88.1675C129.103 88.8174 129.909 89.065 130.559 88.7204L131.63 88.1527C132.28 87.8082 132.528 87.002 132.183 86.3521L124.045 71.0019C123.701 70.3521 122.895 70.1045 122.245 70.449L121.174 71.0168C120.524 71.3613 120.276 72.1675 120.621 72.8174Z" fill="var(--fill-0, #3D9AF1)"/>
<path id="Vector_17" d="M98.078 100.682C106.398 105.246 119.866 105.246 128.187 100.682C132.347 98.3923 134.427 95.3994 134.427 92.4214H91.8527C91.8527 95.4143 93.9328 98.4072 98.093 100.682H98.078Z" fill="var(--fill-0, #3D9AF1)"/>
</g>
<path id="Vector_18" d="M77.4418 154.569C100.269 154.569 118.774 148.352 118.774 140.682C118.774 133.013 100.269 126.795 77.4418 126.795C54.6147 126.795 36.1096 133.013 36.1096 140.682C36.1096 148.352 54.6147 154.569 77.4418 154.569Z" fill="var(--fill-0, #3D9AF1)"/>
<path id="Vector_19" d="M87.0192 43.6517C87.3185 42.6192 87.3634 41.437 87.3634 40.15C87.3634 39.4467 87.3634 38.6985 87.3634 37.9203C87.3933 32.5181 82.9787 28.1335 77.5765 28.1335C72.1743 28.1335 67.7597 32.5181 67.7897 37.9203C67.7897 38.6985 67.7897 39.4467 67.7897 40.15C67.7897 41.437 67.8196 42.6192 68.1338 43.6517C68.1338 43.6667 68.1338 43.6966 68.1488 43.7116C68.1488 43.7415 68.1638 43.7715 68.1787 43.8014C68.927 46.3005 71.1417 47.6922 77.5765 47.6922C84.0263 47.6922 86.226 46.2855 86.9743 43.8014C86.9743 43.7715 86.9892 43.7415 87.0042 43.7116C87.0042 43.6966 87.0042 43.6667 87.0192 43.6517ZM70.6329 37.9053C70.6329 34.0744 73.7306 30.9767 77.5615 30.9618C81.3925 30.9618 84.4902 34.0744 84.4902 37.9053C84.4902 41.7363 81.3925 44.834 77.5615 44.8489C73.7306 44.8489 70.6329 41.7363 70.6329 37.9053Z" fill="var(--fill-0, #3D9AF1)"/>
<path id="Vector_20" d="M77.5616 78.0853C86.6941 78.0853 94.0974 70.6819 94.0974 61.5494C94.0974 52.4169 86.6941 45.0135 77.5616 45.0135C68.429 45.0135 61.0257 52.4169 61.0257 61.5494C61.0257 70.6819 68.429 78.0853 77.5616 78.0853Z" fill="var(--fill-0, #3D9AF1)"/>
<path id="Vector_21" d="M77.5615 51.7626C72.1593 51.7626 67.7747 56.1472 67.7747 61.5494C67.7747 66.9516 72.1593 71.3363 77.5615 71.3363C82.9638 71.3363 87.3484 66.9516 87.3484 61.5494C87.3484 56.1472 82.9638 51.7626 77.5615 51.7626ZM77.5615 68.493C73.7306 68.493 70.618 65.3804 70.618 61.5494C70.618 57.7185 73.7306 54.6058 77.5615 54.6058C81.3925 54.6058 84.5051 57.7185 84.5051 61.5494C84.5051 65.3804 81.3925 68.493 77.5615 68.493Z" fill="var(--fill-0, white)"/>
<path id="Vector_22" d="M91.8527 129.324C83.2032 129.115 85.403 119.792 77.4418 119.792C69.4807 119.792 71.6805 129.115 63.0309 129.324C57.7783 129.444 69.4807 138.857 77.4418 138.857C85.403 138.857 97.1203 129.459 91.8527 129.324Z" fill="var(--fill-0, #3D9AF1)"/>
<g id="Group_4">
<path id="Vector_23" d="M80.6891 155.138C80.6891 155.692 80.4946 156.171 80.1055 156.545C79.7164 156.919 79.2376 157.113 78.6839 157.113C77.7262 157.113 77.0976 156.664 76.7984 155.782L75.242 151.277H65.4701L64.0186 155.752C63.7342 156.664 63.0908 157.113 62.133 157.113C61.5793 157.113 61.1005 156.919 60.7264 156.545C60.3523 156.171 60.1577 155.692 60.1577 155.138C60.1577 154.914 60.1876 154.704 60.2475 154.51L66.7272 135.519C67.4155 133.499 68.5828 132.482 70.2289 132.482C71.875 132.482 73.0871 133.469 73.7905 135.46L80.5844 154.45C80.6592 154.674 80.7041 154.899 80.7041 155.138H80.6891ZM73.985 147.731L70.3935 137.3C70.3486 137.195 70.3037 137.151 70.2439 137.151C70.184 137.151 70.1241 137.195 70.0942 137.3L66.6524 147.731H74H73.985Z" fill="var(--fill-0, white)"/>
<path id="Vector_24" d="M96.1177 155.228C96.1177 155.707 95.953 156.111 95.6089 156.455C95.2647 156.799 94.8606 156.964 94.3818 156.964H86.0914C85.6125 156.964 85.2085 156.799 84.8643 156.455C84.5201 156.111 84.3555 155.707 84.3555 155.228C84.3555 154.749 84.5201 154.345 84.8643 154.001C85.2085 153.657 85.6125 153.492 86.0914 153.492H88.1714V136.268H86.241C85.7622 136.268 85.3581 136.103 85.0139 135.759C84.6697 135.415 84.5051 135.011 84.5051 134.532C84.5051 134.053 84.6697 133.649 85.0139 133.305C85.3581 132.96 85.7622 132.796 86.241 132.796H94.277C94.7559 132.796 95.1599 132.96 95.5041 133.305C95.8483 133.649 96.0129 134.053 96.0129 134.532C96.0129 135.011 95.8483 135.415 95.5041 135.759C95.1599 136.103 94.7559 136.268 94.277 136.268H92.2568V153.492H94.3668C94.8457 153.492 95.2497 153.657 95.5939 154.001C95.9381 154.345 96.1027 154.749 96.1027 155.228H96.1177Z" fill="var(--fill-0, white)"/>
</g>
</g>
<g id="Group_5">
<path id="Vector_25" d="M302.046 131.763C297.032 131.763 292.334 130.836 287.919 128.965C283.504 127.109 279.674 124.595 276.411 121.453C273.149 118.31 270.56 114.659 268.66 110.499C266.759 106.338 265.801 101.939 265.801 97.2999C265.801 91.748 266.669 86.5852 268.42 81.8265C270.171 77.0677 272.655 72.9524 275.858 69.4507C279.075 65.964 282.921 63.2404 287.395 61.2801C291.87 59.3197 296.868 58.347 302.39 58.347C307.313 58.347 311.803 59.1252 315.903 60.6964C319.988 62.2528 323.49 64.3927 326.408 67.1013C329.326 69.8099 331.586 73.0123 333.202 76.6786C334.803 80.3599 335.611 84.2806 335.611 88.4707H286.752C286.931 92.3765 287.515 96.1027 288.503 99.6343C289.49 103.181 290.807 106.279 292.468 108.972C294.129 111.666 296.06 113.791 298.289 115.377C300.519 116.963 302.988 117.756 305.697 117.756C308.046 117.756 310.351 117.352 312.626 116.544C314.9 115.736 316.995 114.644 318.926 113.237C320.856 111.83 322.532 110.199 323.954 108.344C325.375 106.488 326.408 104.468 327.051 102.313L337.946 104.034C336.838 107.85 335.087 111.426 332.678 114.779C330.269 118.131 327.441 121.079 324.193 123.608C320.961 126.137 317.429 128.127 313.613 129.564C309.797 131 305.936 131.733 302.031 131.733L302.046 131.763ZM311.069 81.168C310.89 79.1029 310.441 77.2024 309.722 75.4815C309.004 73.7605 308.106 72.279 306.999 71.037C305.891 69.7949 304.605 68.8372 303.138 68.1787C301.671 67.5053 300.085 67.1761 298.379 67.1761C297.047 67.1761 295.731 67.5053 294.459 68.1787C293.172 68.8521 292.019 69.7949 290.972 71.007C289.939 72.2192 289.071 73.7007 288.353 75.4216C287.635 77.1425 287.171 79.058 286.946 81.168H311.069Z" fill="var(--fill-0, #3D9AF1)"/>
<path id="Vector_26" d="M397.011 81.9911C397.011 80.1953 396.816 78.6091 396.427 77.2024C396.038 75.7957 395.515 74.6285 394.841 73.6857C394.168 72.7429 393.419 72.0246 392.566 71.5458C391.713 71.0669 390.831 70.8275 389.918 70.8275C389.005 70.8275 387.942 71.007 386.745 71.3812C385.548 71.7553 384.306 72.2641 382.989 72.9375C381.672 73.6109 380.34 74.419 378.964 75.3767C377.587 76.3344 376.27 77.4269 375.043 78.6091V130.162H353.539V65.9939L368.638 58.1375H375.043V65.3055C378.35 62.9112 381.882 61.1603 385.653 60.038C389.424 58.9156 393.165 58.347 396.891 58.347C399.779 58.347 402.533 58.9156 405.122 60.038C407.711 61.1603 409.985 62.6867 411.946 64.6172C413.891 66.5476 415.447 68.8072 416.6 71.4111C417.752 74.0149 418.321 76.7684 418.321 79.7164V130.162H397.026V81.9911H397.011Z" fill="var(--fill-0, #3D9AF1)"/>
<path id="Vector_27" d="M440.992 31.4855L456.091 23.6291H462.496V64.4974C465.25 62.7017 468.257 61.2352 471.52 60.0829C474.782 58.9306 477.925 58.362 480.962 58.362C485.377 58.362 489.447 59.2 493.159 60.876C496.885 62.552 500.102 64.8267 502.811 67.6999C505.519 70.5731 507.629 73.9102 509.156 77.7261C510.667 81.5421 511.43 85.5826 511.43 89.8624C511.43 93.6335 510.951 97.2699 509.979 100.787C509.006 104.303 507.644 107.596 505.878 110.678C504.113 113.761 501.988 116.589 499.504 119.148C497.019 121.722 494.266 123.922 491.228 125.733C488.19 127.543 484.943 128.965 481.471 129.968C477.999 130.97 474.378 131.479 470.622 131.479C465.07 131.479 459.743 130.731 454.67 129.234C449.597 127.738 445.032 125.358 440.992 122.096V31.4855ZM462.481 117.427C463.214 118.071 463.978 118.699 464.756 119.283C465.534 119.881 466.357 120.405 467.24 120.869C468.108 121.333 469.051 121.692 470.068 121.976C471.071 122.246 472.178 122.395 473.375 122.395C475.77 122.395 477.94 121.677 479.885 120.226C481.83 118.774 483.521 116.784 484.913 114.225C486.32 111.681 487.397 108.673 488.16 105.201C488.924 101.729 489.298 98.0032 489.298 94.0076C489.298 91.0147 488.909 88.2014 488.13 85.5676C487.352 82.9189 486.275 80.5994 484.928 78.6091C483.566 76.6038 481.98 75.0325 480.139 73.8802C478.299 72.728 476.353 72.1593 474.273 72.1593C472.193 72.1593 470.233 72.7429 468.078 73.9102C465.923 75.0774 464.052 76.5589 462.496 78.3547V117.427H462.481Z" fill="var(--fill-0, #3D9AF1)"/>
<path id="Vector_28" d="M527.472 66.0089L542.497 58.1525H548.902V130.177H527.472V66.0089ZM538.202 49.5478C534.88 43.4871 530.555 39.2522 525.332 36.6782C531.258 33.5955 535.838 29.5102 538.202 23.8087C540.731 29.4952 545.026 33.7751 551.072 36.6782C545.909 39.5066 541.704 43.9361 538.202 49.5478Z" fill="var(--fill-0, #3D9AF1)"/>
<path id="Vector_29" d="M613.01 81.9911C613.01 80.1953 612.815 78.6091 612.426 77.2024C612.037 75.7957 611.514 74.6285 610.84 73.6857C610.167 72.7429 609.419 72.0246 608.566 71.5458C607.713 71.0669 606.83 70.8275 605.917 70.8275C605.004 70.8275 603.941 71.007 602.744 71.3812C601.547 71.7553 600.305 72.2641 598.988 72.9375C597.671 73.6109 596.339 74.419 594.963 75.3767C593.586 76.3344 592.269 77.4269 591.042 78.6091V130.162H569.538V65.9939L584.637 58.1375H591.042V65.3055C594.349 62.9112 597.881 61.1603 601.652 60.038C605.423 58.9156 609.164 58.347 612.89 58.347C615.778 58.347 618.532 58.9156 621.121 60.038C623.71 61.1603 625.984 62.6867 627.945 64.6172C629.89 66.5476 631.446 68.8072 632.599 71.4111C633.751 74.0149 634.32 76.7684 634.32 79.7164V130.162H613.025V81.9911H613.01Z" fill="var(--fill-0, #3D9AF1)"/>
</g>
<path id="Vector_30" d="M285.076 7.90131V18.4962H242.247V131.748H211.929V18.4962H168.995V7.90131H285.091H285.076Z" fill="var(--fill-0, #3D9AF1)"/>
<g id="Group_6">
<path id="Vector_31" d="M727.519 2.99292L785.956 130.177H754.71L739.087 96.1775H690.661L674.305 130.177H653.534L714.291 2.99292H727.519ZM696.468 84.5949H733.954L715.488 44.3401L696.468 84.5949Z" fill="var(--fill-0, white)" stroke="var(--stroke-0, #3D9AF1)" stroke-width="4"/>
<path id="Vector_32" d="M803.33 5.56683H833.843V130.177H803.33V5.56683Z" fill="var(--fill-0, white)" stroke="var(--stroke-0, #3D9AF1)" stroke-width="4"/>
</g>
<path id="Vector_33" d="M794.47 153.508L190.612 159C188.555 159 188.448 158.021 190.399 156.793L200.88 150.207C202.813 148.995 206.058 148 208.116 148H811.388C813.445 148 813.552 148.979 811.601 150.207L801.12 156.793C799.187 158.005 796.527 153.508 794.47 153.508Z" fill="var(--fill-0, #3D9AF1)"/>
<path id="Vector_34" d="M823.849 148.628H819V153.477H823.849V148.628Z" fill="var(--fill-0, #2563EB)"/>
<path id="Vector_35" d="M833.548 148.628H828.699V153.477H833.548V148.628Z" fill="var(--fill-0, #2563EB)"/>
</g>
<defs>
<linearGradient id="paint0_linear_0_4" x1="77.4418" y1="161.139" x2="77.4418" y2="11.9717" gradientUnits="userSpaceOnUse">
<stop stop-color="#4900E7"/>
<stop offset="1" stop-color="#1FA9FF" stop-opacity="0.8"/>
</linearGradient>
<linearGradient id="paint1_linear_0_4" x1="29.7796" y1="113.357" x2="29.7796" y2="138.034" gradientUnits="userSpaceOnUse">
<stop stop-color="white"/>
<stop offset="1" stop-color="#0A9E3E"/>
</linearGradient>
<linearGradient id="paint2_linear_0_4" x1="50.9246" y1="106.653" x2="50.9246" y2="152.01" gradientUnits="userSpaceOnUse">
<stop stop-color="white"/>
<stop offset="1" stop-color="#0A9E3E"/>
</linearGradient>
<linearGradient id="paint3_linear_0_4" x1="75.0774" y1="111.711" x2="75.0774" y2="146.937" gradientUnits="userSpaceOnUse">
<stop stop-color="white"/>
<stop offset="1" stop-color="#0A9E3E"/>
</linearGradient>
<linearGradient id="paint4_linear_0_4" x1="99.2153" y1="123.159" x2="99.2153" y2="151.472" gradientUnits="userSpaceOnUse">
<stop stop-color="white"/>
<stop offset="1" stop-color="#0A9E3E"/>
</linearGradient>
<linearGradient id="paint5_linear_0_4" x1="123.353" y1="106.114" x2="123.353" y2="139.859" gradientUnits="userSpaceOnUse">
<stop stop-color="white"/>
<stop offset="1" stop-color="#0A9E3E"/>
</linearGradient>
<linearGradient id="paint6_linear_0_4" x1="138.901" y1="75.6161" x2="138.901" y2="116.933" gradientUnits="userSpaceOnUse">
<stop stop-color="white"/>
<stop offset="1" stop-color="#0A9E3E"/>
</linearGradient>
<clipPath id="clip0_0_4">
<rect width="836.836" height="162.77" fill="white"/>
</clipPath>
</defs>
</svg>
