<svg preserveAspectRatio="none" width="100%" height="100%" overflow="visible" style="display: block;" viewBox="0 0 214 76" fill="none" xmlns="http://www.w3.org/2000/svg">
<g id="_&#227;&#131;&#172;&#227;&#130;&#164;&#227;&#131;&#164;&#227;&#131;&#188;_1" clip-path="url(#clip0_0_10)">
<path id="Vector" d="M107.072 30.5797C137.95 30.5797 162.985 23.8942 162.985 15.6477C162.985 7.40126 137.95 0.71576 107.072 0.71576C76.1948 0.71576 51.1602 7.40126 51.1602 15.6477C51.1602 23.8942 76.1948 30.5797 107.072 30.5797ZM107.072 9.95972C128.385 9.95972 145.67 13.9649 145.67 18.9067C145.67 23.8485 128.392 27.8537 107.072 27.8537C85.7526 27.8537 68.4754 23.8485 68.4754 18.9067C68.4754 13.9649 85.7526 9.95972 107.072 9.95972Z" fill="var(--fill-0, white)"/>
<path id="Vector_2" d="M107.071 50.6286C115.888 50.6286 123.036 43.4933 123.036 34.6915C123.036 25.8897 115.888 18.7544 107.071 18.7544C98.2533 18.7544 91.1055 25.8897 91.1055 34.6915C91.1055 43.4933 98.2533 50.6286 107.071 50.6286Z" fill="var(--fill-0, white)"/>
<path id="Vector_3" d="M126.911 67.7992C126.911 78.7336 87.2305 78.7336 87.2305 67.7992C87.2305 56.8648 96.1093 47.994 107.071 47.994C118.032 47.994 126.911 56.8572 126.911 67.7992Z" fill="var(--fill-0, white)"/>
<path id="Vector_4" d="M211.277 16.1884L213.977 1.91884C214.137 1.06602 213.214 0.418788 212.467 0.860428L136.401 46.1665V46.2198L130.703 49.3874C130.345 49.5854 130.139 49.9814 130.192 50.3925C130.459 52.555 130.444 55.8597 128.11 61.2432C125.966 66.1773 119.445 68.119 117.248 68.6368C116.813 68.7434 116.5 69.1165 116.477 69.5658L116.279 73.2892C116.256 73.6928 116.47 74.0735 116.828 74.2487C117.797 74.7208 120.406 74.9111 127.431 72.2841C129.88 71.3704 131.779 69.7714 133.266 67.8068C133.434 67.586 133.671 67.4413 133.945 67.4109L171.482 62.5909C171.856 62.5452 172.168 62.2939 172.306 61.9437L174.991 54.7404C175.273 53.979 174.586 53.2099 173.801 53.4079L136.409 62.6138C136.249 62.6518 136.104 62.4995 136.165 62.3396C136.516 61.3726 136.813 60.3827 137.065 59.3852C137.157 59.0273 137.431 58.7456 137.79 58.6542L184.61 46.6081C187.798 45.7858 190.376 43.4405 191.497 40.3491L194.312 32.5442C194.61 31.7219 193.786 30.93 192.97 31.265L138.057 53.9561C138.141 53.248 138.209 52.5627 138.263 51.9078C138.293 51.5347 138.522 51.2073 138.865 51.0626L206.967 21.5946C209.217 20.62 210.834 18.6021 211.284 16.2036L211.277 16.1884Z" fill="var(--fill-0, white)"/>
<path id="Vector_5" d="M2.72217 15.4727L0.0142764 1.20315C-0.145909 0.342711 0.784692 -0.304519 1.53222 0.144734L77.5974 45.4508V45.5041L83.2954 48.6717C83.6539 48.8697 83.8599 49.2657 83.8065 49.6768C83.5395 51.8393 83.5548 55.144 85.8889 60.5275C88.0323 65.4616 94.5542 67.4033 96.751 67.9211C97.1858 68.0277 97.4985 68.4008 97.5214 68.8501L97.7197 72.5735C97.7426 72.9771 97.529 73.3578 97.1705 73.533C96.2018 74.0051 93.593 74.1954 86.5678 71.5684C84.1192 70.6547 82.2199 69.0557 80.7324 67.0911C80.5646 66.8703 80.3282 66.7256 80.0536 66.6952L42.5168 61.8752C42.143 61.8295 41.8303 61.5783 41.693 61.228L39.008 54.0247C38.7257 53.2633 39.4122 52.4942 40.1979 52.6922L77.5898 61.8981C77.7499 61.9361 77.8949 61.7838 77.8339 61.6239C77.483 60.6569 77.1855 59.667 76.9338 58.6695C76.8422 58.3117 76.5676 58.0299 76.2091 57.9385L29.3892 45.8925C26.2008 45.0701 23.6225 42.7248 22.5013 39.6334L19.6866 31.8285C19.3891 31.0062 20.2129 30.2143 21.0291 30.5493L75.9421 53.2404C75.8582 52.5323 75.7896 51.847 75.7362 51.1921C75.7057 50.819 75.4768 50.4916 75.1336 50.3469L7.03955 20.8637C4.78933 19.889 3.17222 17.8712 2.72217 15.4727Z" fill="var(--fill-0, white)"/>
</g>
<defs>
<clipPath id="clip0_0_10">
<rect width="214" height="76" fill="white"/>
</clipPath>
</defs>
</svg>
