<?xml version="1.0" encoding="UTF-8"?>
<svg id="_レイヤー_1" data-name="レイヤー_1" xmlns="http://www.w3.org/2000/svg" version="1.1" viewBox="0 0 512 512">
  <!-- Generator: Adobe Illustrator 30.0.0, SVG Export Plug-In . SVG Version: 2.1.1 Build 123)  -->
  <defs>
    <style>
      .st0 {
        fill: none;
        stroke: #000;
        stroke-width: 8px;
      }
    </style>
  </defs>
  <ellipse class="st0" cx="256" cy="194.16" rx="70" ry="25"/>
  <circle cx="256" cy="225.73" r="40"/>
  <path d="M256,258.23c-24,53.33-24,27.78,0,67.78,24-40,24-14.45,0-67.78ZM265.08,297.8c-1.57,3.86-5.43,6.23-9.03,7.94-3.37-1.44-7.65-4.19-9.06-7.74-.03-.07-.05-.36-.14-.33-.41-1.87,0-3.9,1.51-5.16,2.46-2.03,5.84-.59,7.64,1.58,1.54-1.77,4.18-3.22,6.54-2.28,2.15.86,3.07,3.46,2.69,5.62-.07-.11-.13.33-.14.36Z"/>
  <path d="M200,228.97c-53.33,14-73.33,31.51-60,52.51,13.33-7,26.67-8.75,40-5.25-20,10.5-16.67,19.25,10,26.25,13.33-10.5,23.33-21,30-31.51-13.33-7-20-21-20-42.01Z"/>
  <path d="M312,228.97c9.91,2.6,18.67,5.33,26.28,8.17,33.33,12.46,44.57,27.24,33.72,44.34-13.33-7-26.67-8.75-40-5.25,20,10.5,16.67,19.25-10,26.25-13.33-10.5-23.33-21-30-31.51,13.33-7,20-21,20-42.01Z"/>
</svg>