<svg preserveAspectRatio="none" width="100%" height="100%" overflow="visible" style="display: block;" viewBox="0 0 282 140" fill="none" xmlns="http://www.w3.org/2000/svg">
<g id="_&#227;&#131;&#172;&#227;&#130;&#164;&#227;&#131;&#164;&#227;&#131;&#188;_1" clip-path="url(#clip0_0_9)">
<path id="Vector" d="M0 113.469C0 128.12 63.1305 140 141 140C218.869 140 282 128.12 282 113.469C282 98.8181 218.869 86.9382 141 86.9382C63.1305 86.9382 0 98.8181 0 113.469ZM242.857 113.469C242.857 124.05 197.258 132.641 141 132.641C84.7423 132.641 39.1428 124.063 39.1428 113.469C39.1428 102.875 84.7423 94.2968 141 94.2968C197.258 94.2968 242.857 102.875 242.857 113.469Z" fill="var(--fill-0, #2563EB)"/>
<path id="Vector_2" d="M169.015 28.5463L169.001 28.5595L137.282 62.7806L105.602 28.586L105.508 28.5463L81.1582 22.6328L87.9102 46.5252L87.9371 46.5783L124.65 76.4106L98.5416 104.572L93.1856 98.9374L90.1788 101.722L95.7495 107.595L88.6351 115.272L94.5683 121.345L102.609 114.808L107.334 119.794L110.341 117.009L105.79 112.223L137.255 86.6597L168.719 112.223L164.182 117.009L167.189 119.794L171.914 114.808L179.941 121.345L185.888 115.272L178.76 107.582L184.331 101.722L181.324 98.9374L175.982 104.572L149.886 76.3974L186.586 46.5783L186.599 46.5252L193.365 22.6328L169.015 28.5463Z" fill="var(--fill-0, #2563EB)" stroke="var(--stroke-0, white)" stroke-miterlimit="10"/>
<path id="Vector_3" d="M42.1094 49.5615C42.1094 49.5615 42.1228 49.6278 42.1362 49.6543C42.5926 51.1526 44.7538 51.1261 45.1565 49.6145C45.1565 49.6013 45.1565 49.588 45.1565 49.5748L56.8349 11.3098C57.7074 8.27351 58.2444 6.21839 58.5397 4.07046C58.6471 3.30145 59.3048 2.71806 60.0968 2.71806H75.1982C76.3124 2.71806 77.0775 3.84506 76.6479 4.86599C75.9231 6.56312 75.1445 8.60498 73.7485 12.4235L56.6738 60.3144C55.5597 63.4833 54.8214 65.8699 54.365 67.7261C54.1905 68.4288 53.573 68.9061 52.8347 68.9061H34.4177C33.6929 68.9061 33.062 68.4156 32.8875 67.7129C32.4311 65.8168 31.6928 63.4435 30.5652 60.3144L13.4369 12.4103C12.2288 8.93645 11.4636 6.94763 10.5777 4.85273C10.1481 3.8318 10.8998 2.7048 12.0274 2.7048H27.1422C27.9074 2.7048 28.5651 3.24841 28.6859 3.99091C29.0618 6.25817 29.6927 8.83038 30.431 11.2965L42.1094 49.5615Z" fill="var(--fill-0, #2563EB)"/>
<path id="Vector_4" d="M219.38 46.4324C220.588 46.3131 221.662 47.1219 221.917 48.2887C222.266 49.8797 222.803 50.9537 223.675 52.1072C225.608 54.4938 228.991 55.8462 233.098 55.8462C239.3 55.8462 243.005 53.1414 243.005 48.6864C243.005 46.2203 241.716 44.0724 239.622 43.1177C237.931 42.3222 235.917 41.7653 227.541 39.856C220.131 38.265 217.554 37.3104 214.574 35.242C209.5 31.7416 206.762 26.4116 206.762 19.9678C206.762 7.71664 216.749 0 232.615 0C242.844 0 250.656 3.10257 255.005 9.06904C256.576 11.1242 257.516 13.0334 258.348 15.9371C258.751 17.3293 257.784 18.748 256.321 18.8938L244.079 20.2065C242.951 20.3258 241.85 19.6894 241.501 18.6287C240.213 14.7571 237.327 13.113 231.971 13.113C227.058 13.113 223.433 15.7382 223.433 19.3977C223.433 21.6252 224.642 23.2958 227.219 24.4891C228.293 24.9664 231.998 25.8415 238.334 27.1143C244.455 28.3872 248.321 29.7396 251.381 31.6488C257.18 35.2287 260.079 40.5588 260.079 47.8776C260.079 53.8441 258.147 58.9355 254.442 62.5154C249.77 66.9704 242.683 69.2774 233.259 69.2774C226.413 69.2774 219.648 67.8454 215.299 65.3793C211.272 63.1518 208.292 59.731 206.6 55.1965C206.01 53.7778 205.634 52.4122 205.245 50.3173C205.003 48.9649 205.956 47.692 207.339 47.5594L219.366 46.4192L219.38 46.4324Z" fill="var(--fill-0, #2563EB)"/>
<path id="Vector_5" d="M176.237 130.003L179.109 128.173C179.821 127.722 179.498 126.635 178.653 126.635L104.193 126.171C104.032 126.171 103.884 126.211 103.75 126.29L100.676 128.12C99.9376 128.558 100.246 129.671 101.105 129.671L175.78 130.135C175.941 130.135 176.102 130.096 176.25 130.003H176.237Z" fill="var(--fill-0, #2563EB)"/>
</g>
<defs>
<clipPath id="clip0_0_9">
<rect width="282" height="140" fill="white"/>
</clipPath>
</defs>
</svg>
