<svg preserveAspectRatio="none" width="100%" height="100%" overflow="visible" style="display: block;" viewBox="0 0 74.341 76.1982" fill="none" xmlns="http://www.w3.org/2000/svg">
<g id="Group">
<path id="Vector" d="M66.2936 56.8554L62.199 72.5265C61.5077 75.1786 58.193 76.0921 56.2373 74.1649L44.6802 62.7903C42.7245 60.8631 43.5871 57.545 46.2401 56.8201L61.8918 52.5237C64.5447 51.7987 66.9908 54.2033 66.2936 56.8554Z" fill="var(--fill-0, white)"/>
<path id="Vector_2" d="M8.05332 19.3428L12.1479 3.6717C12.8392 1.01959 16.1539 0.106084 18.1096 2.03329L29.6667 13.4079C31.6224 15.3351 30.7598 18.6532 28.1068 19.3781L12.4552 23.6745C9.80224 24.3995 7.35612 21.9949 8.05332 19.3428Z" fill="var(--fill-0, white)"/>
<path id="Vector_3" d="M62.583 40.5891H74.2346C74.2996 39.6697 74.341 38.7386 74.341 37.7956C74.341 16.9205 57.3776 1.95158e-07 36.4497 1.95158e-07C27.2087 1.95158e-07 18.7359 3.30041 12.1597 8.78734L20.4139 17.0207C24.8512 13.6083 30.4112 11.575 36.4497 11.575C50.9669 11.575 62.7367 23.315 62.7367 37.7956C62.7367 38.7386 62.6835 39.6697 62.583 40.5891Z" fill="var(--fill-0, white)"/>
<path id="Vector_4" d="M53.9271 59.1775C49.4898 62.5899 43.9298 64.6232 37.8913 64.6232C23.3741 64.6232 11.6043 52.8832 11.6043 38.4026C11.6043 37.4007 11.6634 36.4106 11.7757 35.4381H0.118173C0.0413623 36.4165 4.48223e-06 37.4007 4.48223e-06 38.4026C4.48223e-06 59.2777 16.9634 76.1982 37.8913 76.1982C47.1323 76.1982 55.6051 72.8978 62.1813 67.4109L53.9271 59.1775Z" fill="var(--fill-0, white)"/>
</g>
</svg>
