<svg preserveAspectRatio="none" width="100%" height="100%" overflow="visible" style="display: block;" viewBox="0 0 797.077 199.68" fill="none" xmlns="http://www.w3.org/2000/svg">
<g id="ANGEL">
<path id="Vector" d="M680.337 196.04V3.37999H718.817V163.8H797.077V196.04H680.337Z" fill="var(--fill-0, white)"/>
<path id="Vector_2" d="M533.376 196.04V3.37999H651.416V35.62H571.856V80.08H639.196V112.32H571.856V163.8H654.276V196.04H533.376Z" fill="var(--fill-0, white)"/>
<path id="Vector_3" d="M442.689 199.68C425.355 199.68 409.669 195.867 395.629 188.24C381.762 180.613 370.755 169.433 362.609 154.7C354.462 139.967 350.389 121.94 350.389 100.62C350.389 84.6733 352.729 70.5467 357.409 58.24C362.262 45.76 368.935 35.1867 377.429 26.52C385.922 17.8533 395.715 11.2667 406.809 6.75999C417.902 2.25333 429.862 0 442.689 0C456.555 0 468.342 2.6 478.049 7.79999C487.929 12.8267 495.989 18.46 502.229 24.7L481.689 49.14C476.835 44.6333 471.462 40.82 465.569 37.7C459.849 34.58 452.655 33.02 443.989 33.02C433.242 33.02 423.795 35.7067 415.649 41.08C407.502 46.28 401.175 53.82 396.669 63.7C392.162 73.58 389.909 85.4533 389.909 99.32C389.909 113.36 391.989 125.407 396.149 135.46C400.482 145.34 406.895 152.967 415.389 158.34C423.882 163.713 434.369 166.4 446.849 166.4C451.529 166.4 456.035 165.793 460.369 164.58C464.702 163.193 468.169 161.373 470.769 159.12V121.16H436.709V89.7H505.349V176.54C498.762 182.953 490.009 188.413 479.089 192.92C468.169 197.427 456.035 199.68 442.689 199.68Z" fill="var(--fill-0, white)"/>
<path id="Vector_4" d="M178.263 196.04V3.37999H217.523L273.423 106.08L292.923 147.68H294.223C293.183 137.627 292.056 126.62 290.843 114.66C289.629 102.7 289.023 91.26 289.023 80.34V3.37999H325.423V196.04H286.163L230.783 93.08L211.283 51.74H209.983C210.849 62.14 211.889 73.1467 213.103 84.76C214.316 96.3733 214.923 107.727 214.923 118.82V196.04H178.263Z" fill="var(--fill-0, white)"/>
<path id="Vector_5" d="M0 196.04L61.62 3.37999H107.12L168.74 196.04H128.18L100.88 95.68C97.9333 85.6267 95.0733 75.2267 92.3 64.48C89.7 53.56 86.9267 42.9867 83.98 32.76H82.94C80.5133 43.16 77.8267 53.7333 74.88 64.48C72.1067 75.2267 69.3333 85.6267 66.56 95.68L39 196.04H0ZM38.22 146.64V116.74H129.74V146.64H38.22Z" fill="var(--fill-0, white)"/>
</g>
</svg>
