<svg preserveAspectRatio="none" width="100%" height="100%" overflow="visible" style="display: block;" viewBox="0 0 187.2 186.331" fill="none" xmlns="http://www.w3.org/2000/svg">
<g id="Group">
<path id="Vector" d="M184.818 71.8185C177.102 37.2225 149.807 10.0512 115.045 2.37082C46.7397 -12.718 -12.7775 46.5257 2.38206 114.513C10.0984 149.109 37.3929 176.28 72.1551 183.96C140.461 199.049 199.978 139.81 184.818 71.8225V71.8185ZM12.5686 82.5864C17.1951 46.0632 46.2791 17.1189 82.9693 12.5139C136.368 5.81135 181.28 50.4612 174.648 103.595L136.458 111.458C140.766 104.138 143.241 95.6141 143.241 86.5178C143.241 58.5878 119.961 36.0743 91.6599 37.1454C65.3844 38.1394 44.3021 59.6955 43.9597 85.8646C43.8374 95.2287 46.3362 104.009 50.767 111.514L12.5645 103.583C11.6963 96.811 11.6555 89.7798 12.5645 82.5904L12.5686 82.5864ZM82.2152 113.47C71.3643 108.926 63.8314 98.0809 64.239 85.536C64.7404 70.1347 77.3971 57.6506 92.8746 57.2814C109.428 56.8838 122.974 70.1226 122.974 86.5138C122.974 98.8559 115.294 109.405 104.431 113.697C102.417 114.492 101.105 116.436 101.105 118.594V118.736L101.035 118.753V130.011H86.0917V119.284C86.0917 116.748 84.5631 114.46 82.2112 113.478L82.2152 113.47ZM104.227 173.817C70.2841 178.077 39.7775 161.589 23.7497 135.363H32.7337C32.7949 135.627 32.8764 135.89 32.9946 136.15L36.5369 144.037C37.2421 145.607 38.8114 146.622 40.5397 146.622H148.495C150.411 146.622 152.102 145.384 152.677 143.567L155.172 135.679C155.204 135.574 155.225 135.468 155.253 135.363H163.581C151.014 156.034 129.418 170.657 104.235 173.817H104.227Z" fill="var(--fill-0, #F9F7D9)"/>
<path id="Vector_2" d="M94.4643 103.079C102.931 102.653 109.811 95.8048 110.243 87.3739C110.745 77.5311 102.621 69.445 92.7319 69.944C84.2656 70.37 77.3849 77.2187 76.9528 85.6496C76.4514 95.4924 84.5754 103.578 94.4643 103.079Z" fill="var(--fill-0, #F9F7D9)"/>
</g>
</svg>
