<svg preserveAspectRatio="none" width="100%" height="100%" overflow="visible" style="display: block;" viewBox="0 0 296.803 199.68" fill="none" xmlns="http://www.w3.org/2000/svg">
<g id="VS">
<path id="Vector" d="M226.083 199.68C213.256 199.68 200.689 197.253 188.383 192.4C176.076 187.547 165.243 180.613 155.883 171.6L177.983 145.08C184.743 151.493 192.456 156.693 201.123 160.68C209.963 164.493 218.543 166.4 226.863 166.4C236.916 166.4 244.543 164.407 249.743 160.42C254.943 156.433 257.543 151.06 257.543 144.3C257.543 139.447 256.243 135.633 253.643 132.86C251.216 129.913 247.836 127.313 243.503 125.06C239.169 122.807 234.143 120.553 228.423 118.3L202.943 107.12C196.529 104.52 190.289 101.053 184.223 96.72C178.329 92.2133 173.389 86.58 169.403 79.82C165.589 73.06 163.683 65 163.683 55.64C163.683 45.0667 166.543 35.62 172.263 27.3C177.983 18.98 185.869 12.3933 195.923 7.53999C205.976 2.51333 217.416 0 230.243 0C241.683 0 252.69 2.16666 263.263 6.49999C273.836 10.8333 283.023 16.9867 290.823 24.96L271.323 48.88C265.256 43.8533 258.929 39.9533 252.343 37.18C245.756 34.4067 238.389 33.02 230.243 33.02C221.923 33.02 215.249 34.84 210.223 38.48C205.369 41.9467 202.943 46.8867 202.943 53.3C202.943 57.8067 204.329 61.5333 207.103 64.48C209.876 67.4267 213.516 70.0267 218.023 72.28C222.529 74.36 227.469 76.5267 232.843 78.78L258.063 88.92C265.863 92.04 272.623 95.94 278.343 100.62C284.236 105.3 288.743 110.933 291.863 117.52C295.156 124.107 296.803 132.08 296.803 141.44C296.803 151.84 293.943 161.46 288.223 170.3C282.676 179.14 274.616 186.247 264.043 191.62C253.643 196.993 240.989 199.68 226.083 199.68Z" fill="var(--fill-0, white)"/>
<path id="Vector_2" d="M58.76 196.04L0 3.38H40.56L65.78 97.24C68.9 107.813 71.5867 118.127 73.84 128.18C76.2667 138.06 78.9533 148.46 81.9 159.38H83.2C86.32 148.46 89.0933 138.06 91.52 128.18C93.9467 118.127 96.6333 107.813 99.58 97.24L124.54 3.38H163.54L104.78 196.04H58.76Z" fill="var(--fill-0, white)"/>
</g>
</svg>
