<svg preserveAspectRatio="none" width="100%" height="100%" overflow="visible" style="display: block;" viewBox="0 0 107 107" fill="none" xmlns="http://www.w3.org/2000/svg">
<g id="_&#227;&#131;&#172;&#227;&#130;&#164;&#227;&#131;&#164;&#227;&#131;&#188;_1" opacity="0.4" clip-path="url(#clip0_0_18)">
<path id="Vector" d="M105.637 41.2421C101.229 21.3752 85.6255 5.77194 65.7585 1.36146C26.7166 -7.30338 -7.30436 26.7176 1.36049 65.7595C5.77096 85.6264 21.3719 101.23 41.2411 105.64C80.283 114.305 114.302 80.2863 105.637 41.2445V41.2421ZM7.18287 47.4256C9.82962 26.452 26.451 9.8306 47.4247 7.18385C77.9462 3.33488 103.617 28.9753 99.8261 59.4875L77.9974 64.0028C80.4601 59.7997 81.8743 54.9046 81.8743 49.681C81.8743 33.642 68.5684 20.7135 52.392 21.3286C37.3735 21.8994 25.3234 34.2781 25.1277 49.3059C25.0578 54.6832 26.486 59.7251 29.0186 64.0354L7.18287 59.4805C6.68661 55.5919 6.66331 51.5542 7.18287 47.4256ZM46.9913 65.1607C40.7891 62.5513 36.4835 56.3235 36.7165 49.1195C37.0031 40.2752 44.2374 33.1062 53.084 32.8941C62.5456 32.6658 70.2878 40.2682 70.2878 49.681C70.2878 56.7685 65.8983 62.8262 59.6892 65.2912C58.5382 65.7479 57.788 66.8639 57.788 68.1034V68.1849L57.7484 68.1942V74.6597H49.207V68.4995C49.207 67.0433 48.3333 65.7292 46.989 65.1654L46.9913 65.1607ZM59.575 99.8154C40.1741 102.262 22.7372 92.7932 13.5761 77.7328H18.7111C18.7461 77.8842 18.7927 78.0357 18.8603 78.1848L20.8849 82.7141C21.288 83.6158 22.185 84.1982 23.1729 84.1982H84.8776C85.9726 84.1982 86.9395 83.4876 87.268 82.4438L88.6939 77.9145C88.7126 77.8539 88.7242 77.7934 88.7405 77.7328H93.5005C86.3174 89.6036 73.9737 98.0005 59.5797 99.8154H59.575Z" fill="var(--fill-0, black)"/>
<path id="Vector_2" d="M53.9951 59.1931C58.8343 58.9484 62.7671 55.0156 63.0141 50.1741C63.3007 44.5218 58.6572 39.8783 53.0049 40.1649C48.1657 40.4095 44.2329 44.3424 43.9859 49.1839C43.6993 54.8362 48.3428 59.4796 53.9951 59.1931Z" fill="var(--fill-0, black)"/>
</g>
<defs>
<clipPath id="clip0_0_18">
<rect width="107" height="107" fill="white"/>
</clipPath>
</defs>
</svg>
