<svg preserveAspectRatio="none" width="100%" height="100%" overflow="visible" style="display: block;" viewBox="0 0 112.774 112.517" fill="none" xmlns="http://www.w3.org/2000/svg">
<g id="Group">
<path id="Vector" d="M82.878 22.6562H21.8961C20.8584 22.6562 20.0172 23.4953 20.0172 24.5304V30.2118C20.0172 31.2469 20.8584 32.086 21.8961 32.086H82.878C83.9157 32.086 84.7569 31.2469 84.7569 30.2118V24.5304C84.7569 23.4953 83.9157 22.6562 82.878 22.6562Z" fill="var(--fill-0, white)"/>
<path id="Vector_2" d="M55.9056 37.1014H21.8961C20.8584 37.1014 20.0172 37.9405 20.0172 38.9756V44.657C20.0172 45.6921 20.8584 46.5312 21.8961 46.5312H55.9056C56.9433 46.5312 57.7845 45.6921 57.7845 44.657V38.9756C57.7845 37.9405 56.9433 37.1014 55.9056 37.1014Z" fill="var(--fill-0, white)"/>
<path id="Vector_3" d="M61.1523 51.5407H21.8961C20.8584 51.5407 20.0172 52.3798 20.0172 53.4149V59.0963C20.0172 60.1314 20.8584 60.9705 21.8961 60.9705H61.1523C62.19 60.9705 63.0312 60.1314 63.0312 59.0963V53.4149C63.0312 52.3798 62.19 51.5407 61.1523 51.5407Z" fill="var(--fill-0, white)"/>
<path id="Vector_4" d="M37.5714 65.9859H21.8961C20.8584 65.9859 20.0172 66.825 20.0172 67.8601V73.5415C20.0172 74.5765 20.8584 75.4156 21.8961 75.4156H37.5714C38.6091 75.4156 39.4504 74.5765 39.4504 73.5415V67.8601C39.4504 66.825 38.6091 65.9859 37.5714 65.9859Z" fill="var(--fill-0, white)"/>
<path id="Vector_5" d="M51.226 80.4311H21.8961C20.8584 80.4311 20.0172 81.2702 20.0172 82.3052V87.9867C20.0172 89.0217 20.8584 89.8608 21.8961 89.8608H51.226C52.2637 89.8608 53.1049 89.0217 53.1049 87.9867V82.3052C53.1049 81.2702 52.2637 80.4311 51.226 80.4311Z" fill="var(--fill-0, white)"/>
<path id="Vector_6" d="M95.9122 5.5H16.8621C10.587 5.5 5.5 10.5741 5.5 16.8334V95.6837C5.5 101.943 10.587 107.017 16.8621 107.017H95.9122C102.187 107.017 107.274 101.943 107.274 95.6837V16.8334C107.274 10.5741 102.187 5.5 95.9122 5.5Z" stroke="var(--stroke-0, white)" stroke-width="11" stroke-miterlimit="10"/>
</g>
</svg>
