<svg preserveAspectRatio="none" width="100%" height="100%" overflow="visible" style="display: block;" viewBox="0 0 94 94" fill="none" xmlns="http://www.w3.org/2000/svg">
<g id="_&#227;&#131;&#172;&#227;&#130;&#164;&#227;&#131;&#164;&#227;&#131;&#188;_1" opacity="0.4" clip-path="url(#clip0_0_24)">
<path id="Vector" d="M92.8028 36.2314C88.9302 18.7782 75.2227 5.07065 57.7695 1.19603C23.471 -6.41608 -6.41656 23.4715 1.19554 57.77C5.07016 75.2232 18.7756 88.9307 36.2309 92.8054C70.5294 100.417 100.415 70.5319 92.8028 36.2334V36.2314ZM6.31053 41.6636C8.63572 23.2382 23.2377 8.6362 41.6631 6.31102C68.4764 2.92968 91.0282 25.4549 87.6981 52.26L68.5214 56.2267C70.6849 52.5343 71.9273 48.2339 71.9273 43.6449C71.9273 29.5547 60.238 18.1969 46.0269 18.7372C32.8332 19.2387 22.247 30.1134 22.0751 43.3154C22.0137 48.0394 23.2684 52.4688 25.4933 56.2554L6.31053 52.2538C5.87456 48.8377 5.85409 45.2906 6.31053 41.6636ZM41.2824 57.244C35.8338 54.9515 32.0513 49.4804 32.256 43.1517C32.5077 35.3819 38.8631 29.0839 46.6348 28.8976C54.947 28.697 61.7485 35.3758 61.7485 43.6449C61.7485 49.8713 57.8923 55.1931 52.4376 57.3586C51.4264 57.7598 50.7674 58.7402 50.7674 59.8291V59.9007L50.7326 59.9089V65.5888H43.2289V60.1771C43.2289 58.8978 42.4614 57.7434 41.2804 57.2481L41.2824 57.244ZM52.3373 87.6883C35.2934 89.8375 19.9751 81.5192 11.927 68.2886H16.4382C16.4689 68.4216 16.5098 68.5547 16.5692 68.6857L18.3479 72.6647C18.702 73.4568 19.49 73.9685 20.3578 73.9685H74.5657C75.5277 73.9685 76.3771 73.3442 76.6657 72.4273L77.9184 68.4482C77.9347 68.395 77.945 68.3418 77.9593 68.2886H82.141C75.8306 78.7171 64.9866 86.0938 52.3414 87.6883H52.3373Z" fill="var(--fill-0, black)"/>
<path id="Vector_2" d="M92.8033 36.2314C88.9307 18.7782 75.2232 5.07067 57.77 1.19604C23.4715 -6.41606 -6.41606 23.4715 1.19604 57.77C5.07067 75.2232 18.7761 88.9307 36.2314 92.8054C70.5299 100.417 100.415 70.5319 92.8033 36.2334V36.2314ZM6.31104 41.6636C8.63622 23.2382 23.2382 8.63622 41.6636 6.31104C68.4769 2.9297 91.0287 25.4549 87.6986 52.26L68.5219 56.2267C70.6854 52.5343 71.9278 48.2339 71.9278 43.645C71.9278 29.5547 60.2385 18.1969 46.0274 18.7373C32.8337 19.2387 22.2475 30.1135 22.0756 43.3154C22.0142 48.0395 23.2689 52.4688 25.4938 56.2554L6.31104 52.2539C5.87506 48.8377 5.8546 45.2906 6.31104 41.6636ZM41.2829 57.244C35.8343 54.9516 32.0518 49.4804 32.2565 43.1517C32.5082 35.382 38.8636 29.0839 46.6353 28.8976C54.9475 28.6971 61.749 35.3758 61.749 43.645C61.749 49.8714 57.8928 55.1931 52.4381 57.3586C51.4269 57.7598 50.7679 58.7402 50.7679 59.8291V59.9008L50.7331 59.9089V65.5889H43.2294V60.1771C43.2294 58.8978 42.4619 57.7434 41.2809 57.2481L41.2829 57.244ZM52.3378 87.6883C35.2939 89.8375 19.9756 81.5192 11.9275 68.2886H16.4387C16.4694 68.4217 16.5103 68.5547 16.5697 68.6857L18.3484 72.6647C18.7025 73.4568 19.4905 73.9685 20.3583 73.9685H74.5662C75.5282 73.9685 76.3776 73.3442 76.6662 72.4273L77.9189 68.4483C77.9352 68.395 77.9455 68.3418 77.9598 68.2886H82.1415C75.8311 78.7171 64.9871 86.0939 52.3419 87.6883H52.3378Z" fill="var(--fill-0, black)"/>
<path id="Vector_3" d="M47.4349 52.0014C51.6862 51.7865 55.1412 48.3315 55.3582 44.0782C55.6099 39.1126 51.5306 35.0333 46.565 35.2851C42.3138 35.5 38.8588 38.955 38.6418 43.2083C38.3901 48.1739 42.4694 52.2532 47.4349 52.0014Z" fill="var(--fill-0, black)"/>
</g>
<defs>
<clipPath id="clip0_0_24">
<rect width="94" height="94" fill="white"/>
</clipPath>
</defs>
</svg>
