<svg preserveAspectRatio="none" width="100%" height="100%" overflow="visible" style="display: block;" viewBox="0 0 102 102" fill="none" xmlns="http://www.w3.org/2000/svg">
<g id="_&#227;&#131;&#172;&#227;&#130;&#164;&#227;&#131;&#164;&#227;&#131;&#188;_1" opacity="0.4" clip-path="url(#clip0_0_21)">
<path id="Vector" d="M100.701 39.3141C96.4985 20.3755 81.6244 5.5014 62.6858 1.29702C25.4683 -6.96293 -6.96293 25.4683 1.29702 62.6858C5.5014 81.6244 20.3733 96.4985 39.3141 100.703C76.5316 108.963 108.961 76.5338 100.701 39.3163V39.3141ZM6.84733 45.2087C9.3704 25.2151 25.2151 9.3704 45.2087 6.84733C74.3039 3.17822 98.775 27.6205 95.1615 56.7068L74.3528 61.0112C76.7004 57.0045 78.0486 52.3381 78.0486 47.3586C78.0486 32.0692 65.3644 19.7448 49.9439 20.3311C35.6272 20.8752 24.1401 32.6755 23.9536 47.001C23.8869 52.1271 25.2484 56.9334 27.6627 61.0423L6.84733 56.7002C6.37425 52.9933 6.35204 49.1443 6.84733 45.2087ZM44.7956 62.115C38.8832 59.6275 34.7788 53.6907 35.0009 46.8233C35.2741 38.3924 42.1703 31.5583 50.6035 31.3562C59.623 31.1385 67.0035 38.3857 67.0035 47.3586C67.0035 54.1149 62.8191 59.8896 56.9001 62.2394C55.8029 62.6747 55.0877 63.7386 55.0877 64.9201V64.9979L55.05 65.0068V71.1701H46.9077V65.2977C46.9077 63.9096 46.0749 62.6569 44.7933 62.1195L44.7956 62.115ZM56.7912 95.1503C38.2969 97.4824 21.6748 88.4562 12.9418 74.0996H17.8369C17.8702 74.244 17.9146 74.3883 17.979 74.5305L19.9091 78.8481C20.2933 79.7077 21.1484 80.2629 22.0901 80.2629H80.9114C81.9553 80.2629 82.877 79.5855 83.1902 78.5905L84.5495 74.2728C84.5672 74.2151 84.5783 74.1573 84.5939 74.0996H89.1314C82.284 85.4157 70.5171 93.4202 56.7957 95.1503H56.7912Z" fill="var(--fill-0, black)"/>
<path id="Vector_2" d="M51.472 56.427C56.085 56.1938 59.8341 52.4448 60.0695 47.8295C60.3427 42.4413 55.9162 38.0149 50.528 38.288C45.915 38.5212 42.1659 42.2703 41.9305 46.8856C41.6573 52.2738 46.0838 56.7002 51.472 56.427Z" fill="var(--fill-0, black)"/>
</g>
<defs>
<clipPath id="clip0_0_21">
<rect width="102" height="102" fill="white"/>
</clipPath>
</defs>
</svg>
