<svg preserveAspectRatio="none" width="100%" height="100%" overflow="visible" style="display: block;" viewBox="0 0 1033.38 201" fill="none" xmlns="http://www.w3.org/2000/svg">
<g id="_&#227;&#131;&#172;&#227;&#130;&#164;&#227;&#131;&#164;&#227;&#131;&#188;_1" clip-path="url(#clip0_0_4)">
<g id="Vector">
<path d="M95.6307 198.986C146.497 198.986 187.732 157.751 187.732 106.885C187.732 56.0186 146.497 14.7835 95.6307 14.7835C44.7646 14.7835 3.52956 56.0186 3.52956 106.885C3.52956 157.751 44.7646 198.986 95.6307 198.986Z" fill="var(--fill-0, white)"/>
<path d="M95.6307 198.986C146.497 198.986 187.732 157.751 187.732 106.885C187.732 56.0186 146.497 14.7835 95.6307 14.7835C44.7646 14.7835 3.52956 56.0186 3.52956 106.885C3.52956 157.751 44.7646 198.986 95.6307 198.986Z" fill="url(#paint0_linear_0_4)" fill-opacity="0.2"/>
</g>
<g id="Group">
<g id="Vector_2">
<path d="M27.4973 139.981V150.995C32.5976 158.442 38.8621 165.002 46.0506 170.454V139.981H27.4973Z" fill="var(--fill-0, #4EB412)"/>
<path d="M27.4973 139.981V150.995C32.5976 158.442 38.8621 165.002 46.0506 170.454V139.981H27.4973Z" fill="url(#paint1_linear_0_4)" fill-opacity="0.2"/>
</g>
<g id="Vector_3">
<path d="M53.6086 131.702V180.562C59.4112 183.648 65.6387 186.069 72.1619 187.713V131.702H53.6086Z" fill="var(--fill-0, #4EB412)"/>
<path d="M53.6086 131.702V180.562C59.4112 183.648 65.6387 186.069 72.1619 187.713V131.702H53.6086Z" fill="url(#paint2_linear_0_4)" fill-opacity="0.2"/>
</g>
<g id="Vector_4">
<path d="M83.4343 137.948V180.931C86.4834 181.264 89.5695 181.449 92.711 181.449C95.8524 181.449 98.9385 181.264 101.988 180.931V137.948H83.4343Z" fill="var(--fill-0, #4EB412)"/>
<path d="M83.4343 137.948V180.931C86.4834 181.264 89.5695 181.449 92.711 181.449C95.8524 181.449 98.9385 181.264 101.988 180.931V137.948H83.4343Z" fill="url(#paint3_linear_0_4)" fill-opacity="0.2"/>
</g>
<g id="Vector_5">
<path d="M113.242 152.085V187.048C119.765 185.403 125.992 182.983 131.795 179.897V152.104H113.242V152.085Z" fill="var(--fill-0, #4EB412)"/>
<path d="M113.242 152.085V187.048C119.765 185.403 125.992 182.983 131.795 179.897V152.104H113.242V152.085Z" fill="url(#paint4_linear_0_4)" fill-opacity="0.2"/>
</g>
<g id="Vector_6">
<path d="M143.049 131.037V172.708C150.237 167.275 156.502 160.697 161.602 153.249V131.037H143.049Z" fill="var(--fill-0, #4EB412)"/>
<path d="M143.049 131.037V172.708C150.237 167.275 156.502 160.697 161.602 153.249V131.037H143.049Z" fill="url(#paint5_linear_0_4)" fill-opacity="0.2"/>
</g>
<g id="Vector_7">
<path d="M166.887 144.398C172.819 132.941 176.164 119.913 176.164 106.127C176.164 101.803 175.831 97.5341 175.203 93.3762H166.887V144.398Z" fill="var(--fill-0, #4EB412)"/>
<path d="M166.887 144.398C172.819 132.941 176.164 119.913 176.164 106.127C176.164 101.803 175.831 97.5341 175.203 93.3762H166.887V144.398Z" fill="url(#paint6_linear_0_4)" fill-opacity="0.2"/>
</g>
<path id="Vector_8" d="M145.026 73.7142H46.1984C44.5348 73.7142 43.1863 75.0628 43.1863 76.7263V79.4428C43.1863 81.1063 44.5348 82.4549 46.1984 82.4549H145.026C146.69 82.4549 148.038 81.1063 148.038 79.4428V76.7263C148.038 75.0628 146.69 73.7142 145.026 73.7142Z" fill="var(--fill-0, #1B3955)"/>
<path id="Vector_9" d="M95.6307 9.7571C42.8167 9.7571 0 52.5738 0 105.388C0 158.202 42.8167 201.018 95.6307 201.018C148.445 201.018 191.261 158.202 191.261 105.388C191.261 52.5738 148.426 9.7571 95.6307 9.7571ZM95.6307 188.859C49.5247 188.859 12.1594 151.494 12.1594 105.388C12.1594 59.2818 49.5247 21.9165 95.6307 21.9165C141.737 21.9165 179.102 59.2818 179.102 105.388C179.102 151.494 141.737 188.859 95.6307 188.859Z" fill="var(--fill-0, #1B3955)"/>
<path id="Vector_10" d="M95.6307 9.7571C42.8167 9.7571 0 52.5738 0 105.388C0 158.202 42.8167 201.018 95.6307 201.018C148.445 201.018 191.261 158.202 191.261 105.388C191.261 52.5738 148.426 9.7571 95.6307 9.7571ZM95.6307 188.859C49.5247 188.859 12.1594 151.494 12.1594 105.388C12.1594 59.2818 49.5247 21.9165 95.6307 21.9165C141.737 21.9165 179.102 59.2818 179.102 105.388C179.102 151.494 141.737 188.859 95.6307 188.859Z" fill="var(--fill-0, #1B3955)"/>
<path id="Vector_11" d="M100.14 61.7211V180.044C100.14 182.336 98.2732 184.202 95.9818 184.202H95.5753C93.2838 184.202 91.4174 182.336 91.4174 180.044V93.1545V61.7395C91.4174 59.4481 93.2838 57.5817 95.5753 57.5817H95.9818C98.2732 57.5817 100.14 59.4481 100.14 61.7395V61.7211Z" fill="var(--fill-0, #1B3955)"/>
<g id="Group_2">
<path id="Vector_12" d="M37.4876 87.6842L27.4384 106.64C27.013 107.442 27.3186 108.438 28.1212 108.863L29.4436 109.564C30.2462 109.99 31.2416 109.684 31.6671 108.882L41.7162 89.926C42.1417 89.1235 41.836 88.128 41.0335 87.7026L39.711 87.0014C38.9085 86.576 37.913 86.8817 37.4876 87.6842Z" fill="var(--fill-0, #1B3955)"/>
<path id="Vector_13" d="M60.7708 89.923L70.82 108.879C71.2454 109.681 72.2409 109.987 73.0434 109.561L74.3659 108.86C75.1684 108.435 75.4741 107.439 75.0486 106.637L64.9995 87.6812C64.574 86.8787 63.5786 86.573 62.776 86.9985L61.4536 87.6996C60.651 88.125 60.3454 89.1205 60.7708 89.923Z" fill="var(--fill-0, #1B3955)"/>
<path id="Vector_14" d="M32.9487 124.329C43.2232 129.965 59.8547 129.965 70.1292 124.329C75.2664 121.502 77.8351 117.806 77.8351 114.129H25.2428C25.2428 117.824 27.8114 121.52 32.9487 124.329Z" fill="var(--fill-0, #1B3955)"/>
</g>
<g id="Group_3">
<path id="Vector_15" d="M125.656 87.6812L115.607 106.637C115.181 107.439 115.487 108.435 116.289 108.86L117.612 109.561C118.414 109.987 119.41 109.681 119.835 108.879L129.884 89.923C130.31 89.1205 130.004 88.125 129.202 87.6996L127.879 86.9985C127.077 86.573 126.081 86.8787 125.656 87.6812Z" fill="var(--fill-0, #1B3955)"/>
<path id="Vector_16" d="M148.951 89.9201L159 108.876C159.426 109.678 160.421 109.984 161.224 109.558L162.546 108.857C163.349 108.432 163.654 107.436 163.229 106.634L153.18 87.6783C152.754 86.8757 151.759 86.57 150.956 86.9955L149.634 87.6966C148.831 88.1221 148.526 89.1175 148.951 89.9201Z" fill="var(--fill-0, #1B3955)"/>
<path id="Vector_17" d="M121.114 124.329C131.388 129.965 148.02 129.965 158.294 124.329C163.431 121.502 166 117.806 166 114.129H113.426C113.426 117.824 115.995 121.52 121.132 124.329H121.114Z" fill="var(--fill-0, #1B3955)"/>
</g>
<path id="Vector_18" d="M95.6307 190.873C123.819 190.873 146.671 183.196 146.671 173.724C146.671 164.253 123.819 156.576 95.6307 156.576C67.4421 156.576 44.5907 164.253 44.5907 173.724C44.5907 183.196 67.4421 190.873 95.6307 190.873Z" fill="var(--fill-0, #1B3955)"/>
<path id="Vector_19" d="M107.457 53.9043C107.827 52.6292 107.883 51.1693 107.883 49.5801C107.883 48.7116 107.883 47.7876 107.883 46.8267C107.919 40.1556 102.468 34.7412 95.797 34.7412C89.126 34.7412 83.6745 40.1556 83.7115 46.8267C83.7115 47.7876 83.7115 48.7116 83.7115 49.5801C83.7115 51.1693 83.7485 52.6292 84.1365 53.9043C84.1365 53.9228 84.1365 53.9597 84.155 53.9782C84.155 54.0152 84.1735 54.0521 84.192 54.0891C85.1159 57.1751 87.8509 58.8937 95.797 58.8937C103.762 58.8937 106.478 57.1567 107.402 54.0891C107.402 54.0521 107.421 54.0152 107.439 53.9782C107.439 53.9597 107.439 53.9228 107.457 53.9043ZM87.2226 46.8082C87.2226 42.0775 91.0478 38.2523 95.7785 38.2338C100.509 38.2338 104.334 42.0775 104.334 46.8082C104.334 51.5389 100.509 55.3642 95.7785 55.3826C91.0478 55.3826 87.2226 51.5389 87.2226 46.8082Z" fill="var(--fill-0, #1B3955)"/>
<path id="Vector_20" d="M95.7785 96.4253C107.056 96.4253 116.198 87.2831 116.198 76.0056C116.198 64.7281 107.056 55.5859 95.7785 55.5859C84.501 55.5859 75.3588 64.7281 75.3588 76.0056C75.3588 87.2831 84.501 96.4253 95.7785 96.4253Z" fill="var(--fill-0, #1B3955)"/>
<path id="Vector_21" d="M95.7785 63.9201C89.1075 63.9201 83.693 69.3346 83.693 76.0056C83.693 82.6767 89.1075 88.0911 95.7785 88.0911C102.45 88.0911 107.864 82.6767 107.864 76.0056C107.864 69.3346 102.45 63.9201 95.7785 63.9201ZM95.7785 84.58C91.0478 84.58 87.2041 80.7363 87.2041 76.0056C87.2041 71.2749 91.0478 67.4312 95.7785 67.4312C100.509 67.4312 104.353 71.2749 104.353 76.0056C104.353 80.7363 100.509 84.58 95.7785 84.58Z" fill="var(--fill-0, white)"/>
<path id="Vector_22" d="M113.426 159.699C102.745 159.44 105.462 147.927 95.6307 147.927C85.7997 147.927 88.5161 159.44 77.8351 159.699C71.3488 159.846 85.7997 171.47 95.6307 171.47C105.462 171.47 119.931 159.865 113.426 159.699Z" fill="var(--fill-0, #1B3955)"/>
<g id="Group_4">
<path id="Vector_23" d="M99.6407 191.576C99.6407 192.259 99.4005 192.851 98.92 193.313C98.4395 193.775 97.8482 194.015 97.1645 194.015C95.9818 194.015 95.2057 193.46 94.8361 192.37L92.9142 186.808H80.8472L79.0547 192.333C78.7036 193.46 77.909 194.015 76.7263 194.015C76.0426 194.015 75.4512 193.775 74.9892 193.313C74.5273 192.851 74.287 192.259 74.287 191.576C74.287 191.298 74.324 191.04 74.3979 190.799L82.3995 167.349C83.2495 164.854 84.6909 163.598 86.7236 163.598C88.7564 163.598 90.2532 164.817 91.1217 167.275L99.5113 190.725C99.6037 191.003 99.6592 191.28 99.6592 191.576H99.6407ZM91.362 182.428L86.9269 169.548C86.8715 169.419 86.816 169.363 86.7421 169.363C86.6682 169.363 86.5943 169.419 86.5573 169.548L82.3071 182.428H91.3804H91.362Z" fill="var(--fill-0, white)"/>
<path id="Vector_24" d="M118.693 191.686C118.693 192.278 118.49 192.777 118.065 193.202C117.64 193.627 117.141 193.83 116.549 193.83H106.312C105.72 193.83 105.221 193.627 104.796 193.202C104.371 192.777 104.168 192.278 104.168 191.686C104.168 191.095 104.371 190.596 104.796 190.171C105.221 189.746 105.72 189.543 106.312 189.543H108.88V168.273H106.497C105.905 168.273 105.406 168.07 104.981 167.645C104.556 167.22 104.353 166.721 104.353 166.129C104.353 165.538 104.556 165.039 104.981 164.614C105.406 164.189 105.905 163.986 106.497 163.986H116.42C117.011 163.986 117.51 164.189 117.935 164.614C118.36 165.039 118.564 165.538 118.564 166.129C118.564 166.721 118.36 167.22 117.935 167.645C117.51 168.07 117.011 168.273 116.42 168.273H113.925V189.543H116.531C117.122 189.543 117.621 189.746 118.046 190.171C118.471 190.596 118.674 191.095 118.674 191.686H118.693Z" fill="var(--fill-0, white)"/>
</g>
</g>
<g id="Group_5">
<path id="Vector_25" d="M372.987 162.711C366.797 162.711 360.994 161.565 355.543 159.255C350.091 156.964 345.361 153.859 341.332 149.979C337.304 146.098 334.107 141.589 331.76 136.452C329.413 131.314 328.23 125.881 328.23 120.153C328.23 113.297 329.302 106.922 331.464 101.045C333.626 95.1687 336.694 90.0869 340.649 85.7627C344.622 81.457 349.371 78.0938 354.896 75.673C360.421 73.2522 366.594 72.051 373.412 72.051C379.492 72.051 385.036 73.012 390.099 74.9523C395.144 76.8741 399.468 79.5167 403.072 82.8615C406.675 86.2062 409.466 90.1608 411.461 94.6883C413.439 99.2342 414.437 104.076 414.437 109.25H354.102C354.323 114.073 355.044 118.674 356.264 123.036C357.483 127.415 359.109 131.24 361.161 134.567C363.212 137.893 365.596 140.517 368.349 142.476C371.103 144.435 374.152 145.414 377.496 145.414C380.398 145.414 383.243 144.915 386.052 143.917C388.861 142.919 391.448 141.57 393.832 139.833C396.216 138.096 398.286 136.082 400.041 133.791C401.797 131.499 403.072 129.004 403.866 126.343L417.319 128.469C415.952 133.181 413.79 137.597 410.815 141.737C407.84 145.876 404.347 149.517 400.337 152.64C396.345 155.763 391.984 158.22 387.272 159.994C382.56 161.768 377.792 162.674 372.969 162.674L372.987 162.711ZM384.13 100.232C383.909 97.6819 383.354 95.335 382.467 93.2099C381.58 91.0848 380.472 89.2553 379.104 87.7215C377.737 86.1877 376.147 85.0051 374.336 84.192C372.525 83.3604 370.567 82.9539 368.46 82.9539C366.815 82.9539 365.189 83.3604 363.618 84.192C362.029 85.0235 360.606 86.1877 359.313 87.6846C358.038 89.1814 356.966 91.0109 356.079 93.136C355.192 95.2611 354.619 97.6265 354.342 100.232H384.13Z" fill="var(--fill-0, #1B3955)"/>
<path id="Vector_26" d="M490.257 101.248C490.257 99.0309 490.017 97.0721 489.537 95.335C489.056 93.598 488.41 92.1566 487.578 90.9924C486.746 89.8282 485.822 88.9412 484.769 88.3498C483.716 87.7585 482.625 87.4628 481.498 87.4628C480.371 87.4628 479.059 87.6846 477.581 88.1466C476.102 88.6085 474.568 89.2368 472.942 90.0684C471.316 90.9 469.671 91.8979 467.971 93.0805C466.271 94.2632 464.645 95.6122 463.13 97.0721V160.733H436.575V81.494L455.221 71.7923H463.13V80.6439C467.214 77.6872 471.575 75.5251 476.232 74.1392C480.888 72.7532 485.508 72.051 490.11 72.051C493.676 72.051 497.076 72.7532 500.273 74.1392C503.47 75.5251 506.279 77.41 508.7 79.7939C511.102 82.1777 513.024 84.9681 514.447 88.1835C515.87 91.3989 516.572 94.7991 516.572 98.4396V160.733H490.276V101.248H490.257Z" fill="var(--fill-0, #1B3955)"/>
<path id="Vector_27" d="M544.568 38.8806L563.214 29.1789H571.123V79.646C574.523 77.4285 578.238 75.6175 582.266 74.1946C586.295 72.7717 590.175 72.0695 593.927 72.0695C599.378 72.0695 604.404 73.1044 608.987 75.174C613.589 77.2437 617.562 80.0526 620.907 83.6006C624.251 87.1487 626.857 91.2696 628.742 95.9818C630.608 100.694 631.551 105.683 631.551 110.969C631.551 115.625 630.959 120.116 629.758 124.458C628.557 128.801 626.875 132.867 624.695 136.673C622.514 140.48 619.89 143.973 616.823 147.133C613.755 150.311 610.355 153.028 606.604 155.264C602.852 157.5 598.842 159.255 594.555 160.493C590.268 161.731 585.796 162.36 581.157 162.36C574.302 162.36 567.723 161.436 561.458 159.588C555.194 157.74 549.558 154.802 544.568 150.773V38.8806ZM571.105 145.008C572.01 145.802 572.953 146.578 573.914 147.299C574.874 148.038 575.891 148.685 576.981 149.258C578.053 149.831 579.217 150.274 580.474 150.625C581.712 150.958 583.079 151.143 584.558 151.143C587.514 151.143 590.194 150.256 592.596 148.463C594.998 146.671 597.087 144.213 598.805 141.053C600.542 137.911 601.873 134.197 602.815 129.91C603.758 125.623 604.22 121.021 604.22 116.087C604.22 112.391 603.739 108.917 602.778 105.665C601.817 102.394 600.487 99.5298 598.824 97.0721C597.142 94.5958 595.183 92.6555 592.91 91.2326C590.637 89.8097 588.235 89.1075 585.666 89.1075C583.098 89.1075 580.677 89.8282 578.016 91.2696C575.355 92.711 573.045 94.5404 571.123 96.7579V145.008H571.105Z" fill="var(--fill-0, #1B3955)"/>
<path id="Vector_28" d="M651.361 81.5125L669.914 71.8108H677.823V160.752H651.361V81.5125ZM664.61 61.1852C660.508 53.701 655.167 48.4714 648.718 45.2929C656.036 41.4862 661.69 36.4413 664.61 29.4007C667.733 36.4228 673.037 41.7079 680.502 45.2929C674.127 48.7855 668.934 54.2554 664.61 61.1852Z" fill="var(--fill-0, #1B3955)"/>
<path id="Vector_29" d="M756.989 101.248C756.989 99.0309 756.748 97.0721 756.268 95.335C755.787 93.598 755.141 92.1566 754.309 90.9924C753.477 89.8282 752.553 88.9412 751.5 88.3498C750.447 87.7585 749.357 87.4628 748.229 87.4628C747.102 87.4628 745.79 87.6846 744.312 88.1466C742.833 88.6085 741.3 89.2368 739.673 90.0684C738.047 90.9 736.402 91.8979 734.702 93.0805C733.002 94.2632 731.376 95.6122 729.861 97.0721V160.733H703.306V81.494L721.952 71.7923H729.861V80.6439C733.945 77.6872 738.306 75.5251 742.963 74.1392C747.619 72.7532 752.239 72.051 756.841 72.051C760.407 72.051 763.807 72.7532 767.004 74.1392C770.201 75.5251 773.01 77.41 775.431 79.7939C777.833 82.1777 779.755 84.9681 781.178 88.1835C782.601 91.3989 783.303 94.7991 783.303 98.4396V160.733H757.007V101.248H756.989Z" fill="var(--fill-0, #1B3955)"/>
</g>
<path id="Vector_30" d="M352.032 9.7571V22.8405H299.144V162.692H261.705V22.8405H208.687V9.7571H352.05H352.032Z" fill="var(--fill-0, #1B3955)"/>
<g id="Group_6">
<path id="Vector_31" d="M898.393 3.69587L970.555 160.752H931.97L912.677 118.767H852.878L832.68 160.752H807.031L882.057 3.69587H898.393ZM860.048 104.464H906.339L883.535 54.7543L860.048 104.464Z" fill="var(--fill-0, white)" stroke="var(--stroke-0, #1B3955)" stroke-width="4"/>
<path id="Vector_32" d="M992.009 6.87432H1029.69V160.752H992.009V6.87432Z" fill="var(--fill-0, white)" stroke="var(--stroke-0, #1B3955)" stroke-width="4"/>
</g>
<path id="Vector_33" d="M981.068 189.563L235.381 196.345C232.841 196.345 232.709 195.136 235.118 193.62L248.061 185.486C250.448 183.99 254.456 182.761 256.996 182.761H1001.96C1004.5 182.761 1004.63 183.97 1002.22 185.486L989.28 193.62C986.893 195.115 983.608 189.563 981.068 189.563Z" fill="var(--fill-0, #1B3955)"/>
<path id="Vector_34" d="M1017.35 183.537H1011.36V189.524H1017.35V183.537Z" fill="var(--fill-0, #2563EB)"/>
<path id="Vector_35" d="M1029.32 183.537H1023.34V189.524H1029.32V183.537Z" fill="var(--fill-0, #2563EB)"/>
</g>
<defs>
<linearGradient id="paint0_linear_0_4" x1="95.6307" y1="198.986" x2="95.6307" y2="14.7835" gradientUnits="userSpaceOnUse">
<stop stop-color="#4900E7"/>
<stop offset="1" stop-color="#1FA9FF" stop-opacity="0.8"/>
</linearGradient>
<linearGradient id="paint1_linear_0_4" x1="36.7739" y1="139.981" x2="36.7739" y2="170.454" gradientUnits="userSpaceOnUse">
<stop stop-color="white"/>
<stop offset="1" stop-color="#0A9E3E"/>
</linearGradient>
<linearGradient id="paint2_linear_0_4" x1="62.8853" y1="131.702" x2="62.8853" y2="187.713" gradientUnits="userSpaceOnUse">
<stop stop-color="white"/>
<stop offset="1" stop-color="#0A9E3E"/>
</linearGradient>
<linearGradient id="paint3_linear_0_4" x1="92.711" y1="137.948" x2="92.711" y2="181.449" gradientUnits="userSpaceOnUse">
<stop stop-color="white"/>
<stop offset="1" stop-color="#0A9E3E"/>
</linearGradient>
<linearGradient id="paint4_linear_0_4" x1="122.518" y1="152.085" x2="122.518" y2="187.048" gradientUnits="userSpaceOnUse">
<stop stop-color="white"/>
<stop offset="1" stop-color="#0A9E3E"/>
</linearGradient>
<linearGradient id="paint5_linear_0_4" x1="152.325" y1="131.037" x2="152.325" y2="172.708" gradientUnits="userSpaceOnUse">
<stop stop-color="white"/>
<stop offset="1" stop-color="#0A9E3E"/>
</linearGradient>
<linearGradient id="paint6_linear_0_4" x1="171.525" y1="93.3762" x2="171.525" y2="144.398" gradientUnits="userSpaceOnUse">
<stop stop-color="white"/>
<stop offset="1" stop-color="#0A9E3E"/>
</linearGradient>
<clipPath id="clip0_0_4">
<rect width="1033.38" height="201" fill="white"/>
</clipPath>
</defs>
</svg>
