<svg preserveAspectRatio="none" width="100%" height="100%" overflow="visible" style="display: block;" viewBox="0 0 1052 213" fill="none" xmlns="http://www.w3.org/2000/svg">
<g id="_&#227;&#131;&#172;&#227;&#130;&#164;&#227;&#131;&#164;&#227;&#131;&#188;_1">
<g id="Group">
<path id="Vector" d="M104.305 200.693C155.111 200.693 196.298 159.521 196.298 108.733C196.298 57.9442 155.111 16.7721 104.305 16.7721C53.4982 16.7721 12.3113 57.9442 12.3113 108.733C12.3113 159.521 53.4982 200.693 104.305 200.693Z" fill="var(--fill-0, white)"/>
<g id="Group_2">
<path id="Vector_2" d="M29.9939 146.465V158.477C35.5496 166.595 42.3975 173.754 50.242 179.696V146.465H29.9939Z" fill="var(--fill-0, #0AA3CD)"/>
<path id="Vector_3" d="M58.4926 137.424V190.693C64.8236 194.051 71.6161 196.689 78.7408 198.497V137.424H58.4926Z" fill="var(--fill-0, #0AA3CD)"/>
<path id="Vector_4" d="M90.9967 144.251V191.117C94.3191 191.486 97.6969 191.67 101.112 191.67C104.526 191.67 107.904 191.468 111.226 191.117V144.251H90.9783H90.9967Z" fill="var(--fill-0, #0AA3CD)"/>
<path id="Vector_5" d="M123.519 159.676V197.796C130.644 195.988 137.418 193.35 143.767 189.991V159.676H123.519Z" fill="var(--fill-0, #0AA3CD)"/>
<path id="Vector_6" d="M156.042 136.705V182.15C163.868 176.227 170.716 169.049 176.29 160.931V136.705H156.042Z" fill="var(--fill-0, #0AA3CD)"/>
<path id="Vector_7" d="M182.049 151.281C188.509 138.771 192.164 124.582 192.164 109.544C192.164 104.821 191.795 100.171 191.112 95.6507H182.049V151.281Z" fill="var(--fill-0, #0AA3CD)"/>
<path id="Vector_8" d="M158.552 86.8311C123.206 76.0003 85.4041 76.0003 50.0574 86.8311C48.4332 87.3293 46.6981 86.4805 46.1813 84.8937C45.8122 83.7866 45.4615 82.6796 45.1108 81.5725C44.5939 79.9857 45.5537 78.2513 47.2703 77.7347C84.4442 66.3503 124.184 66.3503 161.339 77.7347C163.056 78.2513 164.016 80.0042 163.499 81.5725C163.148 82.6796 162.779 83.7866 162.428 84.8937C161.911 86.4805 160.176 87.3293 158.552 86.8311Z" fill="var(--fill-0, #0B303F)"/>
<path id="Vector_9" d="M104.305 4.46518C46.6981 4.46518 0 51.1466 0 108.733C0 166.319 46.6981 213 104.305 213C161.911 213 208.61 166.319 208.61 108.733C208.61 51.1466 161.911 4.46518 104.305 4.46518ZM104.305 199.752C54.0259 199.752 13.2527 159.012 13.2527 108.733C13.2527 58.4532 54.0259 17.7131 104.305 17.7131C154.584 17.7131 195.357 58.4532 195.357 108.733C195.357 159.012 154.602 199.752 104.305 199.752Z" fill="var(--fill-0, #0B303F)"/>
<path id="Vector_10" d="M104.305 4.46518C46.6981 4.46518 0 51.1466 0 108.733C0 166.319 46.6981 213 104.305 213C161.911 213 208.61 166.319 208.61 108.733C208.61 51.1466 161.911 4.46518 104.305 4.46518ZM104.305 199.752C54.0259 199.752 13.2527 159.012 13.2527 108.733C13.2527 58.4532 54.0259 17.7131 104.305 17.7131C154.584 17.7131 195.357 58.4532 195.357 108.733C195.357 159.012 154.602 199.752 104.305 199.752Z" fill="var(--fill-0, #0B303F)"/>
<path id="Vector_11" d="M109.233 61.1286V190.139C109.233 192.648 107.203 194.678 104.692 194.678H104.249C101.739 194.678 99.7088 192.648 99.7088 190.139V95.3924V61.1286C99.7088 58.6193 101.739 56.5897 104.249 56.5897H104.692C107.203 56.5897 109.233 58.6193 109.233 61.1286Z" fill="var(--fill-0, #0B303F)"/>
<path id="Vector_12" d="M138.23 131.833C147.681 135.007 158.035 135.007 167.486 131.833C176.936 128.66 181.532 123.475 181.532 118.272H124.184C124.184 123.475 128.872 128.697 138.23 131.833Z" fill="var(--fill-0, #0B303F)"/>
<path id="Vector_13" d="M104.305 201.948C135.06 201.948 159.992 193.58 159.992 183.257C159.992 172.934 135.06 164.566 104.305 164.566C73.5497 164.566 48.6177 172.934 48.6177 183.257C48.6177 193.58 73.5497 201.948 104.305 201.948Z" fill="var(--fill-0, #0B303F)"/>
<path id="Vector_14" d="M117.225 60.2799C117.631 58.8776 117.687 57.2908 117.687 55.5564C117.687 54.6154 117.687 53.6006 117.687 52.5489C117.724 45.2607 111.78 39.3747 104.508 39.3747C104.508 39.3747 104.508 39.3747 104.489 39.3747C104.471 39.3747 104.489 39.3747 104.471 39.3747C97.1801 39.3747 91.2367 45.2791 91.2921 52.5489C91.2921 53.6006 91.2921 54.6154 91.2921 55.5564C91.2921 57.2908 91.329 58.8776 91.7535 60.2799C91.7535 60.3168 91.7535 60.3352 91.772 60.3721C91.772 60.409 91.7904 60.4459 91.8089 60.5013C92.8241 63.8594 95.7958 65.7414 104.471 65.7414C104.471 65.7414 104.471 65.7414 104.489 65.7414C104.508 65.7414 104.489 65.7414 104.508 65.7414C113.183 65.7414 116.155 63.8594 117.17 60.5013C117.17 60.4644 117.188 60.4275 117.207 60.3721C117.207 60.3352 117.207 60.3168 117.225 60.2799Z" fill="var(--fill-0, #0B303F)"/>
<path id="Vector_15" d="M104.471 98.9719C116.775 98.9719 126.749 89.0011 126.749 76.7014C126.749 64.4017 116.775 54.4309 104.471 54.4309C92.1668 54.4309 82.1924 64.4017 82.1924 76.7014C82.1924 89.0011 92.1668 98.9719 104.471 98.9719Z" fill="var(--fill-0, #0B303F)"/>
<path id="Vector_16" d="M123.722 167.961C112.057 167.684 115.029 155.137 104.305 155.137C93.5808 155.137 96.5525 167.684 84.8872 167.961C77.7995 168.127 93.5808 180.784 104.305 180.784C115.029 180.784 130.81 168.127 123.722 167.961Z" fill="var(--fill-0, #0B303F)"/>
<path id="Vector_17" d="M170.827 105.245H134.889C134.267 105.245 133.763 105.749 133.763 106.371V109.249C133.763 109.871 134.267 110.375 134.889 110.375H170.827C171.448 110.375 171.952 109.871 171.952 109.249V106.371C171.952 105.749 171.448 105.245 170.827 105.245Z" fill="var(--fill-0, #0B303F)"/>
<path id="Vector_18" d="M164.865 97.1084H140.833C140.354 97.1084 139.965 97.4966 139.965 97.9756V101.371C139.965 101.85 140.354 102.238 140.833 102.238H164.865C165.344 102.238 165.732 101.85 165.732 101.371V97.9756C165.732 97.4966 165.344 97.1084 164.865 97.1084Z" fill="var(--fill-0, #0B303F)"/>
<path id="Vector_19" d="M41.0316 131.833C50.482 135.007 60.8368 135.007 70.2871 131.833C79.7375 128.66 84.3335 123.475 84.3335 118.272H26.9668C26.9668 123.475 31.6551 128.697 41.0131 131.833H41.0316Z" fill="var(--fill-0, #0B303F)"/>
<path id="Vector_20" d="M73.6095 105.245H37.6723C37.0505 105.245 36.5464 105.749 36.5464 106.371V109.249C36.5464 109.871 37.0505 110.375 37.6723 110.375H73.6095C74.2314 110.375 74.7355 109.871 74.7355 109.249V106.371C74.7355 105.749 74.2314 105.245 73.6095 105.245Z" fill="var(--fill-0, #0B303F)"/>
<path id="Vector_21" d="M67.6661 97.1084H43.6341C43.155 97.1084 42.7666 97.4966 42.7666 97.9756V101.371C42.7666 101.85 43.155 102.238 43.6341 102.238H67.6661C68.1453 102.238 68.5337 101.85 68.5337 101.371V97.9756C68.5337 97.4966 68.1453 97.1084 67.6661 97.1084Z" fill="var(--fill-0, #0B303F)"/>
</g>
<g id="Group_3" filter="url(#filter0_i_0_4)">
<g id="Vector_22">
</g>
<g id="Vector_23">
</g>
<g id="Vector_24">
</g>
<path id="Vector_25" d="M402.268 137.11C400.238 139.398 397.949 141.41 395.365 143.144C392.781 144.878 390.031 146.225 387.115 147.222C384.198 148.218 381.282 148.716 378.403 148.716C375.062 148.716 372.127 147.738 369.598 145.782C367.069 143.827 364.984 141.188 363.341 137.885C361.68 134.564 360.498 130.726 359.797 126.372C359.225 122.829 358.985 119.139 359.096 115.301C359.133 113.788 360.425 112.607 361.938 112.607H416.887C418.419 112.607 419.656 111.39 419.729 109.858C419.914 105.725 419.416 101.795 418.234 98.0678C416.776 93.5288 414.451 89.5988 411.239 86.2591C408.027 82.9194 404.022 80.2809 399.204 78.362C394.387 76.4431 388.942 75.4652 382.888 75.4652C376.095 75.4652 369.783 76.6645 363.969 79.0816C358.154 81.4987 353.023 84.8384 348.556 89.1559C344.09 93.455 340.435 98.5476 337.592 104.415C334.75 110.282 332.941 116.63 332.129 123.494C331.464 129.213 332 134.638 333.753 139.767C335.507 144.897 338.165 149.399 341.745 153.274C345.308 157.148 349.682 160.248 354.869 162.536C360.037 164.824 365.722 165.986 371.887 165.986C376.704 165.986 381.577 165.101 386.487 163.311C391.397 161.521 396.03 159.086 400.386 155.968C404.742 152.849 408.655 149.233 412.106 145.081C414.69 141.982 416.85 138.734 418.567 135.302C419.434 133.586 418.364 131.538 416.462 131.225L409.061 130.025C407.88 129.841 406.68 130.413 406.126 131.483C405.111 133.476 403.819 135.358 402.25 137.129L402.268 137.11ZM363.101 96.4995C364.227 94.3776 365.519 92.5694 366.959 91.0564C368.417 89.5618 369.967 88.3994 371.665 87.5691C373.345 86.7388 375.006 86.3329 376.649 86.3329C378.753 86.3329 380.654 86.7388 382.371 87.5691C384.088 88.3994 385.546 89.5618 386.727 91.0933C387.908 92.6247 388.813 94.4514 389.44 96.5733C389.791 97.7911 390.049 99.0642 390.179 100.411C390.345 102.109 389.053 103.585 387.355 103.585H364.301C362.381 103.585 360.96 101.684 361.606 99.876C362.03 98.6952 362.529 97.5512 363.101 96.4995Z" fill="var(--fill-0, #0B303F)"/>
<path id="Vector_26" d="M517.076 83.1962C514.935 80.816 512.35 78.934 509.323 77.5502C506.278 76.1663 502.974 75.4652 499.412 75.4652C494.816 75.4652 490.127 76.1663 485.31 77.5502C482.19 78.4543 479.163 79.672 476.21 81.2219C474.217 82.2736 471.873 80.613 472.131 78.362C472.334 76.683 471.005 75.2069 469.325 75.2069H465.265C464.84 75.2069 464.397 75.2991 464.01 75.5021L446.235 84.211C445.367 84.6354 444.777 85.4657 444.666 86.4252L440.79 119.693C440.734 120.209 441.307 120.504 441.731 120.154C451.624 112.349 464.988 103.271 467.553 101.444C469.325 100.171 473.921 97.0715 474.549 96.6655C474.66 96.5917 474.752 96.5179 474.863 96.4441C476.709 95.2633 478.481 94.2484 480.197 93.4366C480.455 93.3074 480.714 93.2152 480.972 93.086C485.919 90.7427 488.079 90.8719 488.079 90.8719L488.023 90.9272C488.355 90.8903 488.725 90.835 489.02 90.835C490.146 90.835 491.216 91.1302 492.195 91.7206C493.173 92.3111 494.003 93.1967 494.686 94.3591C495.369 95.5216 495.849 96.9608 496.145 98.6952C496.421 100.43 496.44 102.385 496.182 104.6L489.611 160.839C489.408 162.518 490.736 163.994 492.416 163.994H512.978C514.418 163.994 515.618 162.924 515.784 161.484L522.761 101.795C523.185 98.1785 522.871 94.7651 521.838 91.5546C520.786 88.3625 519.217 85.558 517.076 83.1778V83.1962Z" fill="var(--fill-0, #0B303F)"/>
<path id="Vector_27" d="M438.778 164.012H459.598C461.038 164.012 462.238 162.942 462.404 161.503L467.738 115.744C467.812 115.061 467.074 114.692 466.501 115.117L439.811 134.38C439.276 134.767 438.944 135.339 438.87 135.948L435.954 160.857C435.751 162.536 437.08 164.012 438.759 164.012H438.778Z" fill="var(--fill-0, #0B303F)"/>
<path id="Vector_28" d="M462.773 157.001H460.097L459.284 164.012H462.625C464.065 164.012 465.265 162.942 465.431 161.503L465.579 160.156C465.782 158.477 464.453 157.001 462.773 157.001Z" fill="var(--fill-0, #0B303F)"/>
<path id="Vector_29" d="M480.954 93.1045C482.375 92.4587 483.741 91.9236 485.033 91.5361C486.14 91.204 487.119 91.0379 488.023 90.9457L488.079 90.8903C488.079 90.8903 485.919 90.7612 480.972 93.1045H480.954Z" fill="var(--fill-0, #0B303F)"/>
<path id="Vector_30" d="M628.727 86.9787C625.792 83.4361 622.156 80.6315 617.8 78.565C613.444 76.4984 608.552 75.4652 603.107 75.4652C599.36 75.4652 595.41 76.1663 591.22 77.5871C588.747 78.4174 586.366 79.3953 584.077 80.5023C582.084 81.4618 579.814 79.8012 580.072 77.6055L584.963 35.7952C585.166 34.1162 583.837 32.6401 582.158 32.6401H578.097C577.673 32.6401 577.229 32.7323 576.842 32.9353L559.067 41.6442C558.2 42.0686 557.609 42.8989 557.498 43.8584L544.799 152.554C544.688 153.495 545.039 154.455 545.777 155.063C550.023 158.588 554.933 161.189 560.47 162.868C566.524 164.713 572.966 165.636 579.832 165.636C584.483 165.636 589.006 165.009 593.435 163.772C597.865 162.518 602.074 160.783 606.079 158.551C610.084 156.318 613.794 153.606 617.227 150.432C620.661 147.259 623.688 143.771 626.309 139.989C628.93 136.188 631.089 132.129 632.787 127.793C634.485 123.457 635.593 118.973 636.147 114.323C636.756 109.046 636.405 104.064 635.095 99.3594C633.766 94.6544 631.643 90.5398 628.708 86.9971L628.727 86.9787ZM605.248 133.217C603.809 137.498 602.055 141.207 599.951 144.343C597.847 147.48 595.503 149.952 592.882 151.742C590.261 153.532 587.474 154.418 584.539 154.418C583.062 154.418 581.715 154.252 580.515 153.901C579.315 153.569 578.208 153.108 577.193 152.536C576.177 151.964 575.236 151.318 574.369 150.58C573.852 150.155 573.353 149.713 572.873 149.27C572.209 148.661 571.895 147.757 572.006 146.871L577.34 101.131C577.414 100.466 577.709 99.8391 578.189 99.3963C580.201 97.5143 582.453 95.9275 584.982 94.6359C587.806 93.1967 590.445 92.4771 592.882 92.4771C595.318 92.4771 597.755 93.1783 599.859 94.599C601.963 96.0198 603.698 97.9571 605.082 100.43C606.467 102.902 607.445 105.762 608.036 109.009C608.626 112.275 608.7 115.744 608.257 119.416C607.685 124.342 606.67 128.955 605.248 133.217Z" fill="var(--fill-0, #0B303F)"/>
<path id="Vector_31" d="M675.942 37.1053C673.062 40.8508 669.371 43.9322 665.052 46.5153C663.317 47.5486 663.261 49.9841 664.867 51.2019C668.116 53.6375 670.866 56.8111 673.081 60.7781C674.041 62.494 676.44 62.6601 677.695 61.1471C681.073 57.1432 684.728 53.7297 688.733 51.0728C690.394 49.9657 690.357 47.5301 688.733 46.3862C685.3 43.9875 682.605 41.0353 680.685 37.5296C679.689 35.703 677.197 35.4815 675.942 37.1421V37.1053Z" fill="var(--fill-0, #0B303F)"/>
<path id="Vector_32" d="M781.446 83.1962C779.305 80.816 776.721 78.934 773.694 77.5502C770.648 76.1663 767.344 75.4652 763.782 75.4652C759.186 75.4652 754.498 76.1663 749.68 77.5502C746.561 78.4543 743.534 79.672 740.581 81.2219C738.587 82.2736 736.243 80.613 736.501 78.362C736.705 76.683 735.376 75.2069 733.696 75.2069H729.635C729.211 75.2069 728.768 75.2991 728.38 75.5021L710.605 84.211C709.738 84.6354 709.147 85.4657 709.036 86.4252L705.16 119.693C705.105 120.209 705.677 120.504 706.102 120.154C715.995 112.349 729.358 103.271 731.924 101.444C733.696 100.171 738.292 97.0715 738.919 96.6655C739.03 96.5917 739.122 96.5179 739.233 96.4441C741.079 95.2633 742.851 94.2484 744.568 93.4366C744.826 93.3074 745.084 93.2152 745.343 93.086C750.289 90.7427 752.449 90.8719 752.449 90.8719L752.394 90.9272C752.726 90.8903 753.095 90.835 753.39 90.835C754.516 90.835 755.587 91.1302 756.565 91.7206C757.543 92.3111 758.374 93.1967 759.057 94.3591C759.74 95.5216 760.22 96.9608 760.515 98.6952C760.792 100.43 760.81 102.385 760.552 104.6L753.981 160.839C753.778 162.518 755.107 163.994 756.787 163.994H777.348C778.788 163.994 779.988 162.924 780.154 161.484L787.131 101.795C787.556 98.1785 787.242 94.7651 786.208 91.5546C785.156 88.3625 783.587 85.558 781.446 83.1778V83.1962Z" fill="var(--fill-0, #0B303F)"/>
<path id="Vector_33" d="M703.148 164.012H723.969C725.408 164.012 726.608 162.942 726.774 161.503L732.109 115.744C732.182 115.061 731.444 114.692 730.872 115.117L704.182 134.38C703.647 134.767 703.314 135.339 703.241 135.948L700.324 160.857C700.121 162.536 701.45 164.012 703.13 164.012H703.148Z" fill="var(--fill-0, #0B303F)"/>
<path id="Vector_34" d="M659.219 86.4252L650.525 160.839C650.322 162.518 651.651 163.994 653.331 163.994H674.059C675.499 163.994 676.698 162.924 676.864 161.484L686.573 78.3436C686.776 76.6645 685.447 75.1884 683.768 75.1884H679.707C679.264 75.1884 678.839 75.2807 678.452 75.4836L660.769 84.1926C659.902 84.6169 659.311 85.4472 659.2 86.4067L659.219 86.4252Z" fill="var(--fill-0, #0B303F)"/>
<path id="Vector_35" d="M727.383 157.001H724.707L723.895 164.012H727.236C728.675 164.012 729.875 162.942 730.041 161.503L730.189 160.156C730.392 158.477 729.063 157.001 727.383 157.001Z" fill="var(--fill-0, #0B303F)"/>
</g>
<g id="Vector_36" filter="url(#filter1_i_0_4)">
<path d="M368.528 15.4252L366.11 36.1642C365.999 37.1421 365.168 37.8802 364.172 37.8802H314.797C313.8 37.8802 312.97 38.6182 312.859 39.5961L298.314 164.234C298.204 165.212 297.373 165.95 296.376 165.95H262.894C261.731 165.95 260.827 164.935 260.956 163.772L275.353 40.5372C275.482 39.3747 274.578 38.3599 273.415 38.3599H224.834C223.671 38.3599 222.767 37.3451 222.896 36.1827L225.369 14.9639C225.48 13.986 226.311 13.2479 227.307 13.2479H366.571C367.734 13.2479 368.638 14.2627 368.509 15.4252H368.528Z" fill="var(--fill-0, #0B303F)"/>
</g>
<path id="Vector_37" d="M972.41 204.217L219.241 210.583C216.676 210.583 216.546 209.439 218.964 208.018L232.032 200.379C234.45 198.959 238.493 197.815 241.058 197.815H993.489C996.055 197.815 996.184 198.959 993.766 200.379L980.698 208.018C978.28 209.439 974.976 204.199 972.41 204.199V204.217Z" fill="var(--fill-0, #0B303F)"/>
<path id="Vector_38" d="M1011.06 197.833H1005.08V203.811H1011.06V197.833Z" fill="var(--fill-0, #0B303F)"/>
<path id="Vector_39" d="M1023.02 197.833H1017.04V203.811H1023.02V197.833Z" fill="var(--fill-0, #0B303F)"/>
<g id="Group_4">
<g id="Vector_40">
</g>
<g id="Vector_41">
</g>
<path id="Vector_42" d="M900.757 3.69023L807.527 160.506H833.146L845.236 140.284L845.162 140.247L853.598 126.298L858.212 118.585H858.267L871.409 96.8685L896.272 54.6707L913.271 104.304H877.869L869.231 118.585H917.941L932.32 160.506H970.86L917.074 3.69023H900.757Z" fill="var(--fill-0, #0B303F)" stroke="var(--stroke-0, #0B303F)" stroke-width="4"/>
<path id="Vector_43" d="M1010.21 6.86383L992.271 160.506H1029.91L1047.85 6.86383H1010.21Z" fill="var(--fill-0, #0B303F)" stroke="var(--stroke-0, #0B303F)" stroke-width="4"/>
<path id="Vector_44" d="M845.162 140.247L845.236 140.284L853.598 126.298L845.162 140.247Z" fill="var(--fill-0, #0B303F)" stroke="var(--stroke-0, #0B303F)"/>
</g>
</g>
<path id="Vector_45" d="M102.696 64.3616L92.9206 74.1337C92.0412 75.0128 92.0412 76.4381 92.9206 77.3172L102.696 87.0893C103.576 87.9684 105.001 87.9684 105.881 87.0893L115.656 77.3172C116.536 76.4381 116.536 75.0128 115.656 74.1337L105.881 64.3616C105.001 63.4825 103.576 63.4825 102.696 64.3616Z" fill="var(--fill-0, white)"/>
<g id="Group_5">
<path id="Vector_46" d="M96.9217 192.316H87.7666L85.9209 196.892H80.1067L89.8893 172.647H95.0205L104.582 196.892H98.7675L96.9401 192.316H96.9217ZM95.4082 188.036L92.418 179.899L89.3909 188.036H95.3897H95.4082Z" fill="var(--fill-0, #0B303F)"/>
<path id="Vector_47" d="M116.635 172.666V196.911H111.042V172.666H116.635Z" fill="var(--fill-0, #0B303F)"/>
</g>
</g>
<defs>
<filter id="filter0_i_0_4" x="331.853" y="32.6401" width="455.461" height="137.346" filterUnits="userSpaceOnUse" color-interpolation-filters="sRGB">
<feFlood flood-opacity="0" result="BackgroundImageFix"/>
<feBlend mode="normal" in="SourceGraphic" in2="BackgroundImageFix" result="shape"/>
<feColorMatrix in="SourceAlpha" type="matrix" values="0 0 0 0 0 0 0 0 0 0 0 0 0 0 0 0 0 0 127 0" result="hardAlpha"/>
<feOffset dy="4"/>
<feGaussianBlur stdDeviation="2"/>
<feComposite in2="hardAlpha" operator="arithmetic" k2="-1" k3="1"/>
<feColorMatrix type="matrix" values="0 0 0 0 0 0 0 0 0 0 0 0 0 0 0 0 0 0 0.25 0"/>
<feBlend mode="normal" in2="shape" result="effect1_innerShadow_0_4"/>
</filter>
<filter id="filter1_i_0_4" x="222.884" y="13.2479" width="145.644" height="156.702" filterUnits="userSpaceOnUse" color-interpolation-filters="sRGB">
<feFlood flood-opacity="0" result="BackgroundImageFix"/>
<feBlend mode="normal" in="SourceGraphic" in2="BackgroundImageFix" result="shape"/>
<feColorMatrix in="SourceAlpha" type="matrix" values="0 0 0 0 0 0 0 0 0 0 0 0 0 0 0 0 0 0 127 0" result="hardAlpha"/>
<feOffset dy="4"/>
<feGaussianBlur stdDeviation="2"/>
<feComposite in2="hardAlpha" operator="arithmetic" k2="-1" k3="1"/>
<feColorMatrix type="matrix" values="0 0 0 0 0 0 0 0 0 0 0 0 0 0 0 0 0 0 0.25 0"/>
<feBlend mode="normal" in2="shape" result="effect1_innerShadow_0_4"/>
</filter>
</defs>
</svg>
