<svg preserveAspectRatio="none" width="100%" height="100%" overflow="visible" style="display: block;" viewBox="0 0 912 912.5" fill="none" xmlns="http://www.w3.org/2000/svg">
<g id="Group">
<path id="Vector" d="M456 911C707.29 911 911 707.29 911 456C911 204.71 707.29 1 456 1C204.71 1 1 204.71 1 456C1 707.29 204.71 911 456 911Z" stroke="var(--stroke-0, #2563EB)" stroke-width="2" stroke-linecap="round" stroke-linejoin="round"/>
<path id="Vector_2" d="M456 838C666.973 838 838 666.973 838 456C838 245.027 666.973 74 456 74C245.027 74 74 245.027 74 456C74 666.973 245.027 838 456 838Z" stroke="var(--stroke-0, #2563EB)" stroke-width="3" stroke-linecap="round" stroke-linejoin="round"/>
<path id="Vector_3" d="M163.37 701.54C105.643 632.743 74.0009 545.807 74 456" stroke="var(--stroke-0, #2563EB)" stroke-width="4" stroke-linecap="round" stroke-linejoin="round"/>
<path id="Vector_4" d="M163.371 210.46C206.474 159.092 262.339 119.974 325.351 97.04" stroke="var(--stroke-0, #2563EB)" stroke-width="4" stroke-linecap="round" stroke-linejoin="round"/>
<path id="Vector_5" d="M586.648 97.04C671.041 127.756 741.913 187.224 786.818 265" stroke="var(--stroke-0, #2563EB)" stroke-width="4" stroke-linecap="round" stroke-linejoin="round"/>
<path id="Vector_6" d="M231.472 146.96L192.262 152.61L214.072 134.95" stroke="var(--stroke-0, #2563EB)" stroke-width="4" stroke-linecap="round" stroke-linejoin="round"/>
<path id="Vector_7" d="M456 838V911" stroke="var(--stroke-0, #2563EB)" stroke-width="3" stroke-linecap="round" stroke-linejoin="round"/>
<path id="Vector_8" d="M91 456H54" stroke="var(--stroke-0, #2563EB)" stroke-width="4" stroke-linecap="round" stroke-linejoin="round"/>
<path id="Vector_9" d="M821 456H858" stroke="var(--stroke-0, #2563EB)" stroke-width="4" stroke-linecap="round" stroke-linejoin="round"/>
<path id="Vector_10" d="M456 790C640.463 790 790 640.463 790 456C790 271.537 640.463 122 456 122C271.537 122 122 271.537 122 456C122 640.463 271.537 790 456 790Z" stroke="var(--stroke-0, #2563EB)" stroke-width="7" stroke-linecap="round" stroke-linejoin="round"/>
<path id="Vector_11" d="M456 756C621.685 756 756 621.685 756 456C756 290.315 621.685 156 456 156C290.315 156 156 290.315 156 456C156 621.685 290.315 756 456 756Z" stroke="var(--stroke-0, #2563EB)" stroke-width="4" stroke-linecap="round" stroke-linejoin="round"/>
<path id="Vector_12" d="M456 748C617.267 748 748 617.267 748 456C748 294.733 617.267 164 456 164C294.733 164 164 294.733 164 456C164 617.267 294.733 748 456 748Z" stroke="var(--stroke-0, #2563EB)" stroke-width="4" stroke-linecap="round" stroke-linejoin="round"/>
<path id="Vector_13" d="M456 688C584.13 688 688 584.13 688 456C688 327.87 584.13 224 456 224C327.87 224 224 327.87 224 456C224 584.13 327.87 688 456 688Z" stroke="var(--stroke-0, #2563EB)" stroke-width="4" stroke-linecap="round" stroke-linejoin="round"/>
<path id="Vector_14" d="M462.539 156.07C489.629 156.662 516.513 160.92 542.459 168.73L552.259 136.17C523.375 127.477 493.446 122.738 463.289 122.08L462.539 156.07Z" stroke="var(--stroke-0, #2563EB)" stroke-width="4" stroke-linecap="round" stroke-linejoin="round"/>
<path id="Vector_15" d="M554.91 172.77C580.489 181.705 604.739 194.064 627 209.51L646.38 181.57C621.596 164.375 594.597 150.617 566.12 140.67L554.91 172.77Z" stroke="var(--stroke-0, #2563EB)" stroke-width="4" stroke-linecap="round" stroke-linejoin="round"/>
<path id="Vector_16" d="M637.59 217.2C659.156 233.599 678.401 252.844 694.8 274.41L721.86 253.83C703.603 229.822 682.178 208.397 658.17 190.14L637.59 217.2Z" stroke="var(--stroke-0, #2563EB)" stroke-width="4" stroke-linecap="round" stroke-linejoin="round"/>
<path id="Vector_17" d="M702.488 285C717.934 307.261 730.293 331.511 739.228 357.09L771.328 345.88C761.382 317.403 747.623 290.404 730.428 265.62L702.488 285Z" stroke="var(--stroke-0, #2563EB)" stroke-width="4" stroke-linecap="round" stroke-linejoin="round"/>
<path id="Vector_18" d="M743.27 369.54C751.079 395.486 755.338 422.371 755.93 449.46L789.92 448.71C789.262 418.553 784.522 388.624 775.829 359.74L743.27 369.54Z" stroke="var(--stroke-0, #2563EB)" stroke-width="4" stroke-linecap="round" stroke-linejoin="round"/>
<path id="Vector_19" d="M755.93 462.54C755.338 489.63 751.079 516.514 743.27 542.46L775.829 552.26C784.522 523.376 789.262 493.447 789.92 463.29L755.93 462.54Z" stroke="var(--stroke-0, #2563EB)" stroke-width="4" stroke-linecap="round" stroke-linejoin="round"/>
<path id="Vector_20" d="M739.228 554.91C730.293 580.489 717.934 604.739 702.488 627L730.428 646.38C747.623 621.596 761.382 594.597 771.328 566.12L739.228 554.91Z" stroke="var(--stroke-0, #2563EB)" stroke-width="4" stroke-linecap="round" stroke-linejoin="round"/>
<path id="Vector_21" d="M694.8 637.59C678.401 659.156 659.156 678.401 637.59 694.8L658.17 721.86C682.178 703.603 703.603 682.178 721.86 658.17L694.8 637.59Z" stroke="var(--stroke-0, #2563EB)" stroke-width="4" stroke-linecap="round" stroke-linejoin="round"/>
<path id="Vector_22" d="M627 702.49C604.739 717.936 580.489 730.295 554.91 739.23L566.12 771.33C594.597 761.383 621.596 747.625 646.38 730.43L627 702.49Z" stroke="var(--stroke-0, #2563EB)" stroke-width="4" stroke-linecap="round" stroke-linejoin="round"/>
<path id="Vector_23" d="M542.459 743.27C516.513 751.08 489.629 755.339 462.539 755.93L463.289 789.92C493.446 789.262 523.375 784.523 552.259 775.83L542.459 743.27Z" stroke="var(--stroke-0, #2563EB)" stroke-width="4" stroke-linecap="round" stroke-linejoin="round"/>
<path id="Vector_24" d="M449.458 755.93C422.369 755.339 395.484 751.08 369.538 743.27L359.738 775.83C388.623 784.523 418.551 789.262 448.708 789.92L449.458 755.93Z" stroke="var(--stroke-0, #2563EB)" stroke-width="4" stroke-linecap="round" stroke-linejoin="round"/>
<path id="Vector_25" d="M357.091 739.23C331.512 730.295 307.262 717.936 285.001 702.49L265.621 730.43C290.405 747.625 317.404 761.383 345.881 771.33L357.091 739.23Z" stroke="var(--stroke-0, #2563EB)" stroke-width="4" stroke-linecap="round" stroke-linejoin="round"/>
<path id="Vector_26" d="M274.411 694.8C252.845 678.401 233.6 659.156 217.201 637.59L190.141 658.17C208.398 682.178 229.822 703.603 253.831 721.86L274.411 694.8Z" stroke="var(--stroke-0, #2563EB)" stroke-width="4" stroke-linecap="round" stroke-linejoin="round"/>
<path id="Vector_27" d="M209.512 627C194.066 604.739 181.707 580.489 172.772 554.91L140.672 566.12C150.618 594.597 164.377 621.596 181.572 646.38L209.512 627Z" stroke="var(--stroke-0, #2563EB)" stroke-width="4" stroke-linecap="round" stroke-linejoin="round"/>
<path id="Vector_28" d="M168.728 542.46C160.918 516.514 156.66 489.63 156.068 462.54L122.078 463.29C122.736 493.447 127.476 523.376 136.168 552.26L168.728 542.46Z" stroke="var(--stroke-0, #2563EB)" stroke-width="4" stroke-linecap="round" stroke-linejoin="round"/>
<path id="Vector_29" d="M156.068 449.46C156.66 422.371 160.918 395.486 168.728 369.54L136.168 359.74C127.476 388.624 122.736 418.553 122.078 448.71L156.068 449.46Z" stroke="var(--stroke-0, #2563EB)" stroke-width="4" stroke-linecap="round" stroke-linejoin="round"/>
<path id="Vector_30" d="M172.772 357.09C181.707 331.511 194.066 307.261 209.512 285L181.572 265.62C164.377 290.404 150.618 317.403 140.672 345.88L172.772 357.09Z" stroke="var(--stroke-0, #2563EB)" stroke-width="4" stroke-linecap="round" stroke-linejoin="round"/>
<path id="Vector_31" d="M217.201 274.41C233.6 252.844 252.845 233.599 274.411 217.2L253.831 190.14C229.822 208.397 208.398 229.822 190.141 253.83L217.201 274.41Z" stroke="var(--stroke-0, #2563EB)" stroke-width="4" stroke-linecap="round" stroke-linejoin="round"/>
<path id="Vector_32" d="M285.001 209.51C307.262 194.064 331.512 181.705 357.091 172.77L345.881 140.67C317.404 150.616 290.405 164.375 265.621 181.57L285.001 209.51Z" stroke="var(--stroke-0, #2563EB)" stroke-width="4" stroke-linecap="round" stroke-linejoin="round"/>
<path id="Vector_33" d="M369.538 168.73C395.484 160.92 422.369 156.662 449.458 156.07L448.708 122.08C418.551 122.738 388.623 127.477 359.738 136.17L369.538 168.73Z" stroke="var(--stroke-0, #2563EB)" stroke-width="4" stroke-linecap="round" stroke-linejoin="round"/>
<path id="Vector_34" d="M456 208V177" stroke="var(--stroke-0, #2563EB)" stroke-width="6" stroke-linecap="round" stroke-linejoin="round"/>
<path id="Vector_35" d="M472.219 208.53L473.329 191.57" stroke="var(--stroke-0, #2563EB)" stroke-width="4" stroke-linecap="round" stroke-linejoin="round"/>
<path id="Vector_36" d="M488.371 210.12L490.591 193.27" stroke="var(--stroke-0, #2563EB)" stroke-width="4" stroke-linecap="round" stroke-linejoin="round"/>
<path id="Vector_37" d="M504.379 212.77L507.699 196.09" stroke="var(--stroke-0, #2563EB)" stroke-width="4" stroke-linecap="round" stroke-linejoin="round"/>
<path id="Vector_38" d="M520.191 216.45L524.591 200.03" stroke="var(--stroke-0, #2563EB)" stroke-width="4" stroke-linecap="round" stroke-linejoin="round"/>
<path id="Vector_39" d="M535.719 221.16L541.179 205.06" stroke="var(--stroke-0, #2563EB)" stroke-width="4" stroke-linecap="round" stroke-linejoin="round"/>
<path id="Vector_40" d="M550.91 226.88L557.41 211.17" stroke="var(--stroke-0, #2563EB)" stroke-width="4" stroke-linecap="round" stroke-linejoin="round"/>
<path id="Vector_41" d="M565.691 233.58L573.211 218.33" stroke="var(--stroke-0, #2563EB)" stroke-width="4" stroke-linecap="round" stroke-linejoin="round"/>
<path id="Vector_42" d="M580 241.23L588.5 226.5" stroke="var(--stroke-0, #2563EB)" stroke-width="4" stroke-linecap="round" stroke-linejoin="round"/>
<path id="Vector_43" d="M593.781 249.8L603.231 235.66" stroke="var(--stroke-0, #2563EB)" stroke-width="4" stroke-linecap="round" stroke-linejoin="round"/>
<path id="Vector_44" d="M606.969 259.25L617.319 245.76" stroke="var(--stroke-0, #2563EB)" stroke-width="4" stroke-linecap="round" stroke-linejoin="round"/>
<path id="Vector_45" d="M619.52 269.54L630.729 256.76" stroke="var(--stroke-0, #2563EB)" stroke-width="4" stroke-linecap="round" stroke-linejoin="round"/>
<path id="Vector_46" d="M631.359 280.64L653.279 258.72" stroke="var(--stroke-0, #2563EB)" stroke-width="6" stroke-linecap="round" stroke-linejoin="round"/>
<path id="Vector_47" d="M642.461 292.48L655.241 281.27" stroke="var(--stroke-0, #2563EB)" stroke-width="4" stroke-linecap="round" stroke-linejoin="round"/>
<path id="Vector_48" d="M652.75 305.03L666.24 294.68" stroke="var(--stroke-0, #2563EB)" stroke-width="4" stroke-linecap="round" stroke-linejoin="round"/>
<path id="Vector_49" d="M662.199 318.22L676.339 308.77" stroke="var(--stroke-0, #2563EB)" stroke-width="4" stroke-linecap="round" stroke-linejoin="round"/>
<path id="Vector_50" d="M670.77 332L685.5 323.5" stroke="var(--stroke-0, #2563EB)" stroke-width="4" stroke-linecap="round" stroke-linejoin="round"/>
<path id="Vector_51" d="M678.422 346.31L693.672 338.79" stroke="var(--stroke-0, #2563EB)" stroke-width="4" stroke-linecap="round" stroke-linejoin="round"/>
<path id="Vector_52" d="M685.121 361.09L700.831 354.59" stroke="var(--stroke-0, #2563EB)" stroke-width="4" stroke-linecap="round" stroke-linejoin="round"/>
<path id="Vector_53" d="M690.84 376.28L706.94 370.82" stroke="var(--stroke-0, #2563EB)" stroke-width="4" stroke-linecap="round" stroke-linejoin="round"/>
<path id="Vector_54" d="M695.551 391.81L711.971 387.41" stroke="var(--stroke-0, #2563EB)" stroke-width="4" stroke-linecap="round" stroke-linejoin="round"/>
<path id="Vector_55" d="M699.23 407.62L715.911 404.3" stroke="var(--stroke-0, #2563EB)" stroke-width="4" stroke-linecap="round" stroke-linejoin="round"/>
<path id="Vector_56" d="M701.879 423.63L718.729 421.41" stroke="var(--stroke-0, #2563EB)" stroke-width="4" stroke-linecap="round" stroke-linejoin="round"/>
<path id="Vector_57" d="M703.469 439.78L720.429 438.67" stroke="var(--stroke-0, #2563EB)" stroke-width="4" stroke-linecap="round" stroke-linejoin="round"/>
<path id="Vector_58" d="M704 456H735" stroke="var(--stroke-0, #2563EB)" stroke-width="6" stroke-linecap="round" stroke-linejoin="round"/>
<path id="Vector_59" d="M703.469 472.22L720.429 473.33" stroke="var(--stroke-0, #2563EB)" stroke-width="4" stroke-linecap="round" stroke-linejoin="round"/>
<path id="Vector_60" d="M701.879 488.37L718.729 490.59" stroke="var(--stroke-0, #2563EB)" stroke-width="4" stroke-linecap="round" stroke-linejoin="round"/>
<path id="Vector_61" d="M699.23 504.38L715.911 507.7" stroke="var(--stroke-0, #2563EB)" stroke-width="4" stroke-linecap="round" stroke-linejoin="round"/>
<path id="Vector_62" d="M695.551 520.19L711.971 524.59" stroke="var(--stroke-0, #2563EB)" stroke-width="4" stroke-linecap="round" stroke-linejoin="round"/>
<path id="Vector_63" d="M690.84 535.72L706.94 541.18" stroke="var(--stroke-0, #2563EB)" stroke-width="4" stroke-linecap="round" stroke-linejoin="round"/>
<path id="Vector_64" d="M685.121 550.91L700.831 557.41" stroke="var(--stroke-0, #2563EB)" stroke-width="4" stroke-linecap="round" stroke-linejoin="round"/>
<path id="Vector_65" d="M678.422 565.69L693.672 573.21" stroke="var(--stroke-0, #2563EB)" stroke-width="4" stroke-linecap="round" stroke-linejoin="round"/>
<path id="Vector_66" d="M670.77 580L685.5 588.5" stroke="var(--stroke-0, #2563EB)" stroke-width="4" stroke-linecap="round" stroke-linejoin="round"/>
<path id="Vector_67" d="M662.199 593.78L676.339 603.23" stroke="var(--stroke-0, #2563EB)" stroke-width="4" stroke-linecap="round" stroke-linejoin="round"/>
<path id="Vector_68" d="M652.75 606.97L666.24 617.32" stroke="var(--stroke-0, #2563EB)" stroke-width="4" stroke-linecap="round" stroke-linejoin="round"/>
<path id="Vector_69" d="M642.461 619.52L655.241 630.73" stroke="var(--stroke-0, #2563EB)" stroke-width="4" stroke-linecap="round" stroke-linejoin="round"/>
<path id="Vector_70" d="M631.359 631.36L653.279 653.28" stroke="var(--stroke-0, #2563EB)" stroke-width="6" stroke-linecap="round" stroke-linejoin="round"/>
<path id="Vector_71" d="M619.52 642.46L630.729 655.24" stroke="var(--stroke-0, #2563EB)" stroke-width="4" stroke-linecap="round" stroke-linejoin="round"/>
<path id="Vector_72" d="M606.969 652.75L617.319 666.24" stroke="var(--stroke-0, #2563EB)" stroke-width="4" stroke-linecap="round" stroke-linejoin="round"/>
<path id="Vector_73" d="M593.781 662.2L603.231 676.34" stroke="var(--stroke-0, #2563EB)" stroke-width="4" stroke-linecap="round" stroke-linejoin="round"/>
<path id="Vector_74" d="M580 670.77L588.5 685.5" stroke="var(--stroke-0, #2563EB)" stroke-width="4" stroke-linecap="round" stroke-linejoin="round"/>
<path id="Vector_75" d="M565.691 678.42L573.211 693.67" stroke="var(--stroke-0, #2563EB)" stroke-width="4" stroke-linecap="round" stroke-linejoin="round"/>
<path id="Vector_76" d="M550.91 685.12L557.41 700.83" stroke="var(--stroke-0, #2563EB)" stroke-width="4" stroke-linecap="round" stroke-linejoin="round"/>
<path id="Vector_77" d="M535.719 690.84L541.179 706.94" stroke="var(--stroke-0, #2563EB)" stroke-width="4" stroke-linecap="round" stroke-linejoin="round"/>
<path id="Vector_78" d="M520.191 695.55L524.591 711.97" stroke="var(--stroke-0, #2563EB)" stroke-width="4" stroke-linecap="round" stroke-linejoin="round"/>
<path id="Vector_79" d="M504.379 699.23L507.699 715.91" stroke="var(--stroke-0, #2563EB)" stroke-width="4" stroke-linecap="round" stroke-linejoin="round"/>
<path id="Vector_80" d="M488.371 701.88L490.591 718.73" stroke="var(--stroke-0, #2563EB)" stroke-width="4" stroke-linecap="round" stroke-linejoin="round"/>
<path id="Vector_81" d="M472.219 703.47L473.329 720.43" stroke="var(--stroke-0, #2563EB)" stroke-width="4" stroke-linecap="round" stroke-linejoin="round"/>
<path id="Vector_82" d="M456 704V735" stroke="var(--stroke-0, #2563EB)" stroke-width="6" stroke-linecap="round" stroke-linejoin="round"/>
<path id="Vector_83" d="M439.782 703.47L438.672 720.43" stroke="var(--stroke-0, #2563EB)" stroke-width="4" stroke-linecap="round" stroke-linejoin="round"/>
<path id="Vector_84" d="M423.63 701.88L421.41 718.73" stroke="var(--stroke-0, #2563EB)" stroke-width="4" stroke-linecap="round" stroke-linejoin="round"/>
<path id="Vector_85" d="M407.621 699.23L404.301 715.91" stroke="var(--stroke-0, #2563EB)" stroke-width="4" stroke-linecap="round" stroke-linejoin="round"/>
<path id="Vector_86" d="M391.81 695.55L387.41 711.97" stroke="var(--stroke-0, #2563EB)" stroke-width="4" stroke-linecap="round" stroke-linejoin="round"/>
<path id="Vector_87" d="M376.28 690.84L370.82 706.94" stroke="var(--stroke-0, #2563EB)" stroke-width="4" stroke-linecap="round" stroke-linejoin="round"/>
<path id="Vector_88" d="M361.09 685.12L354.59 700.83" stroke="var(--stroke-0, #2563EB)" stroke-width="4" stroke-linecap="round" stroke-linejoin="round"/>
<path id="Vector_89" d="M346.309 678.42L338.789 693.67" stroke="var(--stroke-0, #2563EB)" stroke-width="4" stroke-linecap="round" stroke-linejoin="round"/>
<path id="Vector_90" d="M332 670.77L323.5 685.5" stroke="var(--stroke-0, #2563EB)" stroke-width="4" stroke-linecap="round" stroke-linejoin="round"/>
<path id="Vector_91" d="M318.219 662.2L308.77 676.34" stroke="var(--stroke-0, #2563EB)" stroke-width="4" stroke-linecap="round" stroke-linejoin="round"/>
<path id="Vector_92" d="M305.03 652.75L294.68 666.24" stroke="var(--stroke-0, #2563EB)" stroke-width="4" stroke-linecap="round" stroke-linejoin="round"/>
<path id="Vector_93" d="M292.479 642.46L281.27 655.24" stroke="var(--stroke-0, #2563EB)" stroke-width="4" stroke-linecap="round" stroke-linejoin="round"/>
<path id="Vector_94" d="M280.639 631.36L258.719 653.28" stroke="var(--stroke-0, #2563EB)" stroke-width="6" stroke-linecap="round" stroke-linejoin="round"/>
<path id="Vector_95" d="M269.542 619.52L256.762 630.73" stroke="var(--stroke-0, #2563EB)" stroke-width="4" stroke-linecap="round" stroke-linejoin="round"/>
<path id="Vector_96" d="M259.252 606.97L245.762 617.32" stroke="var(--stroke-0, #2563EB)" stroke-width="4" stroke-linecap="round" stroke-linejoin="round"/>
<path id="Vector_97" d="M249.8 593.78L235.66 603.23" stroke="var(--stroke-0, #2563EB)" stroke-width="4" stroke-linecap="round" stroke-linejoin="round"/>
<path id="Vector_98" d="M241.23 580L226.5 588.5" stroke="var(--stroke-0, #2563EB)" stroke-width="4" stroke-linecap="round" stroke-linejoin="round"/>
<path id="Vector_99" d="M233.578 565.69L218.328 573.21" stroke="var(--stroke-0, #2563EB)" stroke-width="4" stroke-linecap="round" stroke-linejoin="round"/>
<path id="Vector_100" d="M226.882 550.91L211.172 557.41" stroke="var(--stroke-0, #2563EB)" stroke-width="4" stroke-linecap="round" stroke-linejoin="round"/>
<path id="Vector_101" d="M221.159 535.72L205.059 541.18" stroke="var(--stroke-0, #2563EB)" stroke-width="4" stroke-linecap="round" stroke-linejoin="round"/>
<path id="Vector_102" d="M216.451 520.19L200.031 524.59" stroke="var(--stroke-0, #2563EB)" stroke-width="4" stroke-linecap="round" stroke-linejoin="round"/>
<path id="Vector_103" d="M212.77 504.38L196.09 507.7" stroke="var(--stroke-0, #2563EB)" stroke-width="4" stroke-linecap="round" stroke-linejoin="round"/>
<path id="Vector_104" d="M210.12 488.37L193.27 490.59" stroke="var(--stroke-0, #2563EB)" stroke-width="4" stroke-linecap="round" stroke-linejoin="round"/>
<path id="Vector_105" d="M208.53 472.22L191.57 473.33" stroke="var(--stroke-0, #2563EB)" stroke-width="4" stroke-linecap="round" stroke-linejoin="round"/>
<path id="Vector_106" d="M208 456H177" stroke="var(--stroke-0, #2563EB)" stroke-width="6" stroke-linecap="round" stroke-linejoin="round"/>
<path id="Vector_107" d="M208.53 439.78L191.57 438.67" stroke="var(--stroke-0, #2563EB)" stroke-width="4" stroke-linecap="round" stroke-linejoin="round"/>
<path id="Vector_108" d="M210.12 423.63L193.27 421.41" stroke="var(--stroke-0, #2563EB)" stroke-width="4" stroke-linecap="round" stroke-linejoin="round"/>
<path id="Vector_109" d="M212.77 407.62L196.09 404.3" stroke="var(--stroke-0, #2563EB)" stroke-width="4" stroke-linecap="round" stroke-linejoin="round"/>
<path id="Vector_110" d="M216.451 391.81L200.031 387.41" stroke="var(--stroke-0, #2563EB)" stroke-width="4" stroke-linecap="round" stroke-linejoin="round"/>
<path id="Vector_111" d="M221.159 376.28L205.059 370.82" stroke="var(--stroke-0, #2563EB)" stroke-width="4" stroke-linecap="round" stroke-linejoin="round"/>
<path id="Vector_112" d="M226.882 361.09L211.172 354.59" stroke="var(--stroke-0, #2563EB)" stroke-width="4" stroke-linecap="round" stroke-linejoin="round"/>
<path id="Vector_113" d="M233.578 346.31L218.328 338.79" stroke="var(--stroke-0, #2563EB)" stroke-width="4" stroke-linecap="round" stroke-linejoin="round"/>
<path id="Vector_114" d="M241.23 332L226.5 323.5" stroke="var(--stroke-0, #2563EB)" stroke-width="4" stroke-linecap="round" stroke-linejoin="round"/>
<path id="Vector_115" d="M249.8 318.22L235.66 308.77" stroke="var(--stroke-0, #2563EB)" stroke-width="4" stroke-linecap="round" stroke-linejoin="round"/>
<path id="Vector_116" d="M259.252 305.03L245.762 294.68" stroke="var(--stroke-0, #2563EB)" stroke-width="4" stroke-linecap="round" stroke-linejoin="round"/>
<path id="Vector_117" d="M269.542 292.48L256.762 281.27" stroke="var(--stroke-0, #2563EB)" stroke-width="4" stroke-linecap="round" stroke-linejoin="round"/>
<path id="Vector_118" d="M280.639 280.64L258.719 258.72" stroke="var(--stroke-0, #2563EB)" stroke-width="6" stroke-linecap="round" stroke-linejoin="round"/>
<path id="Vector_119" d="M292.479 269.54L281.27 256.76" stroke="var(--stroke-0, #2563EB)" stroke-width="4" stroke-linecap="round" stroke-linejoin="round"/>
<path id="Vector_120" d="M305.03 259.25L294.68 245.76" stroke="var(--stroke-0, #2563EB)" stroke-width="4" stroke-linecap="round" stroke-linejoin="round"/>
<path id="Vector_121" d="M318.219 249.8L308.77 235.66" stroke="var(--stroke-0, #2563EB)" stroke-width="4" stroke-linecap="round" stroke-linejoin="round"/>
<path id="Vector_122" d="M332 241.23L323.5 226.5" stroke="var(--stroke-0, #2563EB)" stroke-width="4" stroke-linecap="round" stroke-linejoin="round"/>
<path id="Vector_123" d="M346.309 233.58L338.789 218.33" stroke="var(--stroke-0, #2563EB)" stroke-width="4" stroke-linecap="round" stroke-linejoin="round"/>
<path id="Vector_124" d="M361.09 226.88L354.59 211.17" stroke="var(--stroke-0, #2563EB)" stroke-width="4" stroke-linecap="round" stroke-linejoin="round"/>
<path id="Vector_125" d="M376.28 221.16L370.82 205.06" stroke="var(--stroke-0, #2563EB)" stroke-width="4" stroke-linecap="round" stroke-linejoin="round"/>
<path id="Vector_126" d="M391.81 216.45L387.41 200.03" stroke="var(--stroke-0, #2563EB)" stroke-width="4" stroke-linecap="round" stroke-linejoin="round"/>
<path id="Vector_127" d="M407.621 212.77L404.301 196.09" stroke="var(--stroke-0, #2563EB)" stroke-width="4" stroke-linecap="round" stroke-linejoin="round"/>
<path id="Vector_128" d="M423.63 210.12L421.41 193.27" stroke="var(--stroke-0, #2563EB)" stroke-width="4" stroke-linecap="round" stroke-linejoin="round"/>
<path id="Vector_129" d="M439.782 208.53L438.672 191.57" stroke="var(--stroke-0, #2563EB)" stroke-width="4" stroke-linecap="round" stroke-linejoin="round"/>
<path id="Vector_130" opacity="0.95" d="M456 656C566.457 656 656 566.457 656 456C656 345.543 566.457 256 456 256C345.543 256 256 345.543 256 456C256 566.457 345.543 656 456 656Z" stroke="var(--stroke-0, #2563EB)" stroke-width="2.2" stroke-linecap="round" stroke-linejoin="round"/>
<path id="Vector_131" opacity="0.95" d="M456 611C541.604 611 611 541.604 611 456C611 370.396 541.604 301 456 301C370.396 301 301 370.396 301 456C301 541.604 370.396 611 456 611Z" stroke="var(--stroke-0, #2563EB)" stroke-width="2.2" stroke-linecap="round" stroke-linejoin="round"/>
<path id="Vector_132" opacity="0.95" d="M456 571C519.513 571 571 519.513 571 456C571 392.487 519.513 341 456 341C392.487 341 341 392.487 341 456C341 519.513 392.487 571 456 571Z" stroke="var(--stroke-0, #2563EB)" stroke-width="2.2" stroke-linecap="round" stroke-linejoin="round"/>
<path id="Vector_133" opacity="0.95" d="M456 532C497.974 532 532 497.974 532 456C532 414.026 497.974 380 456 380C414.026 380 380 414.026 380 456C380 497.974 414.026 532 456 532Z" stroke="var(--stroke-0, #2563EB)" stroke-width="2.2" stroke-linecap="round" stroke-linejoin="round"/>
<path id="Vector_134" opacity="0.95" d="M456 496C478.091 496 496 478.091 496 456C496 433.909 478.091 416 456 416C433.909 416 416 433.909 416 456C416 478.091 433.909 496 456 496Z" stroke="var(--stroke-0, #2563EB)" stroke-width="2.2" stroke-linecap="round" stroke-linejoin="round"/>
<path id="Vector_135" d="M456 456V220" stroke="var(--stroke-0, #2563EB)" stroke-width="2.2" stroke-linecap="round" stroke-linejoin="round"/>
<path id="Vector_136" d="M456 456L546.31 237.96" stroke="var(--stroke-0, #2563EB)" stroke-width="2.2" stroke-linecap="round" stroke-linejoin="round"/>
<path id="Vector_137" d="M456 456L622.88 289.12" stroke="var(--stroke-0, #2563EB)" stroke-width="2.2" stroke-linecap="round" stroke-linejoin="round"/>
<path id="Vector_138" d="M456 456L674.04 365.69" stroke="var(--stroke-0, #2563EB)" stroke-width="2.2" stroke-linecap="round" stroke-linejoin="round"/>
<path id="Vector_139" d="M456 456H692" stroke="var(--stroke-0, #2563EB)" stroke-width="2.2" stroke-linecap="round" stroke-linejoin="round"/>
<path id="Vector_140" d="M456 456L674.04 546.31" stroke="var(--stroke-0, #2563EB)" stroke-width="2.2" stroke-linecap="round" stroke-linejoin="round"/>
<path id="Vector_141" d="M456 456L622.88 622.88" stroke="var(--stroke-0, #2563EB)" stroke-width="2.2" stroke-linecap="round" stroke-linejoin="round"/>
<path id="Vector_142" d="M456 456L546.31 674.04" stroke="var(--stroke-0, #2563EB)" stroke-width="2.2" stroke-linecap="round" stroke-linejoin="round"/>
<path id="Vector_143" d="M456 456V692" stroke="var(--stroke-0, #2563EB)" stroke-width="2.2" stroke-linecap="round" stroke-linejoin="round"/>
<path id="Vector_144" d="M456.001 456L365.691 674.04" stroke="var(--stroke-0, #2563EB)" stroke-width="2.2" stroke-linecap="round" stroke-linejoin="round"/>
<path id="Vector_145" d="M456.001 456L289.121 622.88" stroke="var(--stroke-0, #2563EB)" stroke-width="2.2" stroke-linecap="round" stroke-linejoin="round"/>
<path id="Vector_146" d="M456.001 456L237.961 546.31" stroke="var(--stroke-0, #2563EB)" stroke-width="2.2" stroke-linecap="round" stroke-linejoin="round"/>
<path id="Vector_147" d="M456 456H220" stroke="var(--stroke-0, #2563EB)" stroke-width="2.2" stroke-linecap="round" stroke-linejoin="round"/>
<path id="Vector_148" d="M456.001 456L237.961 365.69" stroke="var(--stroke-0, #2563EB)" stroke-width="2.2" stroke-linecap="round" stroke-linejoin="round"/>
<path id="Vector_149" d="M456.001 456L289.121 289.12" stroke="var(--stroke-0, #2563EB)" stroke-width="2.2" stroke-linecap="round" stroke-linejoin="round"/>
<path id="Vector_150" d="M456.001 456L365.691 237.96" stroke="var(--stroke-0, #2563EB)" stroke-width="2.2" stroke-linecap="round" stroke-linejoin="round"/>
<path id="Vector_151" d="M456 470C463.732 470 470 463.732 470 456C470 448.268 463.732 442 456 442C448.268 442 442 448.268 442 456C442 463.732 448.268 470 456 470Z" stroke="var(--stroke-0, #2563EB)" stroke-width="2.2" stroke-linecap="round" stroke-linejoin="round"/>
<path id="Vector_152" d="M456 491C475.33 491 491 475.33 491 456C491 436.67 475.33 421 456 421C436.67 421 421 436.67 421 456C421 475.33 436.67 491 456 491Z" stroke="var(--stroke-0, #2563EB)" stroke-width="2.2" stroke-linecap="round" stroke-linejoin="round"/>
</g>
</svg>
