<svg preserveAspectRatio="none" width="100%" height="100%" overflow="visible" style="display: block;" viewBox="0 0 791.19 160.401" fill="none" xmlns="http://www.w3.org/2000/svg">
<g id="OMEGA (Stroke)">
<g id="Stroke" filter="url(#filter0_n_0_4)">
<path d="M775.59 2.2002L791.19 158.2H742.526L740.327 132.46H687.468L671.848 158.2H617.714L722.011 2.2002H775.59ZM722.545 3.2002L619.585 157.2H671.285L686.905 131.46H741.245L743.445 157.2H790.085L774.685 3.2002H722.545ZM738.385 98.2402H707.365L734.425 53.5801L738.385 98.2402ZM709.14 97.2402H737.292L733.698 56.709L709.14 97.2402Z" fill="url(#paint0_linear_0_4)" style="mix-blend-mode:darken"/>
</g>
<g id="Stroke_2" filter="url(#filter1_n_0_4)">
<path d="M540.569 89.6602C540.569 66.1202 556.629 45.4405 589.849 45.4404L590.624 45.4443C606.932 45.6201 625.276 51.3248 639.569 61.7197L650.569 18.6006C635.193 7.77242 613.635 1.84652 590.721 1.66406L589.629 1.66016C527.149 1.66016 491.289 44.7802 491.289 91.2002L491.295 92.2275C491.804 135.232 524.341 158.807 568.339 159.176L569.389 159.181C589.188 159.181 605.029 154.341 620.648 148.181L640.669 72.5H576.429L568.069 105.28H592.929L588.749 120.46C584.569 121.34 580.169 121.78 576.209 121.78V120.78C579.913 120.78 584.015 120.386 587.947 119.602L591.616 106.28H566.782L575.652 71.5H641.968L621.486 148.925L621.016 149.11C605.341 155.292 589.367 160.181 569.389 160.181C546.781 160.181 527.011 154.141 512.872 142.461C498.71 130.762 490.289 113.475 490.289 91.2002C490.289 44.2171 526.608 0.660156 589.629 0.660156C613.099 0.660161 635.316 6.63518 651.145 17.7822L651.708 18.1797L640.173 63.3965L638.98 62.5293C624.635 52.0963 606.142 46.4404 589.849 46.4404C573.452 46.4405 561.403 51.539 553.456 59.4326C545.504 67.3315 541.569 78.1176 541.569 89.6602L541.579 90.5986C541.798 100.222 545.395 107.646 551.286 112.718C557.387 117.97 566.045 120.78 576.209 120.78V121.78L575.244 121.771C555.386 121.426 541.031 110.377 540.58 90.623L540.569 89.6602Z" fill="url(#paint1_linear_0_4)" style="mix-blend-mode:darken"/>
</g>
<g id="Stroke_3" filter="url(#filter2_n_0_4)">
<path d="M507.47 2.2002L497.295 43.3604H430.186L425.206 62.4805H485.247L475.956 100.34H415.889L410.899 119.9H478.431L468.914 158.2H350.251L389.251 2.2002H507.47ZM390.032 3.2002L351.532 157.2H468.132L477.152 120.9H409.612L415.112 99.3398H475.172L483.972 63.4805H423.912L429.412 42.3604H496.512L506.192 3.2002H390.032Z" fill="url(#paint2_linear_0_4)" style="mix-blend-mode:darken"/>
</g>
<g id="Stroke_4" filter="url(#filter3_n_0_4)">
<path d="M244.411 2.2002L244.675 2.7959L268.913 57.71L319.438 2.2002H375.061L336.061 158.2H289.778L310.77 74.457L310.771 74.4512L311.81 70.4111L254.245 129.902L225.134 67.1514L223.611 73.3975L223.61 73.4014L202.521 158.2H156.239L195.239 2.2002H244.411ZM196.02 3.2002L157.52 157.2H201.739L222.64 73.1602L224.84 64.1406L254.54 128.16L313.72 67L311.739 74.7002L291.06 157.2H335.279L373.779 3.2002H319.88L268.62 59.5205L243.76 3.2002H196.02Z" fill="url(#paint3_linear_0_4)" style="mix-blend-mode:darken"/>
</g>
<g id="Stroke_5" filter="url(#filter4_n_0_4)">
<path d="M166 73.3799C166 28.9401 132.34 1 89.2197 1C38.3998 1.00012 1 39.2806 1 87.0205L1.00586 88.0586C1.52613 131.898 34.9971 159.619 77.7803 159.4C128.203 159.4 165.415 121.716 165.993 74.4971L166 73.3799ZM115.5 77.3398C115.5 67.884 112.387 60.1698 107.228 54.8252C102.069 49.4817 94.8022 46.4405 86.3604 46.4404C66.1068 46.4404 51.5 63.7136 51.5 83.9404L51.5088 84.8213C51.6962 93.8759 54.7732 101.278 59.7715 106.456C64.9299 111.8 72.1978 114.84 80.6396 114.84V115.84C63.5314 115.84 50.8994 103.689 50.5088 84.8428L50.5 83.9404C50.5 63.2604 65.4604 45.4404 86.3604 45.4404L87.1709 45.4492C104.135 45.8334 116.5 58.2824 116.5 77.3398L116.488 78.3271C116.011 98.9989 100.563 115.84 80.6396 115.84V114.84C100.252 114.84 115.5 97.9864 115.5 77.3398ZM166.993 74.5107C166.408 122.284 128.743 160.397 77.7842 160.399C56.0072 160.51 36.5604 153.455 22.5469 140.697C8.52391 127.931 7.92847e-05 109.508 0 87.0205C0 38.7184 37.8575 0.000121554 89.2197 0C110.993 0 130.439 7.05596 144.452 19.7852C158.475 32.5234 167 50.8915 167 73.3799L166.993 74.5107Z" fill="url(#paint4_linear_0_4)" style="mix-blend-mode:darken"/>
</g>
</g>
<defs>
<filter id="filter0_n_0_4" x="617.714" y="2.2002" width="173.477" height="156" filterUnits="userSpaceOnUse" color-interpolation-filters="sRGB">
<feFlood flood-opacity="0" result="BackgroundImageFix"/>
<feBlend mode="normal" in="SourceGraphic" in2="BackgroundImageFix" result="shape"/>
<feTurbulence type="fractalNoise" baseFrequency="0.5 0.5" stitchTiles="stitch" numOctaves="3" result="noise" seed="7414" />
<feColorMatrix in="noise" type="luminanceToAlpha" result="alphaNoise" />
<feComponentTransfer in="alphaNoise" result="coloredNoise1">
<feFuncA type="discrete" tableValues="0 0 0 0 0 0 0 1 1 1 1 1 1 1 1 1 1 1 1 1 1 1 1 1 1 1 1 1 1 1 1 1 1 1 1 1 1 1 1 1 1 1 1 0 0 0 0 0 0 0 0 0 0 0 0 0 0 0 0 0 0 0 0 0 0 0 0 0 0 0 0 0 0 0 0 0 0 0 0 0 0 0 0 0 0 0 0 0 0 0 0 0 0 0 0 0 0 0 0 0 "/>
</feComponentTransfer>
<feComposite operator="in" in2="shape" in="coloredNoise1" result="noise1Clipped" />
<feFlood flood-color="rgba(195, 26, 26, 0.05)" result="color1Flood" />
<feComposite operator="in" in2="noise1Clipped" in="color1Flood" result="color1" />
<feMerge result="effect1_noise_0_4">
<feMergeNode in="shape" />
<feMergeNode in="color1" />
</feMerge>
</filter>
<filter id="filter1_n_0_4" x="490.289" y="0.660156" width="161.419" height="159.521" filterUnits="userSpaceOnUse" color-interpolation-filters="sRGB">
<feFlood flood-opacity="0" result="BackgroundImageFix"/>
<feBlend mode="normal" in="SourceGraphic" in2="BackgroundImageFix" result="shape"/>
<feTurbulence type="fractalNoise" baseFrequency="0.5 0.5" stitchTiles="stitch" numOctaves="3" result="noise" seed="7414" />
<feColorMatrix in="noise" type="luminanceToAlpha" result="alphaNoise" />
<feComponentTransfer in="alphaNoise" result="coloredNoise1">
<feFuncA type="discrete" tableValues="0 0 0 0 0 0 0 1 1 1 1 1 1 1 1 1 1 1 1 1 1 1 1 1 1 1 1 1 1 1 1 1 1 1 1 1 1 1 1 1 1 1 1 0 0 0 0 0 0 0 0 0 0 0 0 0 0 0 0 0 0 0 0 0 0 0 0 0 0 0 0 0 0 0 0 0 0 0 0 0 0 0 0 0 0 0 0 0 0 0 0 0 0 0 0 0 0 0 0 0 "/>
</feComponentTransfer>
<feComposite operator="in" in2="shape" in="coloredNoise1" result="noise1Clipped" />
<feFlood flood-color="rgba(195, 26, 26, 0.05)" result="color1Flood" />
<feComposite operator="in" in2="noise1Clipped" in="color1Flood" result="color1" />
<feMerge result="effect1_noise_0_4">
<feMergeNode in="shape" />
<feMergeNode in="color1" />
</feMerge>
</filter>
<filter id="filter2_n_0_4" x="350.251" y="2.2002" width="157.219" height="156" filterUnits="userSpaceOnUse" color-interpolation-filters="sRGB">
<feFlood flood-opacity="0" result="BackgroundImageFix"/>
<feBlend mode="normal" in="SourceGraphic" in2="BackgroundImageFix" result="shape"/>
<feTurbulence type="fractalNoise" baseFrequency="0.5 0.5" stitchTiles="stitch" numOctaves="3" result="noise" seed="7414" />
<feColorMatrix in="noise" type="luminanceToAlpha" result="alphaNoise" />
<feComponentTransfer in="alphaNoise" result="coloredNoise1">
<feFuncA type="discrete" tableValues="0 0 0 0 0 0 0 1 1 1 1 1 1 1 1 1 1 1 1 1 1 1 1 1 1 1 1 1 1 1 1 1 1 1 1 1 1 1 1 1 1 1 1 0 0 0 0 0 0 0 0 0 0 0 0 0 0 0 0 0 0 0 0 0 0 0 0 0 0 0 0 0 0 0 0 0 0 0 0 0 0 0 0 0 0 0 0 0 0 0 0 0 0 0 0 0 0 0 0 0 "/>
</feComponentTransfer>
<feComposite operator="in" in2="shape" in="coloredNoise1" result="noise1Clipped" />
<feFlood flood-color="rgba(195, 26, 26, 0.05)" result="color1Flood" />
<feComposite operator="in" in2="noise1Clipped" in="color1Flood" result="color1" />
<feMerge result="effect1_noise_0_4">
<feMergeNode in="shape" />
<feMergeNode in="color1" />
</feMerge>
</filter>
<filter id="filter3_n_0_4" x="156.239" y="2.2002" width="218.821" height="156" filterUnits="userSpaceOnUse" color-interpolation-filters="sRGB">
<feFlood flood-opacity="0" result="BackgroundImageFix"/>
<feBlend mode="normal" in="SourceGraphic" in2="BackgroundImageFix" result="shape"/>
<feTurbulence type="fractalNoise" baseFrequency="0.5 0.5" stitchTiles="stitch" numOctaves="3" result="noise" seed="7414" />
<feColorMatrix in="noise" type="luminanceToAlpha" result="alphaNoise" />
<feComponentTransfer in="alphaNoise" result="coloredNoise1">
<feFuncA type="discrete" tableValues="0 0 0 0 0 0 0 1 1 1 1 1 1 1 1 1 1 1 1 1 1 1 1 1 1 1 1 1 1 1 1 1 1 1 1 1 1 1 1 1 1 1 1 0 0 0 0 0 0 0 0 0 0 0 0 0 0 0 0 0 0 0 0 0 0 0 0 0 0 0 0 0 0 0 0 0 0 0 0 0 0 0 0 0 0 0 0 0 0 0 0 0 0 0 0 0 0 0 0 0 "/>
</feComponentTransfer>
<feComposite operator="in" in2="shape" in="coloredNoise1" result="noise1Clipped" />
<feFlood flood-color="rgba(195, 26, 26, 0.05)" result="color1Flood" />
<feComposite operator="in" in2="noise1Clipped" in="color1Flood" result="color1" />
<feMerge result="effect1_noise_0_4">
<feMergeNode in="shape" />
<feMergeNode in="color1" />
</feMerge>
</filter>
<filter id="filter4_n_0_4" x="0" y="0" width="167" height="160.401" filterUnits="userSpaceOnUse" color-interpolation-filters="sRGB">
<feFlood flood-opacity="0" result="BackgroundImageFix"/>
<feBlend mode="normal" in="SourceGraphic" in2="BackgroundImageFix" result="shape"/>
<feTurbulence type="fractalNoise" baseFrequency="0.5 0.5" stitchTiles="stitch" numOctaves="3" result="noise" seed="7414" />
<feColorMatrix in="noise" type="luminanceToAlpha" result="alphaNoise" />
<feComponentTransfer in="alphaNoise" result="coloredNoise1">
<feFuncA type="discrete" tableValues="0 0 0 0 0 0 0 1 1 1 1 1 1 1 1 1 1 1 1 1 1 1 1 1 1 1 1 1 1 1 1 1 1 1 1 1 1 1 1 1 1 1 1 0 0 0 0 0 0 0 0 0 0 0 0 0 0 0 0 0 0 0 0 0 0 0 0 0 0 0 0 0 0 0 0 0 0 0 0 0 0 0 0 0 0 0 0 0 0 0 0 0 0 0 0 0 0 0 0 0 "/>
</feComponentTransfer>
<feComposite operator="in" in2="shape" in="coloredNoise1" result="noise1Clipped" />
<feFlood flood-color="rgba(195, 26, 26, 0.05)" result="color1Flood" />
<feComposite operator="in" in2="noise1Clipped" in="color1Flood" result="color1" />
<feMerge result="effect1_noise_0_4">
<feMergeNode in="shape" />
<feMergeNode in="color1" />
</feMerge>
</filter>
<linearGradient id="paint0_linear_0_4" x1="395.96" y1="-26.7998" x2="395.96" y2="193.2" gradientUnits="userSpaceOnUse">
<stop stop-color="#CFCEC1"/>
<stop offset="1" stop-color="#696962"/>
</linearGradient>
<linearGradient id="paint1_linear_0_4" x1="395.96" y1="-26.7998" x2="395.96" y2="193.2" gradientUnits="userSpaceOnUse">
<stop stop-color="#CFCEC1"/>
<stop offset="1" stop-color="#696962"/>
</linearGradient>
<linearGradient id="paint2_linear_0_4" x1="395.96" y1="-26.7998" x2="395.96" y2="193.2" gradientUnits="userSpaceOnUse">
<stop stop-color="#CFCEC1"/>
<stop offset="1" stop-color="#696962"/>
</linearGradient>
<linearGradient id="paint3_linear_0_4" x1="395.96" y1="-26.7998" x2="395.96" y2="193.2" gradientUnits="userSpaceOnUse">
<stop stop-color="#CFCEC1"/>
<stop offset="1" stop-color="#696962"/>
</linearGradient>
<linearGradient id="paint4_linear_0_4" x1="395.96" y1="-26.7998" x2="395.96" y2="193.2" gradientUnits="userSpaceOnUse">
<stop stop-color="#CFCEC1"/>
<stop offset="1" stop-color="#696962"/>
</linearGradient>
</defs>
</svg>
