<svg preserveAspectRatio="none" width="100%" height="100%" overflow="visible" style="display: block;" viewBox="0 0 208.61 208.535" fill="none" xmlns="http://www.w3.org/2000/svg">
<g id="Group">
<path id="Vector" d="M29.9939 142V154.012C35.5496 162.13 42.3975 169.289 50.242 175.231V142H29.9939Z" fill="var(--fill-0, #0AA3CD)"/>
<path id="Vector_2" d="M58.4926 132.959V186.227C64.8236 189.586 71.6161 192.224 78.7408 194.032V132.959H58.4926Z" fill="var(--fill-0, #0AA3CD)"/>
<path id="Vector_3" d="M90.9967 139.786V186.652C94.3191 187.021 97.6969 187.205 101.112 187.205C104.526 187.205 107.904 187.002 111.226 186.652V139.786H90.9783H90.9967Z" fill="var(--fill-0, #0AA3CD)"/>
<path id="Vector_4" d="M123.519 155.211V193.331C130.644 191.523 137.418 188.884 143.767 185.526V155.211H123.519Z" fill="var(--fill-0, #0AA3CD)"/>
<path id="Vector_5" d="M156.042 132.239V177.685C163.868 171.762 170.716 164.584 176.29 156.466V132.239H156.042Z" fill="var(--fill-0, #0AA3CD)"/>
<path id="Vector_6" d="M182.049 146.816C188.509 134.306 192.164 120.117 192.164 105.079C192.164 100.356 191.795 95.7061 191.112 91.1855H182.049V146.816Z" fill="var(--fill-0, #0AA3CD)"/>
<path id="Vector_7" d="M158.552 82.3659C123.206 71.5351 85.4041 71.5351 50.0574 82.3659C48.4332 82.8641 46.6981 82.0153 46.1813 80.4285C45.8122 79.3215 45.4615 78.2144 45.1108 77.1073C44.5939 75.5205 45.5537 73.7861 47.2703 73.2695C84.4442 61.8851 124.184 61.8851 161.339 73.2695C163.056 73.7861 164.016 75.539 163.499 77.1073C163.148 78.2144 162.779 79.3215 162.428 80.4285C161.911 82.0153 160.176 82.8641 158.552 82.3659Z" fill="var(--fill-0, #0B303F)"/>
<path id="Vector_8" d="M104.305 0C46.6981 0 0 46.6814 0 104.267C0 161.853 46.6981 208.535 104.305 208.535C161.911 208.535 208.61 161.853 208.61 104.267C208.61 46.6814 161.911 0 104.305 0ZM104.305 195.287C54.0259 195.287 13.2527 154.547 13.2527 104.267C13.2527 53.988 54.0259 13.2479 104.305 13.2479C154.584 13.2479 195.357 53.988 195.357 104.267C195.357 154.547 154.602 195.287 104.305 195.287Z" fill="var(--fill-0, #0B303F)"/>
<path id="Vector_9" d="M104.305 0C46.6981 0 0 46.6814 0 104.267C0 161.853 46.6981 208.535 104.305 208.535C161.911 208.535 208.61 161.853 208.61 104.267C208.61 46.6814 161.911 0 104.305 0ZM104.305 195.287C54.0259 195.287 13.2527 154.547 13.2527 104.267C13.2527 53.988 54.0259 13.2479 104.305 13.2479C154.584 13.2479 195.357 53.988 195.357 104.267C195.357 154.547 154.602 195.287 104.305 195.287Z" fill="var(--fill-0, #0B303F)"/>
<path id="Vector_10" d="M109.233 56.6635V185.674C109.233 188.183 107.203 190.213 104.692 190.213H104.249C101.739 190.213 99.7088 188.183 99.7088 185.674V90.9272V56.6635C99.7088 54.1541 101.739 52.1245 104.249 52.1245H104.692C107.203 52.1245 109.233 54.1541 109.233 56.6635Z" fill="var(--fill-0, #0B303F)"/>
<path id="Vector_11" d="M138.23 127.368C147.681 130.542 158.035 130.542 167.486 127.368C176.936 124.195 181.532 119.01 181.532 113.807H124.184C124.184 119.01 128.872 124.232 138.23 127.368Z" fill="var(--fill-0, #0B303F)"/>
<path id="Vector_12" d="M104.305 197.483C135.06 197.483 159.992 189.114 159.992 178.792C159.992 168.469 135.06 160.101 104.305 160.101C73.5497 160.101 48.6177 168.469 48.6177 178.792C48.6177 189.114 73.5497 197.483 104.305 197.483Z" fill="var(--fill-0, #0B303F)"/>
<path id="Vector_13" d="M117.225 55.8147C117.631 54.4124 117.687 52.8256 117.687 51.0912C117.687 50.1502 117.687 49.1354 117.687 48.0837C117.724 40.7955 111.78 34.9096 104.508 34.9096C104.508 34.9096 104.508 34.9096 104.489 34.9096C104.471 34.9096 104.489 34.9096 104.471 34.9096C97.1801 34.9096 91.2367 40.8139 91.2921 48.0837C91.2921 49.1354 91.2921 50.1502 91.2921 51.0912C91.2921 52.8256 91.329 54.4124 91.7535 55.8147C91.7535 55.8516 91.7535 55.8701 91.772 55.907C91.772 55.9439 91.7904 55.9808 91.8089 56.0361C92.8241 59.3942 95.7958 61.2762 104.471 61.2762C104.471 61.2762 104.471 61.2762 104.489 61.2762C104.508 61.2762 104.489 61.2762 104.508 61.2762C113.183 61.2762 116.155 59.3942 117.17 56.0361C117.17 55.9992 117.188 55.9623 117.207 55.907C117.207 55.8701 117.207 55.8516 117.225 55.8147Z" fill="var(--fill-0, #0B303F)"/>
<path id="Vector_14" d="M104.471 94.5068C116.775 94.5068 126.749 84.5359 126.749 72.2362C126.749 59.9365 116.775 49.9657 104.471 49.9657C92.1668 49.9657 82.1924 59.9365 82.1924 72.2362C82.1924 84.5359 92.1668 94.5068 104.471 94.5068Z" fill="var(--fill-0, #0B303F)"/>
<path id="Vector_15" d="M123.722 163.496C112.057 163.219 115.029 150.672 104.305 150.672C93.5808 150.672 96.5525 163.219 84.8872 163.496C77.7995 163.662 93.5808 176.319 104.305 176.319C115.029 176.319 130.81 163.662 123.722 163.496Z" fill="var(--fill-0, #0B303F)"/>
<path id="Vector_16" d="M170.827 100.78H134.889C134.267 100.78 133.763 101.284 133.763 101.906V104.784C133.763 105.406 134.267 105.91 134.889 105.91H170.827C171.448 105.91 171.952 105.406 171.952 104.784V101.906C171.952 101.284 171.448 100.78 170.827 100.78Z" fill="var(--fill-0, #0B303F)"/>
<path id="Vector_17" d="M164.865 92.6432H140.833C140.354 92.6432 139.965 93.0314 139.965 93.5104V96.9054C139.965 97.3843 140.354 97.7726 140.833 97.7726H164.865C165.344 97.7726 165.732 97.3843 165.732 96.9054V93.5104C165.732 93.0314 165.344 92.6432 164.865 92.6432Z" fill="var(--fill-0, #0B303F)"/>
<path id="Vector_18" d="M41.0316 127.368C50.482 130.542 60.8368 130.542 70.2871 127.368C79.7375 124.195 84.3335 119.01 84.3335 113.807H26.9668C26.9668 119.01 31.6551 124.232 41.0131 127.368H41.0316Z" fill="var(--fill-0, #0B303F)"/>
<path id="Vector_19" d="M73.6095 100.78H37.6723C37.0505 100.78 36.5464 101.284 36.5464 101.906V104.784C36.5464 105.406 37.0505 105.91 37.6723 105.91H73.6095C74.2314 105.91 74.7355 105.406 74.7355 104.784V101.906C74.7355 101.284 74.2314 100.78 73.6095 100.78Z" fill="var(--fill-0, #0B303F)"/>
<path id="Vector_20" d="M67.6661 92.6432H43.6341C43.155 92.6432 42.7666 93.0314 42.7666 93.5104V96.9054C42.7666 97.3843 43.155 97.7726 43.6341 97.7726H67.6661C68.1453 97.7726 68.5337 97.3843 68.5337 96.9054V93.5104C68.5337 93.0314 68.1453 92.6432 67.6661 92.6432Z" fill="var(--fill-0, #0B303F)"/>
</g>
</svg>
