<svg preserveAspectRatio="none" width="100%" height="100%" overflow="visible" style="display: block;" viewBox="0 0 192 96" fill="none" xmlns="http://www.w3.org/2000/svg">
<g id="_&#227;&#131;&#172;&#227;&#130;&#164;&#227;&#131;&#164;&#227;&#131;&#188;_1" clip-path="url(#clip0_0_6)">
<path id="Vector" d="M0 77.8074C0 87.8538 42.9825 96 96 96C149.018 96 192 87.8538 192 77.8074C192 67.761 149.018 59.6147 96 59.6147C42.9825 59.6147 0 67.761 0 77.8074ZM165.35 77.8074C165.35 85.0626 134.303 90.9541 96 90.9541C57.6969 90.9541 26.6504 85.0717 26.6504 77.8074C26.6504 70.543 57.6969 64.6607 96 64.6607C134.303 64.6607 165.35 70.543 165.35 77.8074Z" fill="var(--fill-0, white)"/>
<path id="Vector_2" d="M115.075 19.5746L115.066 19.5837L93.4698 43.0495L71.9009 19.6018L71.8369 19.5746L55.2581 15.5196L59.8552 31.903L59.8735 31.9394L84.8696 52.3959L67.0936 71.7068L63.4469 67.8428L61.3997 69.752L65.1926 73.7797L60.3487 79.0438L64.3883 83.2079L69.8628 78.7256L73.0798 82.1441L75.1271 80.2349L72.0288 76.9527L93.4515 59.4238L114.874 76.9527L111.785 80.2349L113.832 82.1441L117.049 78.7256L122.515 83.2079L126.563 79.0438L121.71 73.7706L125.503 69.752L123.456 67.8428L119.819 71.7068L102.052 52.3868L127.039 31.9394L127.048 31.903L131.654 15.5196L115.075 19.5746Z" fill="var(--fill-0, white)" stroke="var(--stroke-0, #2563EB)" stroke-miterlimit="10"/>
<path id="Vector_3" d="M28.6716 33.985C28.6716 33.985 28.6808 34.0305 28.6899 34.0487C29.0006 35.076 30.4721 35.0579 30.7463 34.0214C30.7463 34.0123 30.7463 34.0032 30.7463 33.9941L38.6975 7.75527C39.2916 5.67325 39.6571 4.26403 39.8582 2.79116C39.9313 2.26384 40.3792 1.8638 40.9184 1.8638H51.2002C51.9587 1.8638 52.4797 2.6366 52.1872 3.33667C51.6937 4.50041 51.1636 5.90055 50.2131 8.51898L38.5878 41.3585C37.8293 43.5314 37.3266 45.1679 37.0159 46.4408C36.8971 46.9226 36.4766 47.2499 35.974 47.2499H23.4348C22.9412 47.2499 22.5117 46.9135 22.3929 46.4317C22.0821 45.1315 21.5795 43.5041 20.8118 41.3585L9.14991 8.50988C8.32737 6.12784 7.80642 4.76408 7.20322 3.32758C6.91076 2.62751 7.42257 1.85471 8.19028 1.85471H18.4812C19.0022 1.85471 19.45 2.22747 19.5322 2.73661C19.7881 4.2913 20.2177 6.05511 20.7204 7.74618L28.6716 33.985Z" fill="var(--fill-0, white)"/>
<path id="Vector_4" d="M149.364 31.8394C150.186 31.7576 150.917 32.3122 151.091 33.1122C151.329 34.2032 151.694 34.9397 152.288 35.7307C153.604 37.3672 155.907 38.2945 158.704 38.2945C162.926 38.2945 165.449 36.4398 165.449 33.385C165.449 31.6939 164.571 30.221 163.146 29.5664C161.994 29.0209 160.623 28.6391 154.92 27.3299C149.875 26.2388 148.121 25.5842 146.092 24.1659C142.637 21.7657 140.773 18.1108 140.773 13.6922C140.773 5.29141 147.572 0 158.375 0C165.339 0 170.658 2.12747 173.619 6.21877C174.689 7.628 175.329 8.93721 175.895 10.9283C176.169 11.8829 175.511 12.8558 174.515 12.9558L166.18 13.8559C165.412 13.9377 164.663 13.5013 164.425 12.7739C163.548 10.1191 161.583 8.99176 157.936 8.99176C154.591 8.99176 152.124 10.7919 152.124 13.3013C152.124 14.8287 152.946 15.9742 154.701 16.7925C155.432 17.1198 157.955 17.7199 162.268 18.5927C166.436 19.4655 169.068 20.3928 171.152 21.7021C175.1 24.1568 177.074 27.8117 177.074 32.8304C177.074 36.9217 175.758 40.4129 173.236 42.8677C170.055 45.9225 165.23 47.5045 158.814 47.5045C154.153 47.5045 149.546 46.5226 146.585 44.8315C143.843 43.3041 141.814 40.9584 140.663 37.849C140.261 36.8762 140.005 35.9398 139.74 34.5033C139.575 33.5759 140.224 32.7031 141.166 32.6122L149.354 31.8303L149.364 31.8394Z" fill="var(--fill-0, white)"/>
<path id="Vector_5" d="M119.992 89.1448L121.948 87.8901C122.432 87.581 122.213 86.8355 121.637 86.8355L70.9412 86.5173C70.8316 86.5173 70.731 86.5445 70.6396 86.5991L68.5467 87.8537C68.0441 88.1538 68.2543 88.9175 68.8392 88.9175L119.682 89.2357C119.791 89.2357 119.901 89.2084 120.001 89.1448H119.992Z" fill="var(--fill-0, white)"/>
</g>
<defs>
<clipPath id="clip0_0_6">
<rect width="192" height="96" fill="white"/>
</clipPath>
</defs>
</svg>
